SplineFontDB: 3.2
FontName: D-DIN-PRO-Exp-SemiBold-Italic
FullName: D-DIN-PRO-Exp-SemiBold-Italic
FamilyName: D-DIN-PRO-Exp
Weight: Semibold
Copyright: Copyright (c) CyberFei. All rights reserved
Version: 1.1.0
ItalicAngle: -13
UnderlinePosition: -150
UnderlineWidth: 50
Ascent: 831
Descent: 169
InvalidEm: 0
sfntRevision: 0x00010000
LayerCount: 2
Layer: 0 0 "Back" 1
Layer: 1 0 "Fore" 0
XUID: [1021 868 -1451673819 30507]
StyleMap: 0x0040
FSType: 4
OS2Version: 4
OS2_WeightWidthSlopeOnly: 1
OS2_UseTypoMetrics: 0
CreationTime: 1462909513
ModificationTime: 1778060080
PfmFamily: 17
TTFWeight: 600
TTFWidth: 7
LineGap: 0
VLineGap: 0
Panose: 2 11 5 4 2 2 2 3 2 4
OS2TypoAscent: 831
OS2TypoAOffset: 0
OS2TypoDescent: -169
OS2TypoDOffset: 0
OS2TypoLinegap: 86
OS2WinAscent: 902
OS2WinAOffset: 0
OS2WinDescent: 184
OS2WinDOffset: 0
HheadAscent: 902
HheadAOffset: 0
HheadDescent: -184
HheadDOffset: 0
OS2SubXSize: 650
OS2SubYSize: 600
OS2SubXOff: 0
OS2SubYOff: 75
OS2SupXSize: 650
OS2SupYSize: 600
OS2SupXOff: 0
OS2SupYOff: 350
OS2StrikeYSize: 50
OS2StrikeYPos: 307
OS2CapHeight: 690
OS2XHeight: 512
OS2Vendor: 'MONO'
OS2CodePages: 00000001.00000000
OS2UnicodeRanges: 8000006f.4000000a.00000000.00000000
Lookup: 1 0 0 "'rtla' Right to Left Alternates lookup 0" { "'rtla' Right to Left Alternates lookup 0 subtable"  } ['rtla' ('DFLT' <'dflt' > ) ]
Lookup: 1 0 0 "'sups' Superscript lookup 1" { "'sups' Superscript lookup 1 subtable" ("superior") } ['sups' ('DFLT' <'dflt' > ) ]
Lookup: 4 0 0 "'frac' Diagonal Fractions lookup 2" { "'frac' Diagonal Fractions lookup 2 subtable"  } ['frac' ('DFLT' <'dflt' > ) ]
Lookup: 258 0 0 "'kern' Horizontal Kerning in Latin lookup 0" { "'kern' Horizontal Kerning in Latin lookup 0 subtable"  } ['kern' ('DFLT' <'dflt' > 'latn' <'dflt' > ) ]
Lookup: 258 0 0 "Pairwise Positioning (kerning) lookup 1" { "Pairwise Positioning (kerning) lookup 1 subtable"  } []

StartChar: .notdef
Encoding: 65536 -1 0
Width: 603
GlyphClass: 1
Flags: MW
HStem: 0.0595703 61.4404<95.9268 382.967 95.9268 430.223> 629.82 61.4395<227.134 514.174 227.134 227.134>
VStem: 103.748 61.4395 452.228 61.4404
LayerCount: 2
Fore
SplineSet
179.87890625 691.259765625 m 1
 589.798828125 691.259765625 l 1
 430.22265625 0.0595703125 l 1
 20.302734375 0.0595703125 l 1
 179.87890625 691.259765625 l 1
95.9267578125 61.5 m 1
 382.966796875 61.5 l 1
 514.173828125 629.8203125 l 1
 227.133789062 629.8203125 l 1
 95.9267578125 61.5 l 1
EndSplineSet
EndChar

StartChar: exclam
Encoding: 33 33 4
Width: 252
GlyphClass: 2
Flags: MW
HStem: 0.0595703 128.641<19.2822 115.343 -10.417 145.042> 671.26 20G<148.613 275.434 275.434 275.434>
VStem: 73.0283 125.76 90.833 91.1377
LayerCount: 2
Fore
SplineSet
275.43359375 691.259765625 m 1xd0
 144.182617188 197.8203125 l 1
 53.044921875 197.8203125 l 1
 148.61328125 691.259765625 l 1
 275.43359375 691.259765625 l 1xd0
19.2822265625 128.700195312 m 1xe0
 145.041992188 128.700195312 l 1
 115.342773438 0.0595703125 l 1
 -10.4169921875 0.0595703125 l 1
 19.2822265625 128.700195312 l 1xe0
EndSplineSet
EndChar

StartChar: quotedbl
Encoding: 34 34 5
Width: 347
GlyphClass: 2
Flags: MW
HStem: 421.5 269.76<128.999 173.279 66.7197 235.559 220.319 220.319 220.319 235.559 282.599 327.84>
VStem: 52.8682 106.56 206.468 107.521
LayerCount: 2
Fore
SplineSet
128.999023438 691.259765625 m 1
 235.55859375 691.259765625 l 1
 173.279296875 421.5 l 1
 66.7197265625 421.5 l 1
 128.999023438 691.259765625 l 1
282.598632812 691.259765625 m 1
 390.119140625 691.259765625 l 1
 327.83984375 421.5 l 1
 220.319335938 421.5 l 1
 282.598632812 691.259765625 l 1
EndSplineSet
EndChar

StartChar: numbersign
Encoding: 35 35 6
Width: 587
GlyphClass: 2
Flags: MW
HStem: 0.0595703 21G<25.0342 124.158 25.0342 25.0342 217.994 317.118 217.994 217.994> 207.42 93.1201<14.7939 99.7871 -6.7041 133.646 232.765 292.747 14.7939 198.911 424.765 515.535> 406.14 92.1602<83.4912 171.603 62.2139 205.232 83.4912 270.722 303.395 364.562 495.395 585.413> 671.26 20G<274.74 372.902 372.902 372.902 466.74 564.902 564.902 564.902>
LayerCount: 2
Fore
SplineSet
606.690429688 498.299804688 m 1
 585.413085938 406.139648438 l 1
 462.721679688 406.139648438 l 1
 424.764648438 300.540039062 l 1
 537.033203125 300.540039062 l 1
 515.53515625 207.419921875 l 1
 391.87109375 207.419921875 l 1
 317.118164062 0.0595703125 l 1
 217.994140625 0.0595703125 l 1
 292.747070312 207.419921875 l 1
 198.911132812 207.419921875 l 1
 124.158203125 0.0595703125 l 1
 25.0341796875 0.0595703125 l 1
 99.787109375 207.419921875 l 1
 -6.7041015625 207.419921875 l 1
 14.7939453125 300.540039062 l 1
 133.645507812 300.540039062 l 1
 171.602539062 406.139648438 l 1
 62.2138671875 406.139648438 l 1
 83.4912109375 498.299804688 l 1
 205.232421875 498.299804688 l 1
 274.740234375 691.259765625 l 1
 372.90234375 691.259765625 l 1
 303.39453125 498.299804688 l 1
 397.232421875 498.299804688 l 1
 466.740234375 691.259765625 l 1
 564.90234375 691.259765625 l 1
 495.39453125 498.299804688 l 1
 606.690429688 498.299804688 l 1
326.60546875 300.540039062 m 1
 364.5625 406.139648438 l 1
 270.721679688 406.139648438 l 1
 232.764648438 300.540039062 l 1
 326.60546875 300.540039062 l 1
EndSplineSet
EndChar

StartChar: dollar
Encoding: 36 36 7
Width: 524
GlyphClass: 2
Flags: MW
HStem: 28.2773 104.212<142.018 166.077> 558.799 102.094<264.498 288.068>
VStem: 49.0283 111.359 218.948 93.1191 383.107 111.36
LayerCount: 2
Fore
SplineSet
206.129882812 305.977539062 m 1
 73.6845703125 331.708007812 59.0947265625 405.103515625 76.177734375 479.099609375 c 0
 87.9677734375 530.1640625 114.057617188 573.212890625 154.31640625 605.919921875 c 0
 191.3828125 636.03515625 236.399414062 654.067382812 288.068359375 660.892578125 c 1
 306.3828125 740.219726562 l 1
 399.501953125 740.219726562 l 1
 381.432617188 661.953125 l 1
 424.793945312 656.178710938 536.750976562 631.166992188 511.461914062 480.969726562 c 2
 508.8828125 465.659179688 l 1
 400.697265625 465.659179688 l 1
 405.818359375 501.7421875 411.874023438 544.403320312 357.600585938 558.725585938 c 1
 320.53515625 398.1796875 l 1
 346.392578125 393.688476562 409.666015625 382.69921875 444.473632812 338.140625 c 0
 467.755859375 308.334960938 472.672851562 267.096679688 461.111328125 217.01953125 c 0
 448.581054688 162.7421875 420.872070312 117.720703125 378 84.607421875 c 0
 338.590820312 54.16796875 290.677734375 36.087890625 235.385742188 29.357421875 c 1
 215.545898438 -56.580078125 l 1
 122.426757812 -56.580078125 l 1
 142.017578125 28.27734375 l 1
 92.8271484375 34.1884765625 -23.888671875 58.7822265625 3.6845703125 219.04296875 c 2
 6.3095703125 234.299804688 l 1
 114.294921875 234.299804688 l 1
 108.671875 191.341796875 103.874023438 147.56640625 166.077148438 132.489257812 c 1
 206.129882812 305.977539062 l 1
264.498046875 558.798828125 m 1
 215.83984375 547.696289062 196.842773438 519.405273438 189.088867188 485.819335938 c 0
 181.1953125 451.62890625 189.296875 429.7734375 231.536132812 416.0234375 c 1
 264.498046875 558.798828125 l 1
258.805664062 130.796875 m 1
 318.67578125 141.268554688 339.946289062 174.548828125 348.421875 211.258789062 c 0
 354.340820312 236.899414062 351.325195312 253.4296875 342.232421875 264.001953125 c 0
 334.329101562 273.192382812 318.858398438 281.749023438 295.163085938 288.279296875 c 1
 258.805664062 130.796875 l 1
EndSplineSet
EndChar

StartChar: percent
Encoding: 37 37 8
Width: 910
GlyphClass: 2
Flags: MW
HStem: -5.7002 93.1191<651.114 670.156 651.114 711.879> 255.42 93.1201<186.278 205.32 186.278 246.713> 342.779 93.1211<710.016 729.163> 604.86 93.1201<252.699 264.496>
VStem: 47.1074 102.722 246.788 103.68 572.228 102.722 771.909 103.679
LayerCount: 2
Fore
SplineSet
173.337890625 255.419921875 m 0xdf
 122.35546875 255.419921875 26.2255859375 271.05078125 62.2890625 427.259765625 c 2
 86.2255859375 530.940429688 l 2
 98.2392578125 582.978515625 120.044921875 624.822265625 153.455078125 654.333984375 c 0
 187.002929688 683.967773438 228.926757812 697.98046875 276.470703125 697.98046875 c 0
 349.415039062 697.98046875 420.8984375 666.567382812 389.5859375 530.940429688 c 2
 365.649414062 427.259765625 l 2
 355.553710938 383.53125 320.087890625 255.419921875 173.337890625 255.419921875 c 0xdf
673.880859375 693.1796875 m 1
 777.809570312 693.1796875 l 1
 236.172851562 0.0595703125 l 1
 133.24609375 0.0595703125 l 1
 673.880859375 693.1796875 l 1
263.078125 432.059570312 m 2
 284.1328125 523.259765625 l 2
 291.533203125 555.311523438 291.53515625 577.09375 286.998046875 588.603515625 c 0
 282.88671875 599.03515625 274.020507812 604.860351562 254.971679688 604.860351562 c 0
 235.935546875 604.860351562 224.090820312 599.016601562 214.802734375 588.422851562 c 0
 204.7421875 576.946289062 194.565429688 555.276367188 187.173828125 523.259765625 c 2
 166.119140625 432.059570312 l 2
 158.416015625 398.6953125 158.502929688 376.338867188 163.216796875 364.977539062 c 0
 167.61328125 354.383789062 176.759765625 348.540039062 195.795898438 348.540039062 c 0
 214.844726562 348.540039062 226.400390625 354.365234375 235.328125 364.796875 c 0
 245.083007812 376.193359375 255.368164062 398.6640625 263.078125 432.059570312 c 2
638.172851562 -5.7001953125 m 0
 565.408203125 -5.7001953125 494.958984375 26.8125 527.125 166.139648438 c 2
 550.83984375 268.859375 l 2
 559.559570312 306.629882812 592.866210938 435.900390625 741.084960938 435.900390625 c 0xbf
 814.029296875 435.900390625 885.51171875 404.487304688 854.200195312 268.860351562 c 2
 830.485351562 166.139648438 l 2
 820.34765625 122.227539062 785.584960938 -5.7001953125 638.172851562 -5.7001953125 c 0
727.693359375 169.979492188 m 2
 748.748046875 261.178710938 l 2
 756.306640625 293.918945312 756.270507812 315.83984375 751.770507812 326.88671875 c 0
 747.650390625 336.998046875 738.739257812 342.779296875 719.586914062 342.779296875 c 0
 700.4453125 342.779296875 688.575195312 336.983398438 679.426757812 326.70703125 c 0
 669.620117188 315.692382812 659.338867188 293.88671875 651.788085938 261.178710938 c 2
 630.733398438 169.979492188 l 2
 623.185546875 137.288085938 623.314453125 115.274414062 628.052734375 103.856445312 c 0
 632.448242188 93.2626953125 641.595703125 87.4189453125 660.631835938 87.4189453125 c 0
 679.680664062 87.4189453125 691.236328125 93.244140625 700.1640625 103.67578125 c 0
 709.966796875 115.12890625 720.138671875 137.255859375 727.693359375 169.979492188 c 2
EndSplineSet
EndChar

StartChar: ampersand
Encoding: 38 38 9
Width: 664
GlyphClass: 2
Flags: MW
HStem: -10.499 102.72<189.423 221.437> 0.0605469 103.68<465.554 562.64 529.039 538.703> 604.861 96.96<335.826 356.518>
VStem: 56.707 109.439 116.227 109.44 354.307 108.481
LayerCount: 2
Fore
SplineSet
503.901367188 539.581054688 m 0xac
 488.05859375 470.9609375 441.522460938 421.768554688 342.629882812 363.50390625 c 1
 423.666992188 228.771484375 l 1
 531.287109375 327.686523438 l 1
 592.202148438 260.68359375 l 1
 471.111328125 149.643554688 l 1
 482.014648438 131.37109375 l 2
 497.283203125 108.462890625 509.076171875 103.740234375 529.0390625 103.740234375 c 2
 562.639648438 103.740234375 l 1
 538.703125 0.060546875 l 1
 491.661132812 0.060546875 l 2x6c
 439.446289062 0.060546875 413.575195312 15.767578125 385.791015625 58.900390625 c 2
 379.918945312 68.7646484375 l 1
 330.729492188 29.2431640625 265.650390625 -10.4990234375 177.223632812 -10.4990234375 c 0
 135.026367188 -10.4990234375 99.8818359375 -2.28125 72.5068359375 14.7646484375 c 0
 42.677734375 33.33984375 -8.05859375 80.9716796875 15.3720703125 182.4609375 c 0xb4
 35.7470703125 270.713867188 104.043945312 333.676757812 191.896484375 385.458007812 c 1
 157.770507812 447.232421875 146.196289062 491.314453125 157.561523438 540.541015625 c 0
 179.678710938 636.33984375 270.180664062 701.821289062 368.556640625 701.821289062 c 0
 418.166015625 701.821289062 456.788085938 686.953125 482.200195312 656.661132812 c 0
 507.634765625 626.342773438 514.734375 586.504882812 503.901367188 539.581054688 c 0xac
295.840820312 440.696289062 m 1
 368.610351562 482.478515625 388.1796875 508.22265625 395.641601562 540.541015625 c 0
 400.41796875 561.232421875 397.860351562 576.087890625 389.098632812 587.48046875 c 0
 380.334960938 598.874023438 366.86328125 604.861328125 346.171875 604.861328125 c 0
 325.479492188 604.861328125 309.2421875 598.874023438 295.21875 587.48046875 c 0
 281.092773438 576.00390625 271.828125 561.4453125 267.223632812 541.500976562 c 0
 261.52734375 516.830078125 265.721679688 494.919921875 295.840820312 440.696289062 c 1
237.286132812 307.1953125 m 1
 154.901367188 257.45703125 132.920898438 217.583984375 125.4765625 185.340820312 c 0
 118.991210938 157.248046875 122.810546875 135.6640625 136.423828125 118.321289062 c 0
 149.678710938 101.4375 172.147460938 92.220703125 206.69921875 92.220703125 c 0xb4
 249.62890625 92.220703125 286.754882812 109.295898438 333.365234375 146.774414062 c 1
 237.286132812 307.1953125 l 1
EndSplineSet
EndChar

StartChar: quotesingle
Encoding: 39 39 10
Width: 193
GlyphClass: 2
Flags: MW
HStem: 421.5 269.76<128.999 173.279 66.7197 235.559>
VStem: 52.8682 106.56
LayerCount: 2
Fore
SplineSet
128.999023438 691.259765625 m 1
 235.55859375 691.259765625 l 1
 173.279296875 421.5 l 1
 66.7197265625 421.5 l 1
 128.999023438 691.259765625 l 1
EndSplineSet
EndChar

StartChar: parenleft
Encoding: 40 40 11
Width: 324
GlyphClass: 2
Flags: MW
VStem: 56.709 110.398
LayerCount: 2
Fore
SplineSet
49.2841796875 329.341796875 m 0
 74.67578125 439.325195312 135.322265625 588.907226562 277.981445312 733.530273438 c 2
 283.634765625 739.26171875 l 1
 385.951171875 739.26171875 l 1
 365.7578125 716.857421875 l 2
 314.05078125 659.489257812 203.590820312 519.528320312 159.682617188 329.340820312 c 0
 143.293945312 258.352539062 118.315429688 94.9970703125 186.798828125 -58.111328125 c 2
 196.848632812 -80.5791015625 l 1
 93.3046875 -80.5791015625 l 1
 65.548828125 -25.96875 -0.5361328125 113.54296875 49.2841796875 329.341796875 c 0
EndSplineSet
Substitution2: "'rtla' Right to Left Alternates lookup 0 subtable" parenright
EndChar

StartChar: parenright
Encoding: 41 41 12
Width: 324
GlyphClass: 2
Flags: MW
VStem: 175.749 110.398
LayerCount: 2
Fore
SplineSet
168.323242188 329.337890625 m 0
 184.590820312 399.797851562 209.255859375 561.990234375 141.1796875 716.854492188 c 2
 131.330078125 739.258789062 l 1
 233.646484375 739.258789062 l 1
 257.06640625 694.623046875 330.407226562 553.2109375 278.72265625 329.338867188 c 0
 228.0078125 109.670898438 93.041015625 -31.4921875 45.4267578125 -80.580078125 c 1
 -58.1181640625 -80.580078125 l 1
 -37.693359375 -58.1123046875 l 2
 13.826171875 -1.435546875 124.008789062 137.390625 168.323242188 329.337890625 c 0
EndSplineSet
Substitution2: "'rtla' Right to Left Alternates lookup 0 subtable" parenleft
EndChar

StartChar: asterisk
Encoding: 42 42 13
Width: 419
GlyphClass: 2
Flags: MW
HStem: 390.78 300.479<254.759 265.067 185.388 334.438>
VStem: 178.628 79.6797
LayerCount: 2
Fore
SplineSet
265.067382812 390.780273438 m 1
 185.387695312 390.780273438 l 1
 206.114257812 480.55859375 l 1
 103.606445312 433.817382812 l 1
 84.2275390625 502.969726562 l 1
 177.768554688 543.419921875 l 1
 102.904296875 583.870117188 l 1
 154.141601562 652.924804688 l 1
 235.315429688 607.041015625 l 1
 254.758789062 691.259765625 l 1
 334.438476562 691.259765625 l 1
 314.8203125 606.282226562 l 1
 417.584960938 653.139648438 l 1
 435.500976562 583.703125 l 1
 343.2109375 544.178710938 l 1
 417.952148438 502.865234375 l 1
 366.719726562 433.817382812 l 1
 285.793945312 480.55859375 l 1
 265.067382812 390.780273438 l 1
EndSplineSet
EndChar

StartChar: plus
Encoding: 43 43 14
Width: 514
GlyphClass: 2
Flags: MW
HStem: 226.62 105.6<50.9082 181.088 26.5283 205.468 312.028 442.208 50.9082 287.648>
VStem: 212.228 106.561
LayerCount: 2
Fore
SplineSet
287.6484375 226.620117188 m 1
 251.744140625 71.099609375 l 1
 145.18359375 71.099609375 l 1
 181.087890625 226.620117188 l 1
 26.5283203125 226.620117188 l 1
 50.908203125 332.219726562 l 1
 205.467773438 332.219726562 l 1
 241.372070312 487.740234375 l 1
 347.932617188 487.740234375 l 1
 312.028320312 332.219726562 l 1
 466.587890625 332.219726562 l 1
 442.208007812 226.620117188 l 1
 287.6484375 226.620117188 l 1
EndSplineSet
EndChar

StartChar: comma
Encoding: 44 44 15
Width: 193
GlyphClass: 2
Flags: MW
HStem: -157.1 288.68<-66.8604 106.347>
VStem: 52.8682 106.56
LayerCount: 2
Fore
SplineSet
-0.212890625 131.580078125 m 1
 106.346679688 131.580078125 l 1
 61.87109375 -61.0634765625 l 1
 -66.8603515625 -157.099609375 l 1
 -0.212890625 131.580078125 l 1
EndSplineSet
EndChar

StartChar: hyphen
Encoding: 45 45 16
Width: 430
GlyphClass: 2
Flags: MW
HStem: 293.82 106.56<65.6836 375.163 41.083 399.764>
LayerCount: 2
Fore
SplineSet
65.68359375 400.379882812 m 1
 399.763671875 400.379882812 l 1
 375.163085938 293.8203125 l 1
 41.0830078125 293.8203125 l 1
 65.68359375 400.379882812 l 1
EndSplineSet
EndChar

StartChar: period
Encoding: 46 46 17
Width: 213
GlyphClass: 2
Flags: MW
HStem: 0.0595703 131.521<-0.212891 96.1426 -30.5771 126.507>
VStem: 52.8682 126.72
LayerCount: 2
Fore
SplineSet
-0.212890625 131.580078125 m 1
 126.506835938 131.580078125 l 1
 96.142578125 0.0595703125 l 1
 -30.5771484375 0.0595703125 l 1
 -0.212890625 131.580078125 l 1
EndSplineSet
EndChar

StartChar: slash
Encoding: 47 47 18
Width: 436
GlyphClass: 2
Flags: MW
HStem: -9.54004 21G<-34.998 65.6738 -34.998 -34.998> 673.18 20G<378.495 479.166 479.166 479.166>
LayerCount: 2
Fore
SplineSet
378.495117188 693.1796875 m 1
 479.166015625 693.1796875 l 1
 65.673828125 -9.5400390625 l 1
 -34.998046875 -9.5400390625 l 1
 378.495117188 693.1796875 l 1
EndSplineSet
EndChar

StartChar: zero
Encoding: 48 48 19
Width: 553
GlyphClass: 2
Flags: MW
HStem: -9.54004 106.561<205.262 243.715 205.262 307.559> 594.3 106.56<320.068 358.158>
VStem: 65.3477 116.159 389.828 116.16
LayerCount: 2
Fore
SplineSet
199.526367188 -9.5400390625 m 0
 97.0751953125 -9.5400390625 -9.71484375 36.37109375 38.8623046875 246.779296875 c 2
 85.626953125 449.338867188 l 2
 111.916992188 563.212890625 181.373046875 700.859375 363.53515625 700.859375 c 0
 460.669921875 700.859375 574.8046875 659.577148438 526.267578125 449.338867188 c 2
 479.502929688 246.779296875 l 2
 466.151367188 188.947265625 415.591796875 -9.5400390625 199.526367188 -9.5400390625 c 0
364.89453125 253.5 m 2
 407.448242188 437.8203125 l 2
 420.8828125 496.013671875 420.587890625 536.478515625 409.829101562 559.703125 c 0
 399.370117188 582.278320312 377.381835938 594.299804688 338.93359375 594.299804688 c 0
 301.202148438 594.299804688 273.971679688 582.349609375 253.0234375 559.703125 c 0
 231.540039062 536.478515625 212.561523438 496.013671875 199.126953125 437.8203125 c 2
 156.573242188 253.5 l 2
 143.137695312 195.306640625 143.432617188 154.841796875 154.192382812 131.6171875 c 0
 164.68359375 108.970703125 186.396484375 97.0205078125 224.127929688 97.0205078125 c 0
 263.302734375 97.0205078125 290.919921875 109.107421875 311.389648438 131.522460938 c 0
 332.610351562 154.758789062 351.454101562 195.286132812 364.89453125 253.5 c 2
EndSplineSet
EndChar

StartChar: one
Encoding: 49 49 20
Width: 372
GlyphClass: 2
Flags: MW
HStem: 0.0595703 21G<107.662 223.822 107.662 107.662> 671.26 20G<277.43 383.398 383.398 383.398>
VStem: 191.107 116.16
LayerCount: 2
Fore
SplineSet
74.4599609375 467.500976562 m 1
 103.78125 594.50390625 l 1
 277.4296875 691.259765625 l 1
 383.3984375 691.259765625 l 1
 223.822265625 0.0595703125 l 1
 107.662109375 0.0595703125 l 1
 235.969726562 555.8203125 l 1
 74.4599609375 467.500976562 l 1
EndSplineSet
Substitution2: "'sups' Superscript lookup 1 subtable" uni00B9
EndChar

StartChar: two
Encoding: 50 50 21
Width: 534
GlyphClass: 2
Flags: MW
HStem: 0.0595703 105.601<162.929 411.022> 596.22 104.641<319.428 342.069>
VStem: 59.5879 113.28 372.547 116.161
LayerCount: 2
Fore
SplineSet
351.0546875 700.860351562 m 0
 486.869140625 700.860351562 548.454101562 620.2890625 523.171875 510.780273438 c 2
 519.84765625 496.379882812 l 2
 504.155273438 428.411132812 464.344726562 377.03515625 384.612304688 305.25 c 2
 162.928710938 105.66015625 l 1
 435.40234375 105.66015625 l 1
 411.022460938 0.0595703125 l 1
 -22.8974609375 0.0595703125 l 1
 -2.1376953125 89.98046875 l 1
 311.5625 371.776367188 l 2
 372.709960938 424.514648438 394.680664062 457.373046875 403.908203125 497.33984375 c 2
 406.567382812 508.860351562 l 2
 413.227539062 537.708007812 409.100585938 558.048828125 395.556640625 572.900390625 c 0
 381.8984375 587.877929688 359.162109375 596.219726562 324.9765625 596.219726562 c 0
 271.775390625 596.219726562 222.23046875 575.313476562 206.001953125 505.01953125 c 2
 200.239257812 480.059570312 l 1
 86.958984375 480.059570312 l 1
 94.2734375 511.740234375 l 2
 107.453125 568.829101562 137.817382812 615.958007812 184.9375 650.259765625 c 0
 231.879882812 684.431640625 287.801757812 700.860351562 351.0546875 700.860351562 c 0
EndSplineSet
Substitution2: "'sups' Superscript lookup 1 subtable" uni00B2
EndChar

StartChar: three
Encoding: 51 51 22
Width: 553
GlyphClass: 2
Flags: MW
HStem: -9.54004 104.641<167.278 228.572> 304.38 105.601<231.102 260.481 206.722 283.901> 596.22 104.641<327.209 379.286>
VStem: 60.5488 113.28 68.2285 111.36 378.309 115.199 389.829 116.159
LayerCount: 2
Fore
SplineSet
419.2890625 366.165039062 m 1xec
 451.68359375 347.0078125 492.561523438 303.340820312 470.637695312 208.379882812 c 2
 466.6484375 191.099609375 l 2
 452.59765625 130.2421875 420.672851562 80.23828125 371.15625 43.974609375 c 0
 321.780273438 7.814453125 262.41796875 -9.5400390625 194.7265625 -9.5400390625 c 0
 127.956054688 -9.5400390625 77.4873046875 5.8232421875 45.4482421875 38.376953125 c 0
 13.2158203125 71.1259765625 4.255859375 117.668945312 17.44140625 174.78125 c 2
 22.982421875 198.78125 l 1
 136.262695312 198.78125 l 1
 130.943359375 175.741210938 l 2
 126.288085938 155.576171875 114.7109375 95.1005859375 219.845703125 95.1005859375 c 0
 271.069335938 95.1005859375 332.376953125 112.646484375 350.489257812 191.100585938 c 2
 354.700195312 209.340820312 l 2xf2
 363.001953125 245.299804688 366.005859375 304.379882812 260.481445312 304.379882812 c 2
 206.721679688 304.379882812 l 1
 231.1015625 409.98046875 l 1
 283.901367188 409.98046875 l 2
 335.641601562 409.98046875 393.450195312 427.083984375 409.891601562 498.299804688 c 2
 412.994140625 511.740234375 l 2
 419.341796875 539.235351562 425.913085938 596.219726562 332.658203125 596.219726562 c 0
 243.202148438 596.219726562 221.908203125 544.803710938 214.717773438 513.66015625 c 2
 209.176757812 489.66015625 l 1
 97.81640625 489.66015625 l 1
 103.579101562 514.620117188 l 2
 116.731445312 571.58984375 146.419921875 618.286132812 192.49609375 651.71875 c 0
 238.471679688 685.077148438 294.72265625 700.860351562 359.6953125 700.860351562 c 0
 424.0078125 700.860351562 472.657226562 685.4140625 503.373046875 652.778320312 c 0
 534.2265625 619.99609375 542.538085938 573.875 529.5234375 517.5 c 2
 526.198242188 503.099609375 l 2
 516.381835938 460.577148438 489.672851562 404.427734375 419.2890625 366.165039062 c 1xec
EndSplineSet
Substitution2: "'sups' Superscript lookup 1 subtable" uni00B3
EndChar

StartChar: four
Encoding: 52 52 23
Width: 568
GlyphClass: 2
Flags: MW
HStem: 0.0595703 21G<257.423 373.583 257.423 257.423> 122.94 106.56<144.337 285.792 426.554 481.632 144.337 401.952> 671.26 20G<355.206 476.542 476.542 476.542>
VStem: 340.868 116.16
LayerCount: 2
Fore
SplineSet
426.553710938 229.5 m 1
 506.233398438 229.5 l 1
 481.631835938 122.940429688 l 1
 401.952148438 122.940429688 l 1
 373.583007812 0.0595703125 l 1
 257.422851562 0.0595703125 l 1
 285.791992188 122.940429688 l 1
 -7.0087890625 122.940429688 l 1
 15.037109375 218.432617188 l 1
 355.206054688 691.259765625 l 1
 476.541992188 691.259765625 l 1
 144.336914062 229.5 l 1
 310.393554688 229.5 l 1
 350.065429688 401.33984375 l 1
 466.225585938 401.33984375 l 1
 426.553710938 229.5 l 1
EndSplineSet
EndChar

StartChar: five
Encoding: 53 53 24
Width: 540
GlyphClass: 2
Flags: MW
HStem: -9.54004 105.6<197.801 222.591> 361.02 104.641<291.461 299.585> 584.7 106.56<233.996 526.796 233.996 233.996>
VStem: 65.3467 112.32 75.9072 106.56 378.307 115.2
LayerCount: 2
Fore
SplineSet
199.061523438 433.381835938 m 1xec
 220.752929688 445.775390625 264.08984375 465.66015625 318.833007812 465.66015625 c 0
 380.00390625 465.66015625 425.443359375 446.85546875 452.015625 408.194335938 c 0
 478.565429688 369.563476562 482.923828125 315.662109375 467.46484375 248.700195312 c 2
 457.934570312 207.419921875 l 2
 442.54296875 140.750976562 411.192382812 86.71484375 363.083984375 47.9140625 c 0
 314.983398438 9.1181640625 256.21484375 -9.5400390625 188.966796875 -9.5400390625 c 0
 124.534179688 -9.5400390625 76.3046875 6.80859375 46.939453125 41.326171875 c 0
 17.9091796875 75.4482421875 9.6162109375 120.103515625 21.7958984375 172.860351562 c 2
 26.8935546875 194.940429688 l 1
 139.213867188 194.940429688 l 1
 134.78125 175.740234375 l 2xf4
 129.4140625 152.49609375 133.0703125 134.352539062 145.91796875 119.067382812 c 0
 158.170898438 104.489257812 180.337890625 96.0595703125 215.264648438 96.0595703125 c 0
 267.5 96.0595703125 321.54296875 115.631835938 343.62109375 211.259765625 c 2
 351.377929688 244.860351562 l 2
 375.169921875 347.9140625 319.854492188 361.01953125 279.315429688 361.01953125 c 0
 247.40625 361.01953125 205.115234375 350.654296875 174.896484375 304.526367188 c 2
 169.140625 295.740234375 l 1
 60.7255859375 295.740234375 l 1
 152.038085938 691.259765625 l 1
 551.397460938 691.259765625 l 1
 526.795898438 584.700195312 l 1
 233.99609375 584.700195312 l 1
 199.061523438 433.381835938 l 1xec
EndSplineSet
EndChar

StartChar: six
Encoding: 54 54 25
Width: 557
GlyphClass: 2
Flags: MW
HStem: -9.54004 104.64<207.725 235.09> 324.541 105.599<259.355 385.267> 671.26 20G<369.479 498.262 498.262 498.262>
VStem: 59.5869 116.159 399.426 115.201
LayerCount: 2
Fore
SplineSet
325.993164062 430.139648438 m 0
 444.540039062 430.139648438 510.630859375 344.192382812 483.265625 225.66015625 c 2
 477.946289062 202.620117188 l 2
 463.18359375 138.673828125 430.291992188 86.0625 379.389648438 47.52734375 c 0
 328.670898438 9.1318359375 268.733398438 -9.5400390625 201.446289062 -9.5400390625 c 0
 133.5859375 -9.5400390625 82.0537109375 8.9189453125 49.2646484375 47.0439453125 c 0
 16.4619140625 85.185546875 7.6767578125 136.654296875 22.01953125 198.780273438 c 2
 26.8955078125 219.900390625 l 2
 42.03515625 285.473632812 75.984375 337.71875 139.100585938 413.748046875 c 2
 369.479492188 691.259765625 l 1
 498.26171875 691.259765625 l 1
 275.416015625 425.260742188 l 1
 291.422851562 428.544921875 308.275390625 430.139648438 325.993164062 430.139648438 c 0
362.081054688 199.741210938 m 2
 367.178710938 221.821289062 l 2
 374.729492188 254.529296875 370.291992188 278.6015625 354.989257812 296.712890625 c 0
 339.708984375 314.799804688 314.763671875 324.541015625 277.612304688 324.541015625 c 0
 241.09765625 324.541015625 212.37890625 314.958984375 189.504882812 297.258789062 c 0
 166.739257812 279.64453125 151.182617188 255.102539062 143.276367188 220.860351562 c 2
 138.178710938 198.780273438 l 2
 130.462890625 165.358398438 134.890625 140.984375 150.146484375 122.927734375 c 0
 165.506835938 104.747070312 189.846679688 95.099609375 225.602539062 95.099609375 c 0
 262.010742188 95.099609375 291.111328125 104.9140625 314.8828125 123.333007812 c 0
 338.630859375 141.734375 354.366210938 166.32421875 362.081054688 199.741210938 c 2
EndSplineSet
EndChar

StartChar: seven
Encoding: 55 55 26
Width: 495
GlyphClass: 2
Flags: MW
HStem: 0.0595703 21G<11.8359 131.546 11.8359 11.8359> 584.7 106.56<118.438 399.291 93.8369 547.559>
LayerCount: 2
Fore
SplineSet
547.55859375 691.259765625 m 1
 525.595703125 596.12890625 l 1
 131.545898438 0.0595703125 l 1
 11.8359375 0.0595703125 l 1
 399.291015625 584.700195312 l 1
 93.8369140625 584.700195312 l 1
 118.438476562 691.259765625 l 1
 547.55859375 691.259765625 l 1
EndSplineSet
EndChar

StartChar: eight
Encoding: 56 56 27
Width: 572
GlyphClass: 2
Flags: MW
HStem: -9.54004 104.639<200.594 242.719> 309.179 104.641<290.119 301.697> 596.219 104.641<332.535 365.77>
VStem: 65.3486 115.199 79.749 115.2 395.588 115.2 409.028 115.199
LayerCount: 2
Fore
SplineSet
440.000976562 363.467773438 m 1xec
 466.6953125 344.8125 509.884765625 299.373046875 488.876953125 208.379882812 c 2
 485.552734375 193.98046875 l 2
 471.4609375 132.944335938 438.47265625 82.46484375 387.243164062 45.3525390625 c 0
 336.235351562 8.400390625 276.311523438 -9.5400390625 209.126953125 -9.5400390625 c 0
 141.365234375 -9.5400390625 89.515625 8.19140625 55.7705078125 44.8671875 c 0
 21.892578125 81.685546875 12.369140625 132.01953125 26.4521484375 193.01953125 c 2
 29.7763671875 207.418945312 l 2xf2
 35.7783203125 233.416015625 57.671875 315.001953125 150.989257812 363.478515625 c 1
 131.274414062 378.900390625 93.3212890625 420.288085938 111.99609375 501.1796875 c 2
 114.877929688 513.66015625 l 2
 139.041992188 618.326171875 236.384765625 700.859375 373.135742188 700.859375 c 0
 508.237304688 700.859375 570.603515625 620.590820312 545.916992188 513.66015625 c 2
 543.03515625 501.1796875 l 2
 535.227539062 467.361328125 519.568359375 436.622070312 496.146484375 409.872070312 c 0
 479.786132812 391.1875 460.94921875 375.646484375 440.000976562 363.467773438 c 1xec
427.391601562 499.258789062 m 2xec
 430.716796875 513.659179688 l 2
 436.873046875 540.325195312 432.6796875 559.331054688 418.977539062 573.689453125 c 0
 405.163085938 588.166015625 382.561523438 596.21875 348.978515625 596.21875 c 0
 316.090820312 596.21875 290.099609375 588.211914062 269.534179688 573.689453125 c 0
 249.203125 559.331054688 236.234375 540.325195312 230.078125 513.659179688 c 2
 226.752929688 499.258789062 l 2
 220.415039062 471.803710938 224.42578125 452.015625 237.794921875 437.063476562 c 0
 251.155273438 422.120117188 273.370117188 413.819335938 306.868164062 413.819335938 c 0
 341.063476562 413.819335938 367.439453125 422.169921875 387.633789062 437.063476562 c 0
 407.90625 452.015625 421.052734375 471.802734375 427.391601562 499.258789062 c 2xec
142.09375 194.939453125 m 2xf2
 125.864257812 124.641601562 167.904296875 95.0986328125 233.284179688 95.0986328125 c 0
 271.260742188 95.0986328125 301.091796875 104.51953125 324.4375 121.712890625 c 0
 347.630859375 138.79296875 363.01953125 162.21484375 370.57421875 194.939453125 c 2
 374.12109375 210.298828125 l 2
 381.509765625 242.306640625 376.930664062 265.428710938 361.573242188 282.565429688 c 0
 346.166015625 299.7578125 320.685546875 309.178710938 282.708984375 309.178710938 c 0
 244.732421875 309.178710938 214.899414062 299.7578125 191.5546875 282.565429688 c 0
 168.28515625 265.428710938 153.029296875 242.306640625 145.640625 210.298828125 c 2
 142.09375 194.939453125 l 2xf2
EndSplineSet
EndChar

StartChar: nine
Encoding: 57 57 28
Width: 557
GlyphClass: 2
Flags: MW
HStem: 0.0595703 21G<69.5986 197.396 69.5986 69.5986> 261.18 105.601<181.634 307.541> 596.22 104.641<331.812 359.526>
VStem: 59.5889 115.2 399.43 115.198
LayerCount: 2
Fore
SplineSet
240.907226562 261.1796875 m 0
 122.360351562 261.1796875 56.2705078125 347.127929688 83.6357421875 465.66015625 c 2
 88.955078125 488.700195312 l 2
 103.71875 552.646484375 136.609375 605.2578125 187.51171875 643.79296875 c 0
 238.23046875 682.188476562 298.168945312 700.860351562 365.455078125 700.860351562 c 0
 433.31640625 700.860351562 484.84765625 682.401367188 517.63671875 644.276367188 c 0
 550.440429688 606.133789062 559.223632812 554.666015625 544.880859375 492.540039062 c 2
 540.004882812 471.419921875 l 2
 525.564453125 408.87109375 494.609375 356.556640625 428.809570312 277.6328125 c 2
 197.395507812 0.0595703125 l 1
 69.5986328125 0.0595703125 l 1
 292.20703125 265.776367188 l 1
 276.373046875 262.649414062 259.274414062 261.1796875 240.907226562 261.1796875 c 0
424.584960938 470.459960938 m 2
 429.682617188 492.540039062 l 2
 437.3984375 525.961914062 432.970703125 550.3359375 417.71484375 568.392578125 c 0
 402.39453125 586.525390625 377.752929688 596.219726562 341.298828125 596.219726562 c 0
 304.890625 596.219726562 275.791015625 586.40625 252.018554688 567.986328125 c 0
 228.26953125 549.584960938 212.53515625 524.99609375 204.8203125 491.580078125 c 2
 199.72265625 469.5 l 2
 192.18359375 436.845703125 196.737304688 412.809570312 212.333007812 394.67578125 c 0
 227.989257812 376.471679688 252.83984375 366.780273438 289.287109375 366.780273438 c 0
 325.794921875 366.780273438 354.724609375 376.358398438 377.96875 394.1328125 c 0
 401.033203125 411.76953125 416.69140625 436.26953125 424.584960938 470.459960938 c 2
EndSplineSet
EndChar

StartChar: colon
Encoding: 58 58 29
Width: 213
GlyphClass: 2
Flags: MW
HStem: 47.0996 131.521<10.6465 107.003 -19.7168 137.366> 277.5 131.52<63.8389 160.195 33.4756 190.559>
VStem: 52.8682 126.72
LayerCount: 2
Fore
SplineSet
63.8388671875 409.01953125 m 1
 190.55859375 409.01953125 l 1
 160.1953125 277.5 l 1
 33.4755859375 277.5 l 1
 63.8388671875 409.01953125 l 1
10.646484375 178.620117188 m 1
 137.366210938 178.620117188 l 1
 107.002929688 47.099609375 l 1
 -19.716796875 47.099609375 l 1
 10.646484375 178.620117188 l 1
EndSplineSet
EndChar

StartChar: semicolon
Encoding: 59 59 30
Width: 213
GlyphClass: 2
Flags: MW
HStem: -156.836 21G<-47.5996 -47.5996> 324.54 131.52<74.6992 171.055 44.335 201.419>
VStem: 52.8682 126.72 72.0674 107.521
LayerCount: 2
Fore
SplineSet
74.69921875 456.059570312 m 1xe0
 201.418945312 456.059570312 l 1
 171.0546875 324.540039062 l 1
 44.3349609375 324.540039062 l 1
 74.69921875 456.059570312 l 1xe0
18.986328125 131.580078125 m 1xd0
 126.506835938 131.580078125 l 1
 82.01953125 -61.1162109375 l 1
 -47.599609375 -156.8359375 l 1
 18.986328125 131.580078125 l 1xd0
EndSplineSet
EndChar

StartChar: less
Encoding: 60 60 31
Width: 514
GlyphClass: 2
Flags: W
LayerCount: 2
Fore
SplineSet
28.4990234375 235.157226562 m 1
 48.9423828125 323.705078125 l 1
 502.24609375 490.831054688 l 1
 476.432617188 379.020507812 l 1
 198.157226562 279.361328125 l 1
 430.21484375 178.828125 l 1
 404.396484375 67 l 1
 28.4990234375 235.157226562 l 1
EndSplineSet
Substitution2: "'rtla' Right to Left Alternates lookup 0 subtable" greater
EndChar

StartChar: equal
Encoding: 61 61 32
Width: 514
GlyphClass: 2
Flags: MW
HStem: 145.98 105.6<32.291 422.631 7.91113 447.011> 306.3 106.561<69.5254 459.644 44.9238 484.245>
LayerCount: 2
Fore
SplineSet
69.525390625 412.860351562 m 1
 484.245117188 412.860351562 l 1
 459.643554688 306.299804688 l 1
 44.923828125 306.299804688 l 1
 69.525390625 412.860351562 l 1
32.291015625 251.580078125 m 1
 447.010742188 251.580078125 l 1
 422.630859375 145.98046875 l 1
 7.9111328125 145.98046875 l 1
 32.291015625 251.580078125 l 1
EndSplineSet
EndChar

StartChar: greater
Encoding: 62 62 33
Width: 514
GlyphClass: 2
Flags: W
LayerCount: 2
Fore
SplineSet
61.712890625 379.020507812 m 1
 87.5263671875 490.831054688 l 1
 463.662109375 323.705078125 l 1
 443.21875 235.157226562 l 1
 -10.3232421875 67 l 1
 15.4951171875 178.828125 l 1
 293.97265625 279.361328125 l 1
 61.712890625 379.020507812 l 1
EndSplineSet
Substitution2: "'rtla' Right to Left Alternates lookup 0 subtable" less
EndChar

StartChar: question
Encoding: 63 63 34
Width: 491
GlyphClass: 2
Flags: MW
HStem: 0.0595703 127.68<130.42 226.702 100.942 256.18> 595.26 105.601<295.831 348.572>
VStem: 39.1045 112.644 184.388 125.76 345.668 115.2
LayerCount: 2
Fore
SplineSet
302.67578125 595.259765625 m 0
 223.033203125 595.259765625 196.23828125 554.2109375 185.546875 507.900390625 c 2
 182.22265625 493.5 l 1
 69.5791015625 493.5 l 1
 79.560546875 532.942382812 96.7265625 600.76953125 163.274414062 651.008789062 c 0
 208.147460938 684.884765625 263.645507812 700.860351562 328.015625 700.860351562 c 0
 391.665039062 700.860351562 440.000976562 685.751953125 470.859375 653.837890625 c 0
 501.813476562 621.825195312 510.6875 577.291015625 498.212890625 523.259765625 c 0
 485.272460938 467.206054688 456.560546875 420.623046875 402.768554688 376.919921875 c 2
 322.220703125 311.479492188 l 2
 293.756835938 288.35546875 284.134765625 273.774414062 276.12890625 239.099609375 c 2
 261.501953125 175.740234375 l 1
 148.221679688 175.740234375 l 1
 163.735351562 242.940429688 l 2
 178.224609375 305.698242188 197.905273438 336.69140625 248.926757812 377.048828125 c 0
 249.024414062 377.126953125 317.239257812 431.76953125 317.239257812 431.76953125 c 2
 317.353515625 431.861328125 317.46875 431.952148438 317.5859375 432.040039062 c 0
 359.846679688 464.424804688 374.484375 486.31640625 382.348632812 520.379882812 c 0
 387.705078125 543.583007812 394.467773438 595.259765625 302.67578125 595.259765625 c 0
130.419921875 127.739257812 m 1
 256.1796875 127.739257812 l 1
 226.702148438 0.0595703125 l 1
 100.942382812 0.0595703125 l 1
 130.419921875 127.739257812 l 1
EndSplineSet
EndChar

StartChar: at
Encoding: 64 64 35
Width: 851
GlyphClass: 2
Flags: MW
HStem: -124.74 100.801<283.258 383.738> 53.8242 93.1182<589.875 598.02> 414.785 95.0391<429.388 453.258> 593.341 100.803<400.169 544.802 398.478 568.142>
VStem: 56.7109 108.479 255.431 107.521 494.472 106.559 699.911 108.479
LayerCount: 2
Fore
SplineSet
139.369140625 249.661132812 m 2
 100.032226562 79.275390625 180.430664062 -23.939453125 343.083007812 -23.939453125 c 0
 447.168945312 -23.939453125 507.154296875 3.7294921875 562.764648438 30.50390625 c 1
 584.432617188 -57.5546875 l 1
 521.573242188 -89.7958984375 447.666015625 -124.740234375 319.809570312 -124.740234375 c 0
 246.706054688 -124.740234375 185.041015625 -109.21484375 135.52734375 -77.8310546875 c 0
 86.1005859375 -46.501953125 51.830078125 -2.146484375 33.2529296875 54.494140625 c 0
 14.6357421875 111.26171875 14.0087890625 176.537109375 30.8916015625 249.6640625 c 2
 47.7353515625 322.624023438 l 2
 99.216796875 545.612304688 288.087890625 694.143554688 508.8671875 694.143554688 c 0
 580.736328125 694.143554688 642.049804688 678.59375 692.135742188 647.268554688 c 0
 781.557617188 591.342773438 836.629882812 483.81640625 800.080078125 325.50390625 c 2
 783.458007812 253.50390625 l 2
 768.8125 190.0703125 743.1328125 139.96484375 704.325195312 105.237304688 c 0
 666.16015625 71.0859375 621.881835938 53.82421875 574.158203125 53.82421875 c 0
 542.802734375 53.82421875 495.094726562 61.7373046875 472.962890625 105.89453125 c 1
 439.440429688 70.93359375 393.717773438 53.82421875 339.91796875 53.82421875 c 0
 288.963867188 53.82421875 252.0546875 70.0244140625 233.563476562 104.059570312 c 0
 215.510742188 137.28515625 214.16796875 182.772460938 227.172851562 239.103515625 c 2
 246.676757812 323.583984375 l 2
 264.521484375 400.876953125 312.5234375 509.82421875 441.353515625 509.82421875 c 0
 465.708007812 509.82421875 498.741210938 505.4453125 523.926757812 480.772460938 c 1
 528.416992188 500.22265625 l 1
 633.056640625 500.22265625 l 1
 565.680664062 208.3828125 l 2
 560.381835938 185.432617188 562.135742188 170.37109375 568.03125 161.217773438 c 0
 574.350585938 151.407226562 583.134765625 146.942382812 596.616210938 146.942382812 c 0
 618.340820312 146.942382812 652.077148438 154.30859375 674.534179688 251.58203125 c 2
 691.37890625 324.541992188 l 2
 729.616210938 490.168945312 650.690429688 593.340820312 485.59375 593.340820312 c 0
 314.745117188 593.340820312 193.8046875 485.447265625 156.435546875 323.581054688 c 2
 139.369140625 249.661132812 l 2
380.100585938 148.864257812 m 0
 403.763671875 148.864257812 446.567382812 154.005859375 466.435546875 240.063476562 c 2
 485.939453125 324.544921875 l 2
 493.208984375 356.033203125 492.094726562 378.629882812 484.865234375 393.428710938 c 0
 478.04296875 407.395507812 465.022460938 414.78515625 441.493164062 414.78515625 c 0
 417.282226562 414.78515625 374.006835938 409.38671875 353.975585938 322.625 c 2
 335.801757812 243.904296875 l 2
 328.043945312 210.301757812 328.611328125 186.134765625 335.245117188 170.709960938 c 0
 341.2734375 156.6953125 354.440429688 148.864257812 380.100585938 148.864257812 c 0
EndSplineSet
EndChar

StartChar: A
Encoding: 65 65 36
Width: 667
GlyphClass: 2
Flags: MW
HStem: 0.0595703 21G<-78.1143 -78.1143 -78.1143 44.4775 469.466 469.466 469.466 592.988> 149.82 102.72<203.544 425.961 203.544 443.561 138.573 425.961> 671.26 20G<369.963 463.062 463.062 463.062>
LayerCount: 2
Fore
SplineSet
-78.1142578125 0.0595703125 m 1
 369.962890625 691.259765625 l 1
 463.061523438 691.259765625 l 1
 592.98828125 0.0595703125 l 1
 469.465820312 0.0595703125 l 1
 443.560546875 149.8203125 l 1
 138.573242188 149.8203125 l 1
 44.4775390625 0.0595703125 l 1
 -78.1142578125 0.0595703125 l 1
203.543945312 252.540039062 m 1
 425.9609375 252.540039062 l 1
 378.938476562 530.560546875 l 1
 203.543945312 252.540039062 l 1
EndSplineSet
EndChar

StartChar: B
Encoding: 66 66 37
Width: 672
GlyphClass: 2
Flags: MW
HStem: 0.0595703 105.601<133.001 303.503> 300.54 105.6<202.373 369.032 177.992 391.492> 585.661 105.599<243.819 434.858 243.819 243.819>
VStem: 75.9082 116.158 496.387 115.201 506.946 116.16
LayerCount: 2
Fore
SplineSet
532.372070312 357.119140625 m 1xf8
 570.861328125 335 606.607421875 290.03515625 585.540039062 198.78125 c 0xf4
 574.529296875 151.091796875 530.2265625 0.0595703125 303.502929688 0.0595703125 c 2
 -7.537109375 0.0595703125 l 1
 152.0390625 691.259765625 l 1
 457.318359375 691.259765625 l 2
 529.63671875 691.259765625 583.276367188 675.920898438 616.056640625 642.89453125 c 0
 649.08203125 609.619140625 657.545898438 560.568359375 643.392578125 499.259765625 c 0
 627.962890625 432.428710938 584.80078125 384.104492188 532.372070312 357.119140625 c 1xf8
527.3046875 495.420898438 m 0xf8
 537.565429688 539.866210938 531.810546875 585.661132812 434.858398438 585.661132812 c 2
 243.819335938 585.661132812 l 1
 202.373046875 406.139648438 l 1
 391.4921875 406.139648438 l 2
 492.225585938 406.139648438 517.52734375 453.072265625 527.3046875 495.420898438 c 0xf8
329.80078125 105.66015625 m 2
 425.94921875 105.66015625 458.032226562 149.630859375 470.708984375 204.540039062 c 0xf4
 480.09765625 245.206054688 479.896484375 300.540039062 369.032226562 300.540039062 c 2
 177.9921875 300.540039062 l 1
 133.000976562 105.66015625 l 1
 329.80078125 105.66015625 l 2
EndSplineSet
EndChar

StartChar: C
Encoding: 67 67 38
Width: 680
GlyphClass: 2
Flags: MW
HStem: -8.58008 107.521<239.486 312.844> 593.34 107.521<391.671 438.241>
VStem: 65.3457 116.161 515.587 116.16
LayerCount: 2
Fore
SplineSet
298.489257812 98.9404296875 m 0
 372.502929688 98.9404296875 460.046875 120.930664062 482.674804688 218.940429688 c 2
 486.884765625 237.1796875 l 1
 602.084960938 237.1796875 l 1
 597.653320312 217.98046875 l 2
 581.475585938 147.908203125 543.384765625 91.10546875 484.081054688 50.7685546875 c 0
 425.138671875 10.67578125 353.939453125 -8.580078125 271.748046875 -8.580078125 c 0
 180.799804688 -8.580078125 114.046875 16.8212890625 74.4853515625 69.1474609375 c 0
 34.75 121.704101562 27.771484375 198.749023438 50.607421875 297.66015625 c 2
 72.9921875 394.620117188 l 2
 95.8310546875 493.548828125 138.564453125 570.6171875 202.90234375 623.166992188 c 0
 266.952148438 675.48046875 345.888671875 700.860351562 437.454101562 700.860351562 c 0
 519.62109375 700.860351562 581.805664062 681.78515625 622.008789062 641.999023438 c 0
 662.469726562 601.958007812 674.180664062 545.299804688 658.010742188 475.259765625 c 2
 653.578125 456.059570312 l 1
 537.41796875 456.059570312 l 1
 541.62890625 474.299804688 l 2
 550.724609375 513.698242188 544.09375 541.698242188 522.783203125 561.787109375 c 0
 501.217773438 582.1171875 464.811523438 593.33984375 411.670898438 593.33984375 c 0
 349.5234375 593.33984375 302.354492188 576.572265625 267.350585938 545.3671875 c 0
 232.256835938 514.083984375 204.919921875 462.9140625 188.044921875 389.8203125 c 2
 166.546875 296.700195312 l 2
 134.294921875 157.002929688 180.482421875 98.9404296875 298.489257812 98.9404296875 c 0
EndSplineSet
EndChar

StartChar: D
Encoding: 68 68 39
Width: 675
GlyphClass: 2
Flags: MW
HStem: 0.0595703 106.56<133.224 249.742> 584.699 106.561<243.597 386.637 243.597 243.597>
VStem: 75.9082 116.159 509.828 116.16
LayerCount: 2
Fore
SplineSet
632.526367188 389.819335938 m 2
 612.357421875 302.458984375 l 2
 589.80859375 204.791015625 547.434570312 128.661132812 483.55078125 76.759765625 c 0
 419.939453125 25.080078125 341.262695312 0.0595703125 249.7421875 0.0595703125 c 2
 -7.537109375 0.0595703125 l 1
 152.0390625 691.259765625 l 1
 411.23828125 691.259765625 l 2
 502.12109375 691.259765625 568.80078125 666.397460938 608.302734375 615.0390625 c 0
 647.9921875 563.436523438 655.069335938 487.462890625 632.526367188 389.819335938 c 2
515.2578125 385.01953125 m 2
 549.211914062 532.08984375 497.74609375 584.69921875 386.63671875 584.69921875 c 2
 243.596679688 584.69921875 l 1
 133.223632812 106.619140625 l 1
 276.263671875 106.619140625 l 2
 390.477539062 106.619140625 463.490234375 160.787109375 495.75390625 300.5390625 c 2
 515.2578125 385.01953125 l 2
EndSplineSet
EndChar

StartChar: E
Encoding: 69 69 40
Width: 600
GlyphClass: 2
Flags: MW
HStem: 0.0595703 106.561<133.224 483.982> 297.66 106.56<201.93 498.93 177.329 523.53> 584.7 106.56<243.597 618.957 243.597 243.597>
VStem: 75.9082 116.159
LayerCount: 2
Fore
SplineSet
133.223632812 106.620117188 m 1
 508.583984375 106.620117188 l 1
 483.982421875 0.0595703125 l 1
 -7.537109375 0.0595703125 l 1
 152.0390625 691.259765625 l 1
 643.55859375 691.259765625 l 1
 618.95703125 584.700195312 l 1
 243.596679688 584.700195312 l 1
 201.9296875 404.219726562 l 1
 523.530273438 404.219726562 l 1
 498.9296875 297.66015625 l 1
 177.329101562 297.66015625 l 1
 133.223632812 106.620117188 l 1
EndSplineSet
EndChar

StartChar: F
Encoding: 70 70 41
Width: 593
GlyphClass: 2
Flags: MW
HStem: 0.0595703 21G<-7.53711 108.622 -7.53711 -7.53711> 294.78 106.56<176.664 523.825 201.265 499.225> 584.7 106.56<243.597 618.957 243.597 243.597>
VStem: 75.9082 116.159
LayerCount: 2
Fore
SplineSet
176.6640625 294.780273438 m 1
 108.622070312 0.0595703125 l 1
 -7.537109375 0.0595703125 l 1
 152.0390625 691.259765625 l 1
 643.55859375 691.259765625 l 1
 618.95703125 584.700195312 l 1
 243.596679688 584.700195312 l 1
 201.264648438 401.33984375 l 1
 523.825195312 401.33984375 l 1
 499.224609375 294.780273438 l 1
 176.6640625 294.780273438 l 1
EndSplineSet
EndChar

StartChar: G
Encoding: 71 71 42
Width: 680
GlyphClass: 2
Flags: MW
HStem: -8.58008 107.521<239.487 314.258> 271.74 102.72<336.18 495.825 312.465 634.74> 593.34 107.52<390.714 437.874>
VStem: 65.3477 116.16 516.548 115.2
LayerCount: 2
Fore
SplineSet
298.490234375 98.9404296875 m 0
 421.28125 98.9404296875 470.758789062 163.166992188 490.0625 246.780273438 c 2
 495.825195312 271.740234375 l 1
 312.46484375 271.740234375 l 1
 336.1796875 374.459960938 l 1
 634.740234375 374.459960938 l 1
 606.592773438 252.540039062 l 2
 587.352539062 169.201171875 548.096679688 103.338867188 487.854492188 58.046875 c 0
 428.12109375 13.1376953125 355.807617188 -8.580078125 272.708007812 -8.580078125 c 0
 181.146484375 -8.580078125 114.063476562 16.798828125 74.4853515625 69.1474609375 c 0
 34.75 121.704101562 27.7734375 198.748046875 50.6083984375 297.659179688 c 2
 72.994140625 394.619140625 l 2
 95.8291015625 493.530273438 138.379882812 570.575195312 202.3828125 623.131835938 c 0
 266.1328125 675.48046875 344.93359375 700.859375 436.495117188 700.859375 c 0
 518.091796875 700.859375 580.0625 681.407226562 620.393554688 640.993164062 c 0
 660.866210938 600.434570312 673.0390625 544.508789062 657.272460938 476.21875 c 2
 652.840820312 457.01953125 l 1
 537.640625 457.01953125 l 1
 541.850585938 475.258789062 l 2
 550.440429688 512.46484375 543.751953125 539.978515625 522.005859375 560.899414062 c 0
 500.203125 581.876953125 464.076171875 593.33984375 411.671875 593.33984375 c 0
 349.524414062 593.33984375 302.35546875 576.572265625 267.3515625 545.3671875 c 0
 232.2578125 514.083984375 204.920898438 462.9140625 188.045898438 389.8203125 c 2
 166.547851562 296.700195312 l 2
 134.295898438 157.002929688 180.483398438 98.9404296875 298.490234375 98.9404296875 c 0
EndSplineSet
EndChar

StartChar: H
Encoding: 72 72 43
Width: 685
GlyphClass: 2
Flags: MW
HStem: 0.0595703 21G<-7.53711 108.622 -7.53711 -7.53711 425.423 540.622 425.423 425.423> 299.58 105.6<202.151 494.572 177.771 518.952> 671.26 20G<152.039 268.198 268.198 268.198 584.999 700.198 700.198 700.198>
VStem: 75.9082 116.159 508.868 115.199
LayerCount: 2
Fore
SplineSet
700.198242188 691.259765625 m 1
 540.622070312 0.0595703125 l 1
 425.422851562 0.0595703125 l 1
 494.572265625 299.580078125 l 1
 177.771484375 299.580078125 l 1
 108.622070312 0.0595703125 l 1
 -7.537109375 0.0595703125 l 1
 152.0390625 691.259765625 l 1
 268.198242188 691.259765625 l 1
 202.151367188 405.1796875 l 1
 518.952148438 405.1796875 l 1
 584.999023438 691.259765625 l 1
 700.198242188 691.259765625 l 1
EndSplineSet
EndChar

StartChar: I
Encoding: 73 73 44
Width: 263
GlyphClass: 2
Flags: MW
HStem: 0.0595703 21G<-0.817383 115.343 -0.817383 -0.817383> 671.26 20G<158.759 274.919 274.919 274.919>
VStem: 82.6279 116.16
LayerCount: 2
Fore
SplineSet
158.758789062 691.259765625 m 1
 274.918945312 691.259765625 l 1
 115.342773438 0.0595703125 l 1
 -0.8173828125 0.0595703125 l 1
 158.758789062 691.259765625 l 1
EndSplineSet
EndChar

StartChar: J
Encoding: 74 74 45
Width: 356
GlyphClass: 2
Flags: MW
HStem: 0.0595703 106.561<-24.2158 42.3828 -48.8174 49.7031> 671.26 20G<250.919 367.079 367.079 367.079>
VStem: 174.788 116.16
LayerCount: 2
Fore
SplineSet
245.180664062 163.259765625 m 2
 228.555664062 91.25 182.639648438 0.0595703125 42.3828125 0.0595703125 c 2
 -48.8173828125 0.0595703125 l 1
 -24.2158203125 106.620117188 l 1
 49.703125 106.620117188 l 2
 77.474609375 106.620117188 95.287109375 112.837890625 105.108398438 120.986328125 c 0
 115.012695312 129.204101562 125.100585938 146.28125 131.680664062 174.780273438 c 2
 250.918945312 691.259765625 l 1
 367.079101562 691.259765625 l 1
 245.180664062 163.259765625 l 2
EndSplineSet
EndChar

StartChar: K
Encoding: 75 75 46
Width: 672
GlyphClass: 2
Flags: MW
HStem: 0.0595703 21G<-7.53711 108.622 -7.53711 -7.53711 462.825 602.392 462.825 462.825> 671.26 20G<152.039 268.198 268.198 268.198 588.282 737.179 737.179 737.179>
VStem: 75.9082 116.159
LayerCount: 2
Fore
SplineSet
462.825195312 0.0595703125 m 1
 318.71484375 332.170898438 l 1
 152.51953125 190.19921875 l 1
 108.622070312 0.0595703125 l 1
 -7.537109375 0.0595703125 l 1
 152.0390625 691.259765625 l 1
 268.198242188 691.259765625 l 1
 187.848632812 343.225585938 l 1
 588.282226562 691.259765625 l 1
 737.178710938 691.259765625 l 1
 415.821289062 415.286132812 l 1
 602.391601562 0.0595703125 l 1
 462.825195312 0.0595703125 l 1
EndSplineSet
EndChar

StartChar: L
Encoding: 76 76 47
Width: 583
GlyphClass: 2
Flags: MW
HStem: 0.0595703 106.561<133.224 480.143> 671.26 20G<152.039 268.198 268.198 268.198>
VStem: 75.9082 116.159
LayerCount: 2
Fore
SplineSet
152.0390625 691.259765625 m 1
 268.198242188 691.259765625 l 1
 133.223632812 106.620117188 l 1
 504.744140625 106.620117188 l 1
 480.142578125 0.0595703125 l 1
 -7.537109375 0.0595703125 l 1
 152.0390625 691.259765625 l 1
EndSplineSet
EndChar

StartChar: M
Encoding: 77 77 48
Width: 823
GlyphClass: 2
Flags: MW
HStem: 0.0595703 21G<-7.53711 108.622 -7.53711 -7.53711 561.742 676.942 561.742 561.742> 671.26 20G<152.039 262.237 262.237 262.237 727.28 836.519 836.519 836.519>
VStem: 75.9082 116.159 645.188 115.2
LayerCount: 2
Fore
SplineSet
836.518554688 691.259765625 m 1
 676.942382812 0.0595703125 l 1
 561.7421875 0.0595703125 l 1
 668.19140625 461.140625 l 1
 404.642578125 131.580078125 l 1
 326.451171875 131.580078125 l 1
 215.071289062 461.140625 l 1
 108.622070312 0.0595703125 l 1
 -7.537109375 0.0595703125 l 1
 152.0390625 691.259765625 l 1
 262.237304688 691.259765625 l 1
 398.944335938 276.2421875 l 1
 727.280273438 691.259765625 l 1
 836.518554688 691.259765625 l 1
EndSplineSet
EndChar

StartChar: N
Encoding: 78 78 49
Width: 720
GlyphClass: 2
Flags: MW
HStem: 0.0595703 21G<-7.53711 108.622 -7.53711 -7.53711 466.165 575.183 466.165 466.165> 671.26 20G<152.039 261.064 261.064 261.064 618.599 734.759 734.759 734.759>
VStem: 75.9082 116.159 542.468 116.16
LayerCount: 2
Fore
SplineSet
734.758789062 691.259765625 m 1
 575.182617188 0.0595703125 l 1
 466.165039062 0.0595703125 l 1
 220.21484375 483.420898438 l 1
 108.622070312 0.0595703125 l 1
 -7.537109375 0.0595703125 l 1
 152.0390625 691.259765625 l 1
 261.064453125 691.259765625 l 1
 506.799804688 207.004882812 l 1
 618.598632812 691.259765625 l 1
 734.758789062 691.259765625 l 1
EndSplineSet
EndChar

StartChar: O
Encoding: 79 79 50
Width: 695
GlyphClass: 2
Flags: MW
HStem: -8.58008 107.521<239.568 314.342> 593.34 107.521<390.061 469.436>
VStem: 65.3477 116.16 530.948 115.199
LayerCount: 2
Fore
SplineSet
50.609375 297.66015625 m 2
 72.994140625 394.620117188 l 2
 95.8291015625 493.53125 138.379882812 570.576171875 202.3828125 623.1328125 c 0
 266.104492188 675.458007812 344.586914062 700.860351562 435.53515625 700.860351562 c 0
 525.86328125 700.860351562 592.016601562 675.4375 630.9296875 623.063476562 c 0
 669.989257812 570.494140625 676.62109375 493.495117188 653.793945312 394.620117188 c 2
 631.409179688 297.66015625 l 2
 608.573242188 198.749023438 566.0234375 121.704101562 502.020507812 69.1474609375 c 0
 438.298828125 16.8212890625 359.81640625 -8.580078125 268.868164062 -8.580078125 c 0
 178.540039062 -8.580078125 112.38671875 16.8427734375 73.47265625 69.216796875 c 0
 34.4140625 121.786132812 27.7822265625 198.78515625 50.609375 297.66015625 c 2
295.610351562 98.9404296875 m 0
 412.579101562 98.9404296875 484.100585938 158.583007812 515.98828125 296.701171875 c 2
 537.486328125 389.821289062 l 2
 569.897460938 530.20703125 529.120117188 593.33984375 409.751953125 593.33984375 c 0
 348.275390625 593.33984375 301.627929688 576.604492188 266.932617188 545.422851562 c 0
 232.129882812 514.14453125 204.92578125 462.934570312 188.045898438 389.8203125 c 2
 166.547851562 296.700195312 l 2
 133.14453125 152.016601562 183.526367188 98.9404296875 295.610351562 98.9404296875 c 0
EndSplineSet
EndChar

StartChar: P
Encoding: 80 80 51
Width: 638
GlyphClass: 2
Flags: MW
HStem: 0.0595703 21G<-7.53809 108.622 -7.53809 -7.53809> 265.98 106.56<194.615 355.294 170.015 381.814> 584.7 106.56<243.596 425.035 243.596 243.596>
VStem: 75.9072 116.16 503.106 116.159
LayerCount: 2
Fore
SplineSet
453.477539062 691.259765625 m 2
 496.430664062 691.259765625 695.16015625 690.237304688 646.194335938 478.139648438 c 0
 635.974609375 433.875976562 591.154296875 265.98046875 355.293945312 265.98046875 c 2
 170.014648438 265.98046875 l 1
 108.622070312 0.0595703125 l 1
 -7.5380859375 0.0595703125 l 1
 152.038085938 691.259765625 l 1
 453.477539062 691.259765625 l 2
529.813476562 477.1796875 m 0
 539.328125 518.393554688 534.526367188 544.522460938 519.571289062 559.637695312 c 0
 504.1328125 575.240234375 473.373046875 584.700195312 425.03515625 584.700195312 c 2
 243.595703125 584.700195312 l 1
 194.615234375 372.540039062 l 1
 381.814453125 372.540039062 l 2
 427.478515625 372.540039062 460.860351562 381.895507812 482.939453125 397.474609375 c 0
 504.48828125 412.678710938 520.763671875 437.982421875 529.813476562 477.1796875 c 0
EndSplineSet
EndChar

StartChar: Q
Encoding: 81 81 52
Width: 695
GlyphClass: 2
Flags: MW
HStem: -8.58008 107.521<239.568 285.363> 593.34 107.521<390.061 469.437>
VStem: 65.3477 116.16 530.948 115.199
LayerCount: 2
Fore
SplineSet
50.609375 297.66015625 m 2
 72.994140625 394.620117188 l 2
 95.8291015625 493.53125 138.379882812 570.576171875 202.3828125 623.1328125 c 0
 266.104492188 675.458007812 344.586914062 700.860351562 435.53515625 700.860351562 c 0
 525.86328125 700.860351562 592.016601562 675.4375 630.9296875 623.063476562 c 0
 669.989257812 570.494140625 676.62109375 493.495117188 653.793945312 394.620117188 c 2
 631.409179688 297.66015625 l 2
 604.90625 182.865234375 551.180664062 97.23828125 469.033203125 45.46875 c 1
 513.010742188 -99.931640625 l 1
 407.921875 -149.990234375 l 1
 361.79296875 1.4453125 l 1
 332.826171875 -5.2861328125 301.857421875 -8.580078125 268.868164062 -8.580078125 c 0
 178.540039062 -8.580078125 112.38671875 16.8427734375 73.47265625 69.216796875 c 0
 34.4140625 121.786132812 27.7822265625 198.78515625 50.609375 297.66015625 c 2
295.610351562 98.9404296875 m 0
 412.640625 98.9404296875 484.1171875 158.65234375 515.98828125 296.700195312 c 2
 537.486328125 389.8203125 l 2
 569.897460938 530.206054688 529.12109375 593.33984375 409.751953125 593.33984375 c 0
 348.275390625 593.33984375 301.627929688 576.604492188 266.932617188 545.422851562 c 0
 232.129882812 514.14453125 204.92578125 462.934570312 188.045898438 389.8203125 c 2
 166.547851562 296.700195312 l 2
 133.14453125 152.016601562 183.526367188 98.9404296875 295.610351562 98.9404296875 c 0
EndSplineSet
EndChar

StartChar: R
Encoding: 82 82 53
Width: 666
GlyphClass: 2
Flags: MW
HStem: 0.0595703 21G<-7.53711 108.622 -7.53711 -7.53711 432.25 565.284 432.25 432.25> 282.299 104.641<197.94 201.96> 584.699 106.56<243.597 426.957 243.597 243.597>
VStem: 75.9082 116.159 503.107 116.16
LayerCount: 2
Fore
SplineSet
648.190429688 486.779296875 m 0
 634.25 426.3984375 592.356445312 331.82421875 466.525390625 296.201171875 c 1
 565.284179688 0.0595703125 l 1
 432.25 0.0595703125 l 1
 342.849609375 282.299804688 l 1
 286.494140625 282.299804688 230.138671875 282.298828125 173.782226562 282.298828125 c 1
 108.622070312 0.0595703125 l 1
 -7.537109375 0.0595703125 l 1
 152.0390625 691.258789062 l 1
 455.3984375 691.258789062 l 2
 530.387695312 691.258789062 586.061523438 674.547851562 620.106445312 638.913085938 c 0
 654.31640625 603.10546875 663.083984375 551.2890625 648.190429688 486.779296875 c 0
532.030273438 486.779296875 m 0
 543.26171875 535.426757812 537.124023438 584.69921875 426.95703125 584.69921875 c 2
 243.596679688 584.69921875 l 1
 197.940429688 386.939453125 l 1
 387.060546875 386.939453125 l 2
 484.88671875 386.939453125 518.55078125 428.393554688 532.030273438 486.779296875 c 0
EndSplineSet
EndChar

StartChar: S
Encoding: 83 83 54
Width: 613
GlyphClass: 2
Flags: MW
HStem: -5.7002 103.679<223.528 264.404> 597.18 102.721<349.498 433.813>
VStem: 51.9053 113.282 467.585 115.203
LayerCount: 2
Fore
SplineSet
250.266601562 97.978515625 m 0
 398.446289062 97.978515625 422.048828125 164.260742188 429.795898438 197.818359375 c 0
 439.094726562 238.096679688 434.877929688 282.916015625 331.458007812 294.87890625 c 2
 244.532226562 305.450195312 l 2
 183.615234375 313.250976562 47.119140625 340.770507812 83.2666015625 497.33984375 c 0
 97.869140625 560.590820312 133.462890625 611.782226562 188.942382812 647.545898438 c 0
 243.954101562 683.008789062 310.723632812 699.900390625 388.271484375 699.900390625 c 0
 490.3203125 699.900390625 623.606445312 668.395507812 601.935546875 498.831054688 c 2
 599.904296875 482.940429688 l 1
 486.211914062 482.940429688 l 1
 492.930664062 528.475585938 503.068359375 597.1796875 364.55859375 597.1796875 c 0
 313.641601562 597.1796875 274.810546875 587.940429688 247.845703125 571.881835938 c 0
 221.251953125 556.044921875 205.09375 534.35546875 197.877929688 503.099609375 c 0
 189.126953125 465.1953125 194.638671875 424.038085938 292.576171875 410.833984375 c 2
 383.400390625 400.2578125 l 2
 446.2890625 391.671875 582.938476562 362.15234375 546.329101562 203.580078125 c 0
 531.119140625 137.696289062 493.733398438 84.6728515625 435.409179688 47.9755859375 c 0
 377.553710938 11.57421875 306.315429688 -5.7001953125 222.4921875 -5.7001953125 c 0
 169.504882812 -5.7001953125 -33.1279296875 -2.6220703125 0.33203125 204.490234375 c 2
 2.8212890625 219.8984375 l 1
 115.903320312 219.8984375 l 1
 111.452148438 188.396484375 105.9375 149.376953125 138.041015625 124.409179688 c 0
 159.765625 107.512695312 196.790039062 97.978515625 250.266601562 97.978515625 c 0
EndSplineSet
EndChar

StartChar: T
Encoding: 84 84 55
Width: 554
GlyphClass: 2
Flags: MW
HStem: 0.0595703 21G<144.143 259.343 144.143 144.143> 584.7 106.56<89.6387 279.117 65.0371 632.999 394.317 394.317 394.317 608.397>
VStem: 227.588 115.2
LayerCount: 2
Fore
SplineSet
279.1171875 584.700195312 m 1
 65.037109375 584.700195312 l 1
 89.638671875 691.259765625 l 1
 632.999023438 691.259765625 l 1
 608.397460938 584.700195312 l 1
 394.317382812 584.700195312 l 1
 259.342773438 0.0595703125 l 1
 144.142578125 0.0595703125 l 1
 279.1171875 584.700195312 l 1
EndSplineSet
EndChar

StartChar: U
Encoding: 85 85 56
Width: 692
GlyphClass: 2
Flags: MW
HStem: -5.7002 105.601<232.822 311.065> 671.26 20G<152.039 268.198 268.198 268.198 590.759 706.919 706.919 706.919>
VStem: 75.9082 116.159 514.628 116.16
LayerCount: 2
Fore
SplineSet
292.952148438 99.900390625 m 0
 413.17578125 99.900390625 468.625 162.240234375 490.580078125 257.33984375 c 2
 590.758789062 691.259765625 l 1
 706.918945312 691.259765625 l 1
 605.411132812 251.580078125 l 2
 587.00390625 171.8515625 547.78125 107.666992188 487.354492188 61.9267578125 c 0
 427.091796875 16.3115234375 353.55859375 -5.7001953125 268.572265625 -5.7001953125 c 0
 183.586914062 -5.7001953125 120.217773438 16.3115234375 81.017578125 61.9267578125 c 0
 41.7099609375 107.666992188 32.1240234375 171.8515625 50.53125 251.580078125 c 2
 152.0390625 691.259765625 l 1
 268.198242188 691.259765625 l 1
 168.01953125 257.33984375 l 2
 146.07421875 162.280273438 172.69140625 99.900390625 292.952148438 99.900390625 c 0
EndSplineSet
EndChar

StartChar: V
Encoding: 86 86 57
Width: 607
GlyphClass: 2
Flags: MW
HStem: 0.0595703 21G<183.138 276.068 183.138 183.138> 671.26 20G<82.2617 204.421 204.421 204.421 570.966 693.092 693.092 693.092>
LayerCount: 2
Fore
SplineSet
82.26171875 691.259765625 m 1
 204.420898438 691.259765625 l 1
 269.997070312 175.55078125 l 1
 570.965820312 691.259765625 l 1
 693.091796875 691.259765625 l 1
 276.068359375 0.0595703125 l 1
 183.137695312 0.0595703125 l 1
 82.26171875 691.259765625 l 1
EndSplineSet
EndChar

StartChar: W
Encoding: 87 87 58
Width: 907
GlyphClass: 2
Flags: MW
HStem: 0.0595703 21G<124.681 234.758 124.681 124.681 522.008 632.145 522.008 522.008> 671.26 20G<83.9092 200.373 200.373 200.373 472.118 602.706 602.706 602.706 873.475 988.062 988.062 988.062>
LayerCount: 2
Fore
SplineSet
522.0078125 0.0595703125 m 1
 497.217773438 514.791015625 l 1
 234.7578125 0.0595703125 l 1
 124.680664062 0.0595703125 l 1
 83.9091796875 691.259765625 l 1
 200.373046875 691.259765625 l 1
 226.349609375 192.172851562 l 1
 472.118164062 691.259765625 l 1
 602.706054688 691.259765625 l 1
 624.236328125 192.336914062 l 1
 873.474609375 691.259765625 l 1
 988.061523438 691.259765625 l 1
 632.14453125 0.0595703125 l 1
 522.0078125 0.0595703125 l 1
EndSplineSet
EndChar

StartChar: X
Encoding: 88 88 59
Width: 649
GlyphClass: 2
Flags: MW
HStem: 0.0595703 21G<-84.959 -84.959 -84.959 51.7021 443.085 443.085 443.085 582.448> 671.26 20G<94.8057 234.245 234.245 234.245 582.426 719.046 719.046 719.046>
LayerCount: 2
Fore
SplineSet
-84.958984375 0.0595703125 m 1
 261.967773438 359.107421875 l 1
 94.8056640625 691.259765625 l 1
 234.245117188 691.259765625 l 1
 353.75390625 450.849609375 l 1
 582.42578125 691.259765625 l 1
 719.045898438 691.259765625 l 1
 401.071289062 361.963867188 l 1
 582.448242188 0.0595703125 l 1
 443.084960938 0.0595703125 l 1
 307.455078125 270.234375 l 1
 51.7021484375 0.0595703125 l 1
 -84.958984375 0.0595703125 l 1
EndSplineSet
EndChar

StartChar: Y
Encoding: 89 89 60
Width: 583
GlyphClass: 2
Flags: MW
HStem: 0.0595703 21G<158.543 273.742 158.543 158.543> 671.26 20G<78.0469 209.542 209.542 209.542 541.851 673.359 673.359 673.359>
VStem: 241.988 115.199
LayerCount: 2
Fore
SplineSet
541.850585938 691.259765625 m 1
 673.359375 691.259765625 l 1
 337.786132812 277.46484375 l 1
 273.7421875 0.0595703125 l 1
 158.54296875 0.0595703125 l 1
 222.806640625 278.416992188 l 1
 78.046875 691.259765625 l 1
 209.541992188 691.259765625 l 1
 306.001953125 385.42578125 l 1
 541.850585938 691.259765625 l 1
EndSplineSet
EndChar

StartChar: Z
Encoding: 90 90 61
Width: 575
GlyphClass: 2
Flags: MW
HStem: 1.02051 106.56<127.466 468.844> 585.66 106.56<130.181 455.195 105.579 623.62>
LayerCount: 2
Fore
SplineSet
493.4453125 107.580078125 m 1
 468.84375 1.0205078125 l 1
 -41.8759765625 1.0205078125 l 1
 -19.5 97.9384765625 l 1
 455.1953125 585.66015625 l 1
 105.579101562 585.66015625 l 1
 130.180664062 692.219726562 l 1
 623.620117188 692.219726562 l 1
 601.247070312 595.311523438 l 1
 127.465820312 107.580078125 l 1
 493.4453125 107.580078125 l 1
EndSplineSet
EndChar

StartChar: bracketleft
Encoding: 91 91 62
Width: 334
GlyphClass: 2
Flags: MW
HStem: -80.5801 106.561<109.807 193.686> 632.7 106.56<249.879 358.359 249.879 249.879>
VStem: 75.9082 111.359 75.9082 219.84
LayerCount: 2
Fore
SplineSet
163.12109375 739.259765625 m 1xd0
 382.9609375 739.259765625 l 1
 358.359375 632.700195312 l 1xd0
 249.87890625 632.700195312 l 1
 109.806640625 25.98046875 l 1xe0
 218.287109375 25.98046875 l 1
 193.685546875 -80.580078125 l 1
 -26.154296875 -80.580078125 l 1
 163.12109375 739.259765625 l 1xd0
EndSplineSet
Substitution2: "'rtla' Right to Left Alternates lookup 0 subtable" bracketright
EndChar

StartChar: backslash
Encoding: 92 92 63
Width: 436
GlyphClass: 2
Flags: MW
HStem: -9.54004 21G<216.26 316.931 216.26 216.26> 673.18 20G<127.237 227.909 227.909 227.909>
LayerCount: 2
Fore
SplineSet
127.237304688 693.1796875 m 1
 227.909179688 693.1796875 l 1
 316.930664062 -9.5400390625 l 1
 216.259765625 -9.5400390625 l 1
 127.237304688 693.1796875 l 1
EndSplineSet
EndChar

StartChar: bracketright
Encoding: 93 93 64
Width: 334
GlyphClass: 2
Flags: MW
HStem: -80.5801 106.561<-20.7529 86.7666 -20.7529 174.485 -45.3545 86.7666> 632.7 106.56<143.921 226.839 119.319 363.761>
VStem: 56.708 219.84 164.228 112.32
LayerCount: 2
Fore
SplineSet
226.838867188 632.700195312 m 1xd0
 119.319335938 632.700195312 l 1
 143.920898438 739.259765625 l 1
 363.760742188 739.259765625 l 1
 174.485351562 -80.580078125 l 1
 -45.3544921875 -80.580078125 l 1
 -20.7529296875 25.98046875 l 1xe0
 86.7666015625 25.98046875 l 1
 226.838867188 632.700195312 l 1xd0
EndSplineSet
Substitution2: "'rtla' Right to Left Alternates lookup 0 subtable" bracketleft
EndChar

StartChar: asciicircum
Encoding: 94 94 65
Width: 514
GlyphClass: 2
Flags: MW
HStem: 673.18 20G<297.391 386.773 386.773 386.773>
LayerCount: 2
Fore
SplineSet
297.390625 693.1796875 m 1
 386.7734375 693.1796875 l 1
 463.115234375 269.8203125 l 1
 361.83984375 269.8203125 l 1
 311.0546875 560.6484375 l 1
 126.872070312 269.8203125 l 1
 25.568359375 269.8203125 l 1
 297.390625 693.1796875 l 1
EndSplineSet
EndChar

StartChar: underscore
Encoding: 95 95 66
Width: 541
GlyphClass: 2
Flags: MW
HStem: -104.58 85.4404<-81.0898 443.504 -100.815 463.229>
LayerCount: 2
Fore
SplineSet
-81.08984375 -19.1396484375 m 1
 463.229492188 -19.1396484375 l 1
 443.50390625 -104.580078125 l 1
 -100.815429688 -104.580078125 l 1
 -81.08984375 -19.1396484375 l 1
EndSplineSet
EndChar

StartChar: grave
Encoding: 96 96 67
Width: 506
GlyphClass: 2
Flags: MW
HStem: 553.98 151.68<291.515 306.74 155.892 407.997 291.515 291.515>
VStem: 76.4365 287.123
LayerCount: 2
Fore
SplineSet
155.891601562 705.66015625 m 1
 306.740234375 705.66015625 l 1
 407.997070312 553.98046875 l 1
 291.514648438 553.98046875 l 1
 155.891601562 705.66015625 l 1
EndSplineSet
EndChar

StartChar: a
Encoding: 97 97 68
Width: 553
GlyphClass: 2
Flags: MW
HStem: -5.7002 95.04<149.778 189.196> 223.741 90.2393<182.019 376.937 238.696 356.102> 430.14 96.96<278.874 338.018>
VStem: 47.1064 109.44 63.4277 108.48 387.906 110.4
LayerCount: 2
Fore
SplineSet
288.553710938 430.139648438 m 0xf4
 238.5390625 430.139648438 184.733398438 417.053710938 172.461914062 363.900390625 c 2
 168.47265625 346.620117188 l 1
 59.9921875 346.620117188 l 1
 63.9814453125 363.900390625 l 2xec
 75.5107421875 413.836914062 104.401367188 455.009765625 149.250976562 484.284179688 c 0
 193.848632812 513.393554688 247.768554688 527.099609375 309.979492188 527.099609375 c 0
 380.47265625 527.099609375 433.008789062 511.51953125 465.33203125 478.166992188 c 0
 497.862304688 444.600585938 506.221679688 395.786132812 492.211914062 335.099609375 c 2
 414.861328125 0.0595703125 l 1
 306.381835938 0.0595703125 l 1
 314.735351562 36.2412109375 l 1
 271.67578125 7.8671875 219.259765625 -5.7001953125 159.131835938 -5.7001953125 c 0
 97.7080078125 -5.7001953125 51.845703125 7.2275390625 23.708984375 35.44921875 c 0
 -4.611328125 63.8544921875 -12.0263671875 105.369140625 -0.212890625 156.540039062 c 0
 12.9296875 213.465820312 61.259765625 313.98046875 238.696289062 313.98046875 c 2
 376.936523438 313.98046875 l 1
 381.369140625 333.1796875 l 2
 392.032226562 379.3671875 387.481445312 430.139648438 288.553710938 430.139648438 c 0xf4
197.393554688 89.33984375 m 0
 294.05859375 89.33984375 334.576171875 130.501953125 350.561523438 199.741210938 c 2
 356.1015625 223.741210938 l 1
 231.301757812 223.741210938 l 2
 132.736328125 223.741210938 115.954101562 185.672851562 109.44921875 157.5 c 0xf4
 102.666992188 128.12109375 102.162109375 89.33984375 197.393554688 89.33984375 c 0
EndSplineSet
EndChar

StartChar: b
Encoding: 98 98 69
Width: 583
GlyphClass: 2
Flags: MW
HStem: -8.58008 100.799<228.018 269.813> 0.0595703 21G<-12.3379 97.1025 -12.3379 -12.3379> 428.218 101.763<326.088 375.23> 671.26 20G<147.238 257.639 257.639 257.639>
VStem: 71.1074 110.4 432.066 110.401
LayerCount: 2
Fore
SplineSet
208.513671875 478.474609375 m 1x7c
 238.94921875 501.651367188 290.651367188 529.98046875 361.524414062 529.98046875 c 0
 426.774414062 529.98046875 475.98046875 508.752929688 506.493164062 465.938476562 c 0
 537.205078125 422.845703125 542.6875 362.453125 525.291015625 287.099609375 c 2
 513.323242188 235.259765625 l 2
 495.78515625 159.296875 462.368164062 98.58203125 411.727539062 55.4619140625 c 0
 361.4453125 12.6474609375 302.438476562 -8.580078125 237.188476562 -8.580078125 c 0xbc
 199.236328125 -8.580078125 143.01953125 -2.0009765625 106.295898438 39.87890625 c 1
 97.1025390625 0.0595703125 l 1
 -12.337890625 0.0595703125 l 1
 147.23828125 691.259765625 l 1
 257.638671875 691.259765625 l 1
 208.513671875 478.474609375 l 1x7c
248.9375 92.21875 m 0
 313.34375 92.21875 377.412109375 124.768554688 403.807617188 239.098632812 c 2
 414.002929688 283.2578125 l 2
 430.606445312 355.17578125 425.872070312 428.217773438 324.588867188 428.217773438 c 0
 283.442382812 428.217773438 250.311523438 415.885742188 222.620117188 392.01953125 c 0
 194.73828125 367.989257812 175.466796875 335.342773438 165.436523438 291.8984375 c 2
 150.587890625 227.578125 l 2
 140.725585938 184.86328125 145.088867188 152.567382812 162.196289062 128.484375 c 0
 179.161132812 104.6015625 207.09765625 92.21875 248.9375 92.21875 c 0
EndSplineSet
EndChar

StartChar: c
Encoding: 99 99 70
Width: 558
GlyphClass: 2
Flags: MW
HStem: -8.58008 100.8<200.928 244.731> 428.22 101.761<298.108 359.539>
VStem: 56.709 110.398 408.067 108.48
LayerCount: 2
Fore
SplineSet
234.540039062 92.2197265625 m 0
 255.135742188 92.2197265625 346.122070312 93.1875 366.732421875 182.459960938 c 2
 370.943359375 200.700195312 l 1
 479.423828125 200.700195312 l 1
 475.212890625 182.459960938 l 2
 461.888671875 124.744140625 431.264648438 77.134765625 383.744140625 42.505859375 c 0
 336.21484375 7.8701171875 278.194335938 -8.580078125 211.268554688 -8.580078125 c 0
 137.58984375 -8.580078125 82.7666015625 12.0244140625 49.64453125 54.638671875 c 0
 16.3662109375 97.453125 9.9296875 158.875976562 27.78515625 236.219726562 c 2
 39.0888671875 285.1796875 l 2
 56.9453125 362.524414062 91.744140625 423.947265625 144.791992188 466.76171875 c 0
 197.5546875 509.34765625 261.572265625 529.98046875 334.64453125 529.98046875 c 0
 401.575195312 529.98046875 452.129882812 513.525390625 483.974609375 478.935546875 c 0
 515.908203125 444.25 524.500976562 395.950195312 510.895507812 337.01953125 c 2
 506.463867188 317.8203125 l 1
 397.983398438 317.8203125 l 1
 402.415039062 337.01953125 l 2
 411.056640625 374.446289062 406.966796875 428.219726562 312.111328125 428.219726562 c 0
 244.186523438 428.219726562 176.359375 401.57421875 149.043945312 283.259765625 c 2
 138.626953125 238.139648438 l 2
 110.989257812 118.426757812 167.315429688 92.2197265625 234.540039062 92.2197265625 c 0
EndSplineSet
EndChar

StartChar: d
Encoding: 100 100 71
Width: 583
GlyphClass: 2
Flags: MW
HStem: -8.58008 100.8<171.528 225.18> 0.0595703 21G<334.223 443.662 334.223 334.223> 428.22 101.761<279.579 325.376> 671.26 20G<493.799 603.238 603.238 603.238>
VStem: 56.709 110.399 417.668 109.439
LayerCount: 2
Fore
SplineSet
343.518554688 40.326171875 m 1x7c
 311.75390625 16.5380859375 261.171875 -8.580078125 189.188476562 -8.580078125 c 0xbc
 123.379882812 -8.580078125 74.201171875 12.431640625 44.5224609375 55.076171875 c 0
 14.70703125 97.916015625 9.822265625 158.413085938 27.3427734375 234.299804688 c 2
 39.5322265625 287.099609375 l 2
 56.91796875 362.405273438 89.9111328125 422.741210938 139.83984375 465.846679688 c 0
 189.44921875 508.676757812 247.552734375 529.98046875 311.604492188 529.98046875 c 0
 347.653320312 529.98046875 405.900390625 522.310546875 444.6875 478.536132812 c 1
 493.798828125 691.259765625 l 1
 603.23828125 691.259765625 l 1
 443.662109375 0.0595703125 l 1
 334.22265625 0.0595703125 l 1
 343.518554688 40.326171875 l 1x7c
138.627929688 238.139648438 m 2
 126.780273438 186.821289062 115.234375 92.2197265625 227.821289062 92.2197265625 c 0
 269.71484375 92.2197265625 302.959960938 104.48046875 330.153320312 127.93359375 c 0
 357.599609375 151.606445312 376.7109375 184.090820312 386.750976562 227.580078125 c 2
 401.600585938 291.900390625 l 2
 411.791015625 336.040039062 407.576171875 368.797851562 390.80078125 392.439453125 c 0
 374.112304688 415.958007812 346.3203125 428.219726562 304.431640625 428.219726562 c 0
 229.6640625 428.219726562 172.948242188 386.793945312 148.823242188 282.299804688 c 2
 138.627929688 238.139648438 l 2
EndSplineSet
EndChar

StartChar: e
Encoding: 101 101 72
Width: 561
GlyphClass: 2
Flags: MW
HStem: -8.58008 99.8398<201.551 256.922 201.551 282.117> 225.66 90.2402<135.924 398.43 157.779 398.43 157.779 488.066> 429.18 100.801<292.25 359.749>
VStem: 56.708 110.577 407.107 109.44
LayerCount: 2
Fore
SplineSet
135.923828125 225.66015625 m 1
 115.598632812 122.220703125 163.985351562 91.259765625 239.1171875 91.259765625 c 0
 274.7265625 91.259765625 302.215820312 99.5634765625 322.97265625 114.256835938 c 0
 344.30859375 129.359375 357.057617188 147.244140625 362.93359375 170.161132812 c 2
 366.880859375 187.259765625 l 1
 476.321289062 187.259765625 l 1
 472.040039062 168.71484375 l 2
 447.5 71.22265625 350.0859375 -8.580078125 214.1484375 -8.580078125 c 0
 139.803710938 -8.580078125 84.4228515625 12.3662109375 50.8251953125 55.5986328125 c 0
 17.0322265625 99.083984375 10.6015625 161.790039062 28.892578125 241.020507812 c 2
 37.9794921875 280.379882812 l 2
 55.9599609375 358.260742188 90.1884765625 420.420898438 142.021484375 464.505859375 c 0
 193.76953125 508.518554688 256.57421875 529.98046875 327.924804688 529.98046875 c 0
 397.791992188 529.98046875 450.20703125 510.31640625 482.463867188 469.729492188 c 0
 514.919921875 428.892578125 521.533203125 370.620117188 504.689453125 297.66015625 c 2
 488.06640625 225.66015625 l 1
 135.923828125 225.66015625 l 1
398.4296875 315.900390625 m 1
 405.984375 352.482421875 414.845703125 429.1796875 304.651367188 429.1796875 c 0
 211.922851562 429.1796875 175.373046875 367.608398438 157.779296875 315.900390625 c 1
 398.4296875 315.900390625 l 1
EndSplineSet
EndChar

StartChar: f
Encoding: 102 102 73
Width: 374
GlyphClass: 2
Flags: MW
HStem: 0.0595703 21G<35.6621 146.062 35.6621 35.6621> 430.14 90.2402<86.6689 134.954 65.835 155.788 266.188 368.234 86.6689 245.354> 601.98 89.2793<324.47 428.519 355.559 407.907>
VStem: 119.107 110.4
LayerCount: 2
Fore
SplineSet
348.387695312 601.98046875 m 2
 300.551757812 601.98046875 280.604492188 582.826171875 271.506835938 543.419921875 c 2
 266.188476562 520.379882812 l 1
 389.068359375 520.379882812 l 1
 368.234375 430.139648438 l 1
 245.354492188 430.139648438 l 1
 146.0625 0.0595703125 l 1
 35.662109375 0.0595703125 l 1
 134.954101562 430.139648438 l 1
 65.8349609375 430.139648438 l 1
 86.6689453125 520.379882812 l 1
 155.788085938 520.379882812 l 1
 160.442382812 540.540039062 l 2
 171.25390625 587.372070312 193.5390625 625.616210938 228.256835938 652.333984375 c 0
 262.889648438 678.987304688 305.935546875 691.259765625 355.55859375 691.259765625 c 2
 428.518554688 691.259765625 l 1
 407.907226562 601.98046875 l 1
 348.387695312 601.98046875 l 2
EndSplineSet
EndChar

StartChar: g
Encoding: 103 103 74
Width: 583
GlyphClass: 2
Flags: MW
HStem: -153.54 97.918<174.189 244.121 174.189 251.138> 14.459 101.761<212.427 234.265> 429.18 100.8<279.296 325.596> 500.379 20G<454.347 563.786 563.786 563.786>
VStem: 56.707 110.399 417.667 109.439
LayerCount: 2
Fore
SplineSet
456.737304688 56.69921875 m 2xdc
 428.186523438 -66.96875 333.114257812 -153.540039062 169.161132812 -153.540039062 c 0
 104.731445312 -153.540039062 55.458984375 -141.666015625 22.5390625 -116.139648438 c 0
 -10.7548828125 -90.3251953125 -23.8212890625 -51.255859375 -16.6318359375 -2.126953125 c 2
 -14.3447265625 13.4990234375 l 1
 92.32421875 13.4990234375 l 1
 92.6025390625 -8.9609375 92.8232421875 -26.83984375 114.774414062 -40.5791015625 c 0
 129.80859375 -49.9892578125 155.65234375 -55.6220703125 192.7265625 -55.6220703125 c 0
 295.514648438 -55.6220703125 331.838867188 -10.263671875 345.96875 50.939453125 c 2
 348.908203125 63.6728515625 l 1
 324.416015625 45.0673828125 274.024414062 14.458984375 194.505859375 14.458984375 c 0
 129.353515625 14.458984375 80.3408203125 35.1240234375 50.1923828125 77.0224609375 c 0
 19.884765625 119.142578125 14.3701171875 178.118164062 31.330078125 251.579101562 c 2
 39.9736328125 289.01953125 l 2
 57.2109375 363.684570312 89.9326171875 423.538085938 139.46484375 466.323242188 c 0
 188.75390625 508.8984375 246.989257812 529.979492188 311.603515625 529.979492188 c 0xec
 347.311523438 529.979492188 406.274414062 522.614257812 444.887695312 479.404296875 c 1
 454.346679688 520.37890625 l 1
 563.786132812 520.37890625 l 1
 456.737304688 56.69921875 l 2xdc
232.399414062 116.219726562 m 0
 265.12109375 116.219726562 362.206054688 121.274414062 391.846679688 249.66015625 c 2
 402.263671875 294.780273438 l 2
 412.135742188 337.540039062 407.857421875 369.671875 391.021484375 393.399414062 c 0
 374.33203125 416.91796875 346.540039062 429.1796875 304.65234375 429.1796875 c 0
 213.213867188 429.1796875 168.388671875 367.055664062 149.264648438 284.219726562 c 2
 142.837890625 256.379882812 l 2
 131.502929688 207.283203125 135.080078125 172.743164062 150.555664062 150.478515625 c 0
 166.197265625 127.975585938 192.454101562 116.219726562 232.399414062 116.219726562 c 0
EndSplineSet
EndChar

StartChar: h
Encoding: 104 104 75
Width: 576
GlyphClass: 2
Flags: MW
HStem: 0.0595703 21G<-12.3379 98.0625 -12.3379 -12.3379 326.544 326.544 326.544 436.943> 424.38 101.76<325.444 359.009> 671.26 20G<147.238 257.639 257.639 257.639>
VStem: 71.1074 110.4 409.989 110.399
LayerCount: 2
Fore
SplineSet
398.796875 313.01953125 m 2
 412.8984375 374.103515625 401.032226562 424.379882812 316.985351562 424.379882812 c 0
 278.92578125 424.379882812 247.73828125 413.357421875 221.234375 392.052734375 c 0
 194.912109375 370.89453125 176.977539062 341.877929688 167.876953125 302.459960938 c 2
 98.0625 0.0595703125 l 1
 -12.337890625 0.0595703125 l 1
 147.23828125 691.259765625 l 1
 257.638671875 691.259765625 l 1
 208.180664062 477.03125 l 1
 239.4921875 500.211914062 290.25 526.139648438 360.638671875 526.139648438 c 0
 421.608398438 526.139648438 467.026367188 508.484375 493.83203125 471.796875 c 0
 520.541015625 435.2421875 525.82421875 385.043945312 511.633789062 323.580078125 c 2
 436.943359375 0.0595703125 l 1
 326.543945312 0.0595703125 l 1
 398.796875 313.01953125 l 2
EndSplineSet
EndChar

StartChar: i
Encoding: 105 105 76
Width: 247
GlyphClass: 2
Flags: MW
HStem: 0.0595703 21G<-5.61719 104.782 -5.61719 -5.61719> 500.38 20G<114.509 224.908 224.908 224.908> 573.18 117.12<153.737 237.098 126.698 264.137>
VStem: 77.8281 110.399
LayerCount: 2
Fore
SplineSet
153.737304688 690.299804688 m 1
 264.13671875 690.299804688 l 1
 237.09765625 573.1796875 l 1
 126.698242188 573.1796875 l 1
 153.737304688 690.299804688 l 1
114.508789062 520.379882812 m 1
 224.908203125 520.379882812 l 1
 104.782226562 0.0595703125 l 1
 -5.6171875 0.0595703125 l 1
 114.508789062 520.379882812 l 1
EndSplineSet
EndChar

StartChar: j
Encoding: 106 106 77
Width: 245
GlyphClass: 2
Flags: MW
HStem: -146.82 101.76<-138.914 -95.208 -162.407 -81.3145> 500.381 20G<113.549 223.948 223.948 223.948> 573.18 118.08<151.079 235.178 123.818 262.438>
VStem: 76.8682 110.399
LayerCount: 2
Fore
SplineSet
151.079101562 691.259765625 m 1
 262.438476562 691.259765625 l 1
 235.177734375 573.1796875 l 1
 123.818359375 573.1796875 l 1
 151.079101562 691.259765625 l 1
107.147460938 14.4609375 m 2
 90.4697265625 -57.7783203125 42.068359375 -146.8203125 -95.2080078125 -146.8203125 c 2
 -162.407226562 -146.8203125 l 1
 -138.9140625 -45.060546875 l 1
 -81.314453125 -45.060546875 l 2
 -54.9150390625 -45.060546875 -37.6953125 -39.095703125 -27.77734375 -31.0390625 c 0
 -17.9521484375 -23.0556640625 -8.181640625 -6.8916015625 -1.9228515625 20.220703125 c 2
 113.548828125 520.380859375 l 1
 223.948242188 520.380859375 l 1
 107.147460938 14.4609375 l 2
EndSplineSet
EndChar

StartChar: k
Encoding: 107 107 78
Width: 562
GlyphClass: 2
Flags: MW
HStem: 0.0595703 21G<-12.3379 98.0625 -12.3379 -12.3379 352.656 484.959 352.656 352.656> 500.38 20G<442.562 586.194 586.194 586.194> 671.26 20G<147.238 257.639 257.639 257.639>
VStem: 71.1074 110.4
LayerCount: 2
Fore
SplineSet
352.65625 0.0595703125 m 1
 239.797851562 239.836914062 l 1
 133.477539062 153.458984375 l 1
 98.0625 0.0595703125 l 1
 -12.337890625 0.0595703125 l 1
 147.23828125 691.259765625 l 1
 257.638671875 691.259765625 l 1
 165.575195312 292.487304688 l 1
 442.5625 520.379882812 l 1
 586.194335938 520.379882812 l 1
 333.842773438 316.208007812 l 1
 484.958984375 0.0595703125 l 1
 352.65625 0.0595703125 l 1
EndSplineSet
EndChar

StartChar: l
Encoding: 108 108 79
Width: 314
GlyphClass: 2
Flags: MW
HStem: 0.0595703 101.761<94.1108 243.476 186.836 219.982> 671.26 20G<147.238 257.639 257.639 257.639>
VStem: 71.1074 110.4
LayerCount: 2
Fore
SplineSet
152.782226562 0.0595703125 m 2
 35.439453125 0.0595703125 1.578125 60.3349609375 25.1181640625 162.299804688 c 2
 147.23828125 691.259765625 l 1
 257.638671875 691.259765625 l 1
 136.626953125 167.099609375 l 2
 130.35546875 139.934570312 132.528320312 123.658203125 138.4375 115.702148438 c 0
 144.182617188 107.966796875 158.978515625 101.8203125 186.8359375 101.8203125 c 2
 243.475585938 101.8203125 l 1
 219.982421875 0.0595703125 l 1
 152.782226562 0.0595703125 l 2
EndSplineSet
EndChar

StartChar: m
Encoding: 109 109 80
Width: 905
GlyphClass: 2
Flags: MW
HStem: 0.0595703 21G<-12.3379 98.0625 -12.3379 -12.3379 319.823 319.823 319.823 431.184 651.982 651.982 651.982 762.383> 424.38 101.76<318.118 364.208 645.316 683.809>
VStem: 71.1074 110.4 403.269 111.36 735.428 110.4
LayerCount: 2
Fore
SplineSet
392.297851562 313.98046875 m 2
 400.142578125 347.9609375 411.430664062 424.379882812 316.985351562 424.379882812 c 0
 278.92578125 424.379882812 247.73828125 413.357421875 221.234375 392.052734375 c 0
 194.912109375 370.89453125 176.977539062 341.877929688 167.876953125 302.459960938 c 2
 98.0625 0.0595703125 l 1
 -12.337890625 0.0595703125 l 1
 107.788085938 520.379882812 l 1
 217.228515625 520.379882812 l 1
 207.203125 476.95703125 l 1
 222.724609375 488.405273438 276.55859375 526.139648438 359.677734375 526.139648438 c 0
 396.864257812 526.139648438 463.219726562 517.010742188 496.344726562 456.790039062 c 1
 548.158203125 502.609375 607.435546875 526.139648438 683.197265625 526.139648438 c 0
 745.338867188 526.139648438 791.563476562 508.743164062 818.827148438 472.379882812 c 0
 846.026367188 436.099609375 851.408203125 385.670898438 837.073242188 323.580078125 c 2
 762.3828125 0.0595703125 l 1
 651.982421875 0.0595703125 l 1
 724.235351562 313.01953125 l 2
 739.35546875 378.513671875 723.272460938 424.379882812 644.344726562 424.379882812 c 0
 607.998046875 424.379882812 527.201171875 415.958007812 502.993164062 311.099609375 c 2
 431.18359375 0.0595703125 l 1
 319.823242188 0.0595703125 l 1
 392.297851562 313.98046875 l 2
EndSplineSet
EndChar

StartChar: n
Encoding: 110 110 81
Width: 576
GlyphClass: 2
Flags: MW
HStem: 0.0595703 21G<-12.3379 98.0625 -12.3379 -12.3379 326.544 326.544 326.544 436.943> 424.38 101.76<319.911 359.009>
VStem: 71.1074 110.4 409.989 110.399
LayerCount: 2
Fore
SplineSet
398.796875 313.01953125 m 2
 412.8984375 374.103515625 401.032226562 424.379882812 316.985351562 424.379882812 c 0
 278.92578125 424.379882812 247.73828125 413.357421875 221.234375 392.052734375 c 0
 194.912109375 370.89453125 176.977539062 341.877929688 167.876953125 302.459960938 c 2
 98.0625 0.0595703125 l 1
 -12.337890625 0.0595703125 l 1
 107.788085938 520.379882812 l 1
 217.229492188 520.379882812 l 1
 207.204101562 476.95703125 l 1
 226.547851562 491.223632812 279.182617188 526.139648438 360.638671875 526.139648438 c 0
 421.608398438 526.139648438 467.026367188 508.484375 493.83203125 471.796875 c 0
 520.541015625 435.2421875 525.82421875 385.043945312 511.633789062 323.580078125 c 2
 436.943359375 0.0595703125 l 1
 326.543945312 0.0595703125 l 1
 398.796875 313.01953125 l 2
EndSplineSet
EndChar

StartChar: o
Encoding: 111 111 82
Width: 576
GlyphClass: 2
Flags: MW
HStem: -8.58008 100.799<200.57 247.501> 428.219 101.761<299.066 344.486>
VStem: 56.708 110.399 424.388 110.4
LayerCount: 2
Fore
SplineSet
27.7841796875 236.21875 m 2
 39.087890625 285.178710938 l 2
 56.9501953125 362.547851562 91.9375 423.99609375 145.321289062 466.801757812 c 0
 198.37890625 509.345703125 262.528320312 529.979492188 335.604492188 529.979492188 c 0
 408.096679688 529.979492188 462.23828125 509.133789062 495.228515625 466.239257812 c 0
 528.37109375 423.1484375 534.884765625 361.920898438 517.16796875 285.1796875 c 2
 505.864257812 236.219726562 l 2
 488.008789062 158.875976562 453.208984375 97.453125 400.162109375 54.638671875 c 0
 347.43359375 12.0810546875 283.734375 -8.580078125 211.268554688 -8.580078125 c 0
 138.192382812 -8.580078125 83.5703125 12.0537109375 50.15625 54.59765625 c 0
 16.537109375 97.40234375 9.9228515625 158.850585938 27.7841796875 236.21875 c 2
233.579101562 92.21875 m 0
 299.625 92.21875 368.126953125 117.807617188 395.907226562 238.138671875 c 2
 406.32421875 283.258789062 l 2
 433.796875 402.255859375 377.821289062 428.21875 311.151367188 428.21875 c 0
 244.473632812 428.21875 176.514648438 402.249023438 149.043945312 283.258789062 c 2
 138.626953125 238.138671875 l 2
 110.840820312 117.782226562 167.560546875 92.21875 233.579101562 92.21875 c 0
EndSplineSet
EndChar

StartChar: p
Encoding: 112 112 83
Width: 583
GlyphClass: 2
Flags: MW
HStem: -155.46 21G<-48.2422 62.1582 -48.2422 -48.2422> -8.58008 100.799<228.018 269.813> 428.218 100.802<326.06 374.695> 500.38 20G<107.788 217.229 217.229 217.229>
VStem: 71.1074 110.4 432.066 110.401
LayerCount: 2
Fore
SplineSet
207.39453125 477.788085938 m 1xdc
 239.138671875 501.7109375 290.81640625 529.01953125 361.302734375 529.01953125 c 0xec
 426.521484375 529.01953125 475.750976562 507.982421875 506.352539062 465.500976562 c 0
 537.17578125 422.708984375 542.686523438 362.447265625 525.291015625 287.099609375 c 2
 513.323242188 235.259765625 l 2
 495.78515625 159.296875 462.368164062 98.58203125 411.727539062 55.4619140625 c 0
 361.4453125 12.6474609375 302.438476562 -8.580078125 237.188476562 -8.580078125 c 0
 179.251953125 -8.580078125 135.176757812 7.3193359375 107.1796875 39.5517578125 c 1
 62.158203125 -155.459960938 l 1
 -48.2421875 -155.459960938 l 1
 107.788085938 520.379882812 l 1
 217.228515625 520.379882812 l 1
 207.39453125 477.788085938 l 1xdc
248.9375 92.21875 m 0
 313.34375 92.21875 377.412109375 124.768554688 403.807617188 239.098632812 c 2
 413.78125 282.297851562 l 2
 430.705078125 355.603515625 424.80078125 428.217773438 324.588867188 428.217773438 c 0
 283.442382812 428.217773438 250.311523438 415.885742188 222.620117188 392.01953125 c 0
 194.73828125 367.989257812 175.466796875 335.342773438 165.436523438 291.8984375 c 2
 150.587890625 227.578125 l 2
 140.725585938 184.86328125 145.088867188 152.567382812 162.196289062 128.484375 c 0
 179.161132812 104.6015625 207.09765625 92.21875 248.9375 92.21875 c 0
EndSplineSet
EndChar

StartChar: q
Encoding: 113 113 84
Width: 583
GlyphClass: 2
Flags: MW
HStem: -155.46 21G<298.318 407.758 298.318 298.318> -8.58008 100.8<171.526 221.983> 428.22 100.8<280.033 325.375> 500.38 20G<454.349 563.788 563.788 563.788>
VStem: 56.707 110.399 417.668 109.439
LayerCount: 2
Fore
SplineSet
312.341796875 529.01953125 m 0xec
 349.811523438 529.01953125 406.903320312 521.05078125 444.685546875 478.524414062 c 1
 454.348632812 520.379882812 l 1
 563.788085938 520.379882812 l 1xdc
 407.7578125 -155.459960938 l 1
 298.318359375 -155.459960938 l 1
 343.538085938 40.4091796875 l 1
 306.9140625 13.087890625 254.779296875 -8.580078125 189.1875 -8.580078125 c 0
 123.37890625 -8.580078125 74.2001953125 12.431640625 44.521484375 55.076171875 c 0
 14.7060546875 97.916015625 9.8203125 158.413085938 27.3408203125 234.299804688 c 2
 39.5302734375 287.099609375 l 2
 56.9150390625 362.399414062 89.8740234375 422.604492188 139.77734375 465.41015625 c 0
 189.362304688 507.942382812 247.724609375 529.01953125 312.341796875 529.01953125 c 0xec
138.625976562 238.139648438 m 2
 126.778320312 186.821289062 115.232421875 92.2197265625 227.819335938 92.2197265625 c 0
 269.712890625 92.2197265625 302.958007812 104.48046875 330.151367188 127.93359375 c 0
 357.59765625 151.606445312 376.708984375 184.090820312 386.749023438 227.580078125 c 2
 401.598632812 291.900390625 l 2
 411.7890625 336.040039062 407.57421875 368.797851562 390.799804688 392.439453125 c 0
 374.110351562 415.958007812 346.318359375 428.219726562 304.430664062 428.219726562 c 0xec
 229.662109375 428.219726562 172.946289062 386.793945312 148.821289062 282.299804688 c 2
 138.625976562 238.139648438 l 2
EndSplineSet
EndChar

StartChar: r
Encoding: 114 114 85
Width: 388
GlyphClass: 2
Flags: MW
HStem: 0.0595703 21G<-12.3379 98.0625 -12.3379 -12.3379> 425.34 101.76<323.763 335.836>
VStem: 71.1074 110.4
LayerCount: 2
Fore
SplineSet
207.133789062 476.66015625 m 1
 235.796875 498.95703125 286.66796875 527.099609375 360.858398438 527.099609375 c 0
 375.353515625 527.099609375 383.120117188 527.099609375 413.471679688 522.126953125 c 1
 388.224609375 412.771484375 l 1
 360.256835938 421.666992188 348.706054688 425.33984375 322.965820312 425.33984375 c 0
 283.705078125 425.33984375 251.091796875 413.740234375 222.9375 391.096679688 c 0
 194.955078125 368.590820312 176.146484375 338.276367188 166.76953125 297.66015625 c 2
 98.0625 0.0595703125 l 1
 -12.337890625 0.0595703125 l 1
 107.788085938 520.379882812 l 1
 217.227539062 520.379882812 l 1
 207.133789062 476.66015625 l 1
EndSplineSet
EndChar

StartChar: s
Encoding: 115 115 86
Width: 522
GlyphClass: 2
Flags: MW
HStem: -5.7002 96.96<157.558 217.985> 432.06 95.04<266.327 305.503>
VStem: 47.1094 106.561 54.7891 106.56 382.148 106.561 389.83 106.558
LayerCount: 2
Fore
SplineSet
56.0078125 366.780273438 m 0xd4
 77.8037109375 461.186523438 168.958984375 527.099609375 307.100585938 527.099609375 c 0
 372.9921875 527.099609375 423.310546875 513.66796875 456.504882812 485.038085938 c 0
 489.830078125 456.293945312 501.258789062 415.858398438 489.927734375 366.780273438 c 2
 485.716796875 348.540039062 l 1
 379.15625 348.540039062 l 1
 383.145507812 365.8203125 l 2
 388.168945312 387.576171875 383.395507812 402.27734375 367.853515625 413.58984375 c 0
 351.814453125 425.264648438 324.887695312 432.059570312 286.119140625 432.059570312 c 0
 246.534179688 432.059570312 216.946289062 425.58203125 197.645507812 415.040039062 c 0
 178.5390625 404.603515625 168.29296875 391.581054688 163.897460938 372.540039062 c 0xd8
 160.008789062 355.698242188 162.99609375 345.354492188 171.912109375 337.688476562 c 0
 181.147460938 329.747070312 202.833007812 323.153320312 236.536132812 318.700195312 c 2
 309.407226562 309.073242188 l 2
 385.89453125 299.919921875 475.615234375 271.526367188 449.955078125 160.379882812 c 0
 437.916992188 108.234375 406.650390625 65.880859375 358.110351562 36.720703125 c 0
 310.100585938 7.87890625 251.876953125 -5.7001953125 184.092773438 -5.7001953125 c 0
 116.900390625 -5.7001953125 65.9453125 8.2177734375 32.935546875 37.94921875 c 0
 -0.2119140625 67.8017578125 -10.9560546875 109.991210938 0.8984375 161.33984375 c 2
 4.8876953125 178.620117188 l 1
 111.448242188 178.620117188 l 1
 107.680664062 162.299804688 l 2xe4
 101.430664062 135.227539062 104.795898438 91.259765625 210.3203125 91.259765625 c 0
 249.766601562 91.259765625 280.954101562 97.8837890625 303.846679688 109.510742188 c 0
 325.978515625 120.750976562 337.530273438 134.963867188 342.290039062 155.580078125 c 0
 346.33203125 173.088867188 350.955078125 201.854492188 261.50390625 211.333984375 c 2
 193.224609375 219.999023438 l 2
 119.385742188 228.928710938 30.408203125 255.895507812 56.0078125 366.780273438 c 0xd4
EndSplineSet
EndChar

StartChar: t
Encoding: 116 116 87
Width: 392
GlyphClass: 2
Flags: MW
HStem: 0.0595703 99.8408<177.41 292.952 237.272 269.902> 430.14 90.2402<73.2285 138.795 52.3945 159.629 73.2285 249.194 270.028 379.755>
VStem: 122.948 110.399
LayerCount: 2
Fore
SplineSet
200.782226562 0.0595703125 m 2
 154.037109375 0.0595703125 41.4931640625 8.6796875 75.408203125 155.580078125 c 2
 138.794921875 430.139648438 l 1
 52.39453125 430.139648438 l 1
 73.228515625 520.379882812 l 1
 159.62890625 520.379882812 l 1
 183.1328125 622.186523438 l 1
 304.026367188 667.64453125 l 1
 270.028320312 520.379882812 l 1
 400.588867188 520.379882812 l 1
 379.754882812 430.139648438 l 1
 249.194335938 430.139648438 l 1
 186.915039062 160.379882812 l 2
 181.138671875 135.356445312 183.619140625 120.692382812 189.770507812 113.234375 c 0
 196.024414062 105.649414062 210.763671875 99.900390625 237.272460938 99.900390625 c 2
 292.952148438 99.900390625 l 1
 269.90234375 0.0595703125 l 1
 200.782226562 0.0595703125 l 2
EndSplineSet
EndChar

StartChar: u
Encoding: 117 117 88
Width: 576
GlyphClass: 2
Flags: MW
HStem: -6.66016 101.759<202.412 245.207> 500.379 20G<107.787 218.188 218.188 218.188 446.668 557.067 557.067 557.067>
VStem: 71.1074 110.4 409.988 110.399
LayerCount: 2
Fore
SplineSet
234.244140625 95.0986328125 m 0
 301.241210938 95.0986328125 354.440429688 120.897460938 376.853515625 217.979492188 c 2
 446.66796875 520.37890625 l 1
 557.067382812 520.37890625 l 1
 485.258789062 209.338867188 l 2
 469.723632812 142.049804688 438.198242188 87.9130859375 389.755859375 49.6962890625 c 0
 341.280273438 11.453125 280.623046875 -6.66015625 209.791015625 -6.66015625 c 0
 139.571289062 -6.66015625 87.7353515625 11.478515625 57.251953125 49.7412109375 c 0
 26.7978515625 87.9697265625 20.4501953125 142.078125 35.978515625 209.338867188 c 2
 107.787109375 520.37890625 l 1
 218.1875 520.37890625 l 1
 148.373046875 217.979492188 l 2
 125.895507812 120.615234375 170.580078125 95.0986328125 234.244140625 95.0986328125 c 0
EndSplineSet
EndChar

StartChar: v
Encoding: 118 118 89
Width: 518
GlyphClass: 2
Flags: MW
HStem: 0.0595703 21G<134.341 233.624 134.341 134.341> 500.38 20G<49.1846 167.673 167.673 167.673 440.521 559.032 559.032 559.032>
LayerCount: 2
Fore
SplineSet
49.1845703125 520.379882812 m 1
 167.672851562 520.379882812 l 1
 220.692382812 157.1796875 l 1
 440.520507812 520.379882812 l 1
 559.032226562 520.379882812 l 1
 233.624023438 0.0595703125 l 1
 134.340820312 0.0595703125 l 1
 49.1845703125 520.379882812 l 1
EndSplineSet
EndChar

StartChar: w
Encoding: 119 119 90
Width: 816
GlyphClass: 2
Flags: MW
HStem: 0.0595703 21G<108.902 209.069 108.902 108.902 451.695 552.804 451.695 451.695> 500.38 20G<50.1689 168.205 168.205 168.205 407.64 494.313 494.313 494.313 734.732 852.806 852.806 852.806>
LayerCount: 2
Fore
SplineSet
50.1689453125 520.379882812 m 1
 168.205078125 520.379882812 l 1
 200.655273438 163.436523438 l 1
 407.639648438 520.379882812 l 1
 494.313476562 520.379882812 l 1
 537.384765625 163.288085938 l 1
 734.732421875 520.379882812 l 1
 852.805664062 520.379882812 l 1
 552.803710938 0.0595703125 l 1
 451.6953125 0.0595703125 l 1
 410.111328125 345.403320312 l 1
 209.069335938 0.0595703125 l 1
 108.90234375 0.0595703125 l 1
 50.1689453125 520.379882812 l 1
EndSplineSet
EndChar

StartChar: x
Encoding: 120 120 91
Width: 494
GlyphClass: 2
Flags: MW
HStem: 0.0595703 21G<-77.5713 45.0879 -77.5713 -77.5713 298.938 421.612 298.938 298.938> 500.38 20G<51.2422 173.805 173.805 173.805 407.499 530.289 530.289 530.289>
LayerCount: 2
Fore
SplineSet
298.938476562 0.0595703125 m 1
 212.758789062 180.475585938 l 1
 45.087890625 0.0595703125 l 1
 -77.5712890625 0.0595703125 l 1
 171.600585938 265.9921875 l 1
 51.2421875 520.379882812 l 1
 173.8046875 520.379882812 l 1
 252.772460938 354.357421875 l 1
 407.499023438 520.379882812 l 1
 530.2890625 520.379882812 l 1
 292.983398438 268.841796875 l 1
 421.612304688 0.0595703125 l 1
 298.938476562 0.0595703125 l 1
EndSplineSet
EndChar

StartChar: y
Encoding: 121 121 92
Width: 518
GlyphClass: 2
Flags: MW
HStem: -146.82 102.721<-12.9326 12.3125 -36.6475 36.0273> 500.38 20G<48.9922 167.556 167.556 167.556 442.42 558.993 558.993 558.993>
LayerCount: 2
Fore
SplineSet
12.3125 -146.8203125 m 2
 -36.6474609375 -146.8203125 l 1
 -12.9326171875 -44.099609375 l 1
 36.02734375 -44.099609375 l 2
 63.55859375 -44.099609375 83.56640625 -39.796875 95.458984375 -33.61328125 c 0
 114.80078125 -23.5556640625 125.271484375 -5.6201171875 136.791992188 14.1142578125 c 1
 48.9921875 520.379882812 l 1
 167.555664062 520.379882812 l 1
 224.819335938 159.563476562 l 1
 442.419921875 520.379882812 l 1
 558.993164062 520.379882812 l 1
 209.827148438 -39.7119140625 l 2
 165.017578125 -112.013671875 104.010742188 -146.8203125 12.3125 -146.8203125 c 2
EndSplineSet
EndChar

StartChar: z
Encoding: 122 122 93
Width: 506
GlyphClass: 2
Flags: MW
HStem: 0.0595703 100.801<135.57 382.223> 418.62 101.76<69.8955 502.349 93.3887 338.029>
LayerCount: 2
Fore
SplineSet
69.8955078125 418.620117188 m 1
 93.388671875 520.379882812 l 1
 502.348632812 520.379882812 l 1
 480.985351562 427.84765625 l 1
 135.5703125 100.860351562 l 1
 405.494140625 100.860351562 l 1
 382.22265625 0.0595703125 l 1
 -26.7373046875 0.0595703125 l 1
 -5.6025390625 91.60546875 l 1
 338.029296875 418.620117188 l 1
 69.8955078125 418.620117188 l 1
EndSplineSet
EndChar

StartChar: braceleft
Encoding: 123 123 94
Width: 387
GlyphClass: 2
Flags: MW
HStem: -80.5801 98.8799<139.865 268.354 205.953 245.525> 280.664 102.149<38.0469 61.6299> 640.379 98.8799<342.222 434.801 350.32 411.973>
VStem: 141.188 111.36
LayerCount: 2
Fore
SplineSet
161.044921875 -80.580078125 m 2
 118.685546875 -80.580078125 41.9169921875 -68.486328125 67.9375 44.2197265625 c 2
 107.831054688 217.01953125 l 2
 113.940429688 243.482421875 111.4453125 258.78125 105.420898438 266.084960938 c 0
 94.3310546875 279.533203125 62.69140625 280.168945312 38.046875 280.6640625 c 1
 61.6298828125 382.813476562 l 1
 86.50390625 383.309570312 118.436523438 383.9453125 135.735351562 397.392578125 c 0
 145.23046875 404.7734375 154.637695312 419.75390625 160.581054688 445.499023438 c 2
 199.588867188 614.458984375 l 2
 212.60546875 670.83984375 249.227539062 739.258789062 350.3203125 739.258789062 c 2
 434.80078125 739.258789062 l 1
 411.97265625 640.37890625 l 1
 349.572265625 640.37890625 l 2
 334.872070312 640.37890625 326.538085938 636.833984375 322.334960938 633.298828125 c 0
 318.017578125 629.668945312 312.536132812 621.3359375 308.954101562 605.819335938 c 2
 272.606445312 448.37890625 l 2
 257.55078125 383.166015625 237.286132812 352.110351562 202.224609375 331.298828125 c 1
 228.04296875 310.427734375 233.6484375 279.63671875 218.749023438 215.099609375 c 2
 181.29296875 52.8603515625 l 2
 177.709960938 37.3427734375 179.34375 29.009765625 181.984375 25.3798828125 c 0
 184.555664062 21.8447265625 191.252929688 18.2998046875 205.953125 18.2998046875 c 2
 268.353515625 18.2998046875 l 1
 245.525390625 -80.580078125 l 1
 161.044921875 -80.580078125 l 2
EndSplineSet
Substitution2: "'rtla' Right to Left Alternates lookup 0 subtable" braceright
EndChar

StartChar: bar
Encoding: 124 124 95
Width: 302
GlyphClass: 2
Flags: MW
VStem: 106.628 107.52
LayerCount: 2
Fore
SplineSet
193.840820312 739.259765625 m 1
 301.360351562 739.259765625 l 1
 112.306640625 -79.6201171875 l 1
 4.787109375 -79.6201171875 l 1
 193.840820312 739.259765625 l 1
EndSplineSet
EndChar

StartChar: braceright
Encoding: 125 125 96
Width: 387
GlyphClass: 2
Flags: MW
HStem: -80.5801 98.8799<-22.5264 38.165 -45.3545 39.874> 280.66 102.16<328.925 352.51> 640.38 98.8799<143.921 183.492 121.093 227.44>
VStem: 151.749 110.398
LayerCount: 2
Fore
SplineSet
188.897460938 44.2197265625 m 2
 180.612304688 8.3310546875 153.463867188 -80.580078125 38.1650390625 -80.580078125 c 2
 -45.3544921875 -80.580078125 l 1
 -22.5263671875 18.2998046875 l 1
 39.8740234375 18.2998046875 l 2
 54.57421875 18.2998046875 62.9091796875 21.8447265625 67.11328125 25.3798828125 c 0
 71.4296875 29.009765625 76.9111328125 37.3427734375 80.494140625 52.8603515625 c 2
 117.950195312 215.099609375 l 2
 132.846679688 279.624023438 152.6640625 310.422851562 188.126953125 331.298828125 c 1
 162.702148438 352.087890625 156.735351562 383.102539062 171.805664062 448.379882812 c 2
 208.153320312 605.8203125 l 2
 211.736328125 621.336914062 210.102539062 629.669921875 207.461914062 633.299804688 c 0
 204.890625 636.834960938 198.192382812 640.379882812 183.4921875 640.379882812 c 2
 121.092773438 640.379882812 l 1
 143.920898438 739.259765625 l 1
 227.440429688 739.259765625 l 2
 285.762695312 739.259765625 343.986328125 715.984375 320.547851562 614.459960938 c 2
 281.540039062 445.5 l 2
 275.596679688 419.754882812 278.0859375 404.774414062 284.172851562 397.393554688 c 0
 295.262695312 383.948242188 327.975585938 383.303710938 352.509765625 382.8203125 c 1
 328.924804688 280.66015625 l 1
 304.166992188 280.17578125 271.15625 279.53125 253.858398438 266.0859375 c 0
 244.461914062 258.782226562 234.901367188 243.483398438 228.791992188 217.020507812 c 2
 188.897460938 44.2197265625 l 2
EndSplineSet
Substitution2: "'rtla' Right to Left Alternates lookup 0 subtable" braceleft
EndChar

StartChar: asciitilde
Encoding: 126 126 97
Width: 514
GlyphClass: 2
Flags: MW
HStem: 198.781 100.8<290.121 342.198> 257.34 99.8408<155.504 199.207>
LayerCount: 2
Fore
SplineSet
186.271484375 357.180664062 m 0x40
 212.141601562 357.180664062 234.822265625 352.559570312 274.932617188 322.509765625 c 0
 308.495117188 300.948242188 314.860351562 299.581054688 326.57421875 299.581054688 c 0
 357.822265625 299.581054688 375.766601562 322.248046875 406.696289062 362.088867188 c 1
 474.727539062 312.799804688 l 1
 456.6171875 286.525390625 432.680664062 251.795898438 390.963867188 225.572265625 c 0
 362.83203125 207.888671875 333.545898438 198.78125 304.26171875 198.78125 c 0x80
 275.979492188 198.78125 254.331054688 204.922851562 215.232421875 233.7265625 c 0
 188.577148438 254.728515625 176.387695312 257.33984375 165.139648438 257.33984375 c 0
 145.869140625 257.33984375 129.602539062 251.701171875 96.5927734375 209.1796875 c 2
 86.40625 196.057617188 l 1
 16.8251953125 243.884765625 l 1
 35.177734375 270.514648438 59.0458984375 305.14453125 100.1953125 330.891601562 c 0
 127.975585938 348.2734375 157.052734375 357.180664062 186.271484375 357.180664062 c 0x40
EndSplineSet
EndChar

StartChar: exclamdown
Encoding: 161 161 99
Width: 252
GlyphClass: 2
Flags: MW
HStem: 389.82 130.56<109.709 206.286 79.5664 236.429>
VStem: 73.0283 126.72 90.8613 91.083
LayerCount: 2
Fore
SplineSet
109.708984375 520.379882812 m 1xc0
 236.428710938 520.379882812 l 1
 206.286132812 389.8203125 l 1
 79.56640625 389.8203125 l 1
 109.708984375 520.379882812 l 1xc0
172.967773438 322.620117188 m 1xa0
 81.9755859375 -146.8203125 l 1
 -44.9033203125 -146.8203125 l 1
 81.884765625 322.620117188 l 1
 172.967773438 322.620117188 l 1xa0
EndSplineSet
EndChar

StartChar: cent
Encoding: 162 162 100
Width: 558
GlyphClass: 2
Flags: MW
HStem: -6.06445 103.291<166.729 190.574> 423.219 104.248<265.836 289.904>
VStem: 56.708 110.398 251.587 87.3604 408.07 108.478
LayerCount: 2
Fore
SplineSet
277.845703125 96.841796875 m 1
 309.413085938 103.756835938 353.232421875 123.982421875 366.732421875 182.4609375 c 2
 370.944335938 200.701171875 l 1
 479.424804688 200.701171875 l 1
 475.212890625 182.4609375 l 2
 462.841796875 128.875 435.6953125 83.8974609375 393.825195312 49.880859375 c 0
 355.130859375 18.4443359375 308.079101562 0.046875 254.044921875 -6.2568359375 c 1
 233.33984375 -95.939453125 l 1
 145.979492188 -95.939453125 l 1
 166.728515625 -6.064453125 l 1
 100.767578125 3.1611328125 -16.1552734375 45.89453125 27.78515625 236.220703125 c 2
 39.087890625 285.180664062 l 2
 55.5810546875 356.62109375 86.708984375 414.525390625 133.665039062 456.909179688 c 0
 177.209960938 496.211914062 229.889648438 519.581054688 289.904296875 527.466796875 c 1
 310.209960938 615.420898438 l 1
 397.5703125 615.420898438 l 1
 377.307617188 527.655273438 l 1
 428.45703125 521.32421875 466.999023438 502.7421875 491.09765625 470.987304688 c 0
 517.170898438 436.630859375 523.404296875 391.200195312 510.895507812 337.01953125 c 2
 506.463867188 317.8203125 l 1
 397.986328125 317.8203125 l 1
 402.41796875 337.01953125 l 2
 405.83203125 351.805664062 418.11328125 407.799804688 353.284179688 423.599609375 c 1
 277.845703125 96.841796875 l 1
265.8359375 423.21875 m 1
 227.030273438 413.922851562 172.9609375 386.857421875 149.04296875 283.259765625 c 2
 138.625976562 238.139648438 l 2
 114.467773438 133.497070312 156.34375 106.477539062 190.57421875 97.2265625 c 1
 265.8359375 423.21875 l 1
EndSplineSet
EndChar

StartChar: sterling
Encoding: 163 163 101
Width: 507
GlyphClass: 2
Flags: MW
HStem: 0.0605469 107.52<145.663 404.303> 275.581 105.6<41.0918 88.7119 16.7119 113.092 41.0918 204.872 229.252 368.072> 595.261 105.601<347.799 380.121>
VStem: 108.548 116.16 372.548 112.32
LayerCount: 2
Fore
SplineSet
185.811523438 193.020507812 m 2
 176.328125 151.9453125 161.368164062 126.365234375 145.663085938 107.580078125 c 1
 429.125976562 107.580078125 l 1
 404.302734375 0.060546875 l 1
 -24.8173828125 0.060546875 l 1
 -2.3046875 97.5732421875 l 1
 27.3154296875 109.994140625 52.966796875 120.750976562 67.4345703125 183.420898438 c 2
 88.7119140625 275.581054688 l 1
 16.7119140625 275.581054688 l 1
 41.091796875 381.180664062 l 1
 113.091796875 381.180664062 l 1
 139.6875 496.380859375 l 2
 154.391601562 560.0703125 181.794921875 611.109375 223.44921875 647.25390625 c 0
 265.287109375 683.55859375 317.662109375 700.861328125 377.935546875 700.861328125 c 0
 435.317382812 700.861328125 478.275390625 686.279296875 503.995117188 655.1640625 c 0
 529.756835938 623.998046875 535.248046875 579.717773438 522.65625 525.180664062 c 2
 519.33203125 510.78125 l 1
 407.01171875 510.78125 l 1
 410.3359375 525.180664062 l 2
 421.041015625 571.546875 407.645507812 595.260742188 352.595703125 595.260742188 c 0
 317.266601562 595.260742188 275.963867188 583.513671875 258.506835938 507.901367188 c 2
 229.251953125 381.180664062 l 1
 392.452148438 381.180664062 l 1
 368.072265625 275.581054688 l 1
 204.872070312 275.581054688 l 1
 185.811523438 193.020507812 l 2
EndSplineSet
EndChar

StartChar: currency
Encoding: 164 164 102
Width: 608
GlyphClass: 2
Flags: MW
HStem: 119.101 98.8809<262.727 274.239> 431.101 98.8799<331.167 342.783>
VStem: 105.668 101.761 414.788 102.72
LayerCount: 2
Fore
SplineSet
255.14453125 119.100585938 m 0
 216.956054688 119.100585938 183.998046875 128.381835938 156.974609375 146.908203125 c 1
 73.0419921875 79.5234375 l 1
 17.275390625 153.751953125 l 1
 100.240234375 221.155273438 l 1
 89.6083984375 252.772460938 88.5693359375 287.438476562 97.134765625 324.541015625 c 0
 106.03515625 363.08984375 123.263671875 397.947265625 148.765625 428.3046875 c 1
 96.59765625 497.4140625 l 1
 186.467773438 570.427734375 l 1
 239.350585938 502.961914062 l 1
 275.228515625 520.942382812 312.329101562 529.98046875 350.00390625 529.98046875 c 0
 388.080078125 529.98046875 420.801757812 521.020507812 447.442382812 503.044921875 c 1
 532.272460938 570.35546875 l 1
 588.4296875 497.340820312 l 1
 504.440429688 429.10546875 l 1
 516.172851562 397.38671875 517.692382812 362.30078125 508.974609375 324.541015625 c 0
 500.290039062 286.922851562 482.981445312 252.169921875 457.306640625 220.98046875 c 1
 509.752929688 152.791015625 l 1
 419.711914062 78.5615234375 l 1
 366.154296875 146.90625 l 1
 330.577148438 128.380859375 293.333007812 119.100585938 255.14453125 119.100585938 c 0
406.254882812 324.541015625 m 0
 413.497070312 355.91015625 409.529296875 380.71484375 394.787109375 400.981445312 c 0
 380.15234375 421.096679688 358.389648438 431.100585938 327.17578125 431.100585938 c 0
 296.682617188 431.100585938 270.401367188 421.147460938 246.05078125 400.90625 c 0
 221.650390625 380.625 206.125976562 355.856445312 198.895507812 324.541015625 c 0
 191.666015625 293.225585938 195.754882812 268.45703125 210.790039062 248.17578125 c 0
 225.794921875 227.934570312 247.48046875 217.981445312 277.973632812 217.981445312 c 0
 309.1875 217.981445312 335.569335938 227.984375 359.491210938 248.100585938 c 0
 383.591796875 268.3671875 399.012695312 293.171875 406.254882812 324.541015625 c 0
EndSplineSet
EndChar

StartChar: yen
Encoding: 165 165 103
Width: 536
GlyphClass: 2
Flags: MW
HStem: 0.0595703 21G<135.503 251.662 135.503 135.503> 137.34 92.1602<31.9932 167.196 10.7158 188.474 304.633 440.796> 260.22 93.1201<60.584 187.106 60.584 195.565 39.085 187.106 363.121 469.165> 671.26 20G<81.7607 210.796 210.796 210.796 494.511 623.536 623.536 623.536>
VStem: 218.948 116.159
LayerCount: 2
Fore
SplineSet
283.35546875 137.33984375 m 1
 251.662109375 0.0595703125 l 1
 135.502929688 0.0595703125 l 1
 167.196289062 137.33984375 l 1
 10.7158203125 137.33984375 l 1
 31.9931640625 229.5 l 1
 188.473632812 229.5 l 1
 195.565429688 260.219726562 l 1
 39.0849609375 260.219726562 l 1
 60.583984375 353.33984375 l 1
 187.106445312 353.33984375 l 1
 81.7607421875 691.259765625 l 1
 210.795898438 691.259765625 l 1
 288.681640625 410.255859375 l 1
 494.510742188 691.259765625 l 1
 623.536132812 691.259765625 l 1
 363.12109375 353.33984375 l 1
 490.6640625 353.33984375 l 1
 469.165039062 260.219726562 l 1
 311.724609375 260.219726562 l 1
 304.6328125 229.5 l 1
 462.073242188 229.5 l 1
 440.795898438 137.33984375 l 1
 283.35546875 137.33984375 l 1
EndSplineSet
EndChar

StartChar: brokenbar
Encoding: 166 166 104
Width: 302
GlyphClass: 2
Flags: MW
VStem: 106.628 107.52
LayerCount: 2
Fore
SplineSet
190.516601562 724.860351562 m 1
 298.036132812 724.860351562 l 1
 213.37109375 358.139648438 l 1
 105.8515625 358.139648438 l 1
 190.516601562 724.860351562 l 1
92.9970703125 302.459960938 m 1
 200.516601562 302.459960938 l 1
 115.630859375 -65.2197265625 l 1
 8.111328125 -65.2197265625 l 1
 92.9970703125 302.459960938 l 1
EndSplineSet
EndChar

StartChar: section
Encoding: 167 167 105
Width: 563
GlyphClass: 2
Flags: MW
HStem: -161.22 100.798<150.539 227.818> 613.501 100.8<345.664 387.156>
VStem: 75.9082 111.358 90.3066 107.521 99.9092 111.358 373.508 111.36 391.747 111.36
LayerCount: 2
Fore
SplineSet
401.866210938 1.98046875 m 0xc4
 378.670898438 -98.4912109375 289.208007812 -161.219726562 166.427734375 -161.219726562 c 0
 105.38671875 -161.219726562 59.7255859375 -146.795898438 31.994140625 -115.831054688 c 0
 4.20703125 -84.8037109375 -2.5419921875 -40.6728515625 9.9638671875 13.498046875 c 2
 13.2880859375 27.8984375 l 1
 120.80859375 27.8984375 l 1
 117.484375 13.498046875 l 2xd4
 109.61328125 -20.5947265625 111.37890625 -60.421875 189.698242188 -60.421875 c 0
 271.692382812 -60.421875 285.830078125 -18.2724609375 290.727539062 2.939453125 c 0
 296.638671875 28.5439453125 291.565429688 44.310546875 276.543945312 54.94921875 c 0
 255.03515625 70.1826171875 222.59375 79.0966796875 178.884765625 89.7041015625 c 0
 125.548828125 102.6484375 24.6943359375 139.666992188 56.072265625 275.580078125 c 0xe4
 62.6865234375 304.23046875 86.017578125 387.163085938 179.142578125 431.182617188 c 1
 145.46875 455.575195312 130.612304688 494.491210938 144.125 553.020507812 c 0
 155.306640625 601.451171875 182.46875 641.795898438 224.608398438 671.145507812 c 0
 266.642578125 700.424804688 317.009765625 714.30078125 374.318359375 714.30078125 c 0
 433.458984375 714.30078125 477.654296875 700.180664062 504.252929688 669.783203125 c 0
 530.791015625 639.454101562 537.317382812 597 525.391601562 545.340820312 c 2
 522.06640625 530.94140625 l 1
 414.545898438 530.94140625 l 1
 417.87109375 545.340820312 l 2
 424.950195312 576.00390625 424.225585938 613.500976562 350.086914062 613.500976562 c 0
 299.466796875 613.500976562 265.305664062 595.56640625 255.483398438 553.020507812 c 0
 244.952148438 507.404296875 269.079101562 488.853515625 363.823242188 468.200195312 c 0
 394.72265625 460.51171875 435.1484375 445.16015625 465.944335938 410.657226562 c 0
 492.204101562 381.237304688 497.53125 337.345703125 484.822265625 282.298828125 c 0xca
 473.952148438 235.213867188 444.516601562 165.326171875 364.823242188 127.446289062 c 1
 401.939453125 100.381835938 415.356445312 60.4140625 401.866210938 1.98046875 c 0xc4
250.203125 189.177734375 m 0
 304.432617188 189.177734375 356.538085938 208.993164062 372.575195312 278.45703125 c 0
 380.192382812 311.453125 384.102539062 368.697265625 291.6484375 368.697265625 c 0
 202.551757812 368.697265625 177.088867188 317.415039062 168.094726562 278.45703125 c 0xe2
 159.4140625 240.858398438 159.783203125 189.177734375 250.203125 189.177734375 c 0
EndSplineSet
EndChar

StartChar: dieresis
Encoding: 168 168 106
Width: 506
GlyphClass: 2
Flags: MW
HStem: 557.82 120<175.816 258.512 148.112 286.216 175.816 354.512 382.216 463.952>
VStem: 102.788 110.399 309.188 109.44
LayerCount: 2
Fore
SplineSet
175.81640625 677.8203125 m 1
 286.215820312 677.8203125 l 1
 258.51171875 557.8203125 l 1
 148.112304688 557.8203125 l 1
 175.81640625 677.8203125 l 1
382.215820312 677.8203125 m 1
 491.65625 677.8203125 l 1
 463.952148438 557.8203125 l 1
 354.51171875 557.8203125 l 1
 382.215820312 677.8203125 l 1
EndSplineSet
EndChar

StartChar: copyright
Encoding: 169 169 107
Width: 800
GlyphClass: 2
Flags: MW
HStem: -8.58008 85.4404<266.777 356.011> 142.141 83.5205<358.802 397.854 358.802 413.841> 459.901 84.4795<426.514 447.363> 605.821 86.3984<384.824 545.318>
VStem: 65.3477 90.2402 231.429 93.1201 485.829 91.1992 659.589 90.2393
LayerCount: 2
Fore
SplineSet
322.627929688 -8.580078125 m 0
 120.209960938 -8.580078125 12.0615234375 130.692382812 60.8037109375 341.8203125 c 0
 109.541015625 552.922851562 281.977539062 692.219726562 484.419921875 692.219726562 c 0
 688.579101562 692.219726562 793.428710938 550.35546875 745.284179688 341.8203125 c 0
 729.458984375 273.271484375 701.325195312 212.24609375 660.64453125 159.333007812 c 0
 620.028320312 106.504882812 569.940429688 64.9794921875 511.264648438 35.5283203125 c 0
 452.477539062 6.0205078125 389.39453125 -8.580078125 322.627929688 -8.580078125 c 0
342.353515625 76.8603515625 m 0
 501.594726562 76.8603515625 619.016601562 185.763671875 655.045898438 341.821289062 c 0
 690.6484375 496.032226562 626.162109375 605.821289062 464.473632812 605.821289062 c 0
 305.174804688 605.821289062 187.451171875 499.516601562 151.044921875 341.821289062 c 0
 112.71484375 175.797851562 191.201171875 76.8603515625 342.353515625 76.8603515625 c 0
558.522460938 281.340820312 m 2
 539.903320312 200.696289062 467.376953125 142.140625 360.305664062 142.140625 c 0
 307.028320312 142.140625 266.299804688 157.359375 240.659179688 188.857421875 c 0
 214.6875 220.760742188 209.524414062 266.62109375 222.674804688 323.581054688 c 2
 231.76171875 362.94140625 l 2
 244.775390625 419.3125 271.108398438 464.963867188 311.770507812 497.127929688 c 0
 352.0234375 528.96875 399.857421875 544.380859375 453.170898438 544.380859375 c 0
 502.7421875 544.380859375 540.928710938 532.629882812 565.640625 507.500976562 c 0
 590.448242188 482.275390625 597.767578125 447.170898438 588.073242188 405.180664062 c 2
 583.862304688 386.94140625 l 1
 491.702148438 386.94140625 l 1
 495.69140625 404.220703125 l 2
 500.049804688 423.096679688 496.876953125 435.4375 487.096679688 444.67578125 c 0
 476.96875 454.244140625 460.099609375 459.901367188 434.626953125 459.901367188 c 0
 364.170898438 459.901367188 336.563476562 413.541015625 324.438476562 361.020507812 c 2
 316.237304688 325.500976562 l 2
 297.029296875 242.30078125 336.095703125 225.661132812 381.5078125 225.661132812 c 0
 414.201171875 225.661132812 456.637695312 235.056640625 467.323242188 281.340820312 c 2
 471.534179688 299.581054688 l 1
 562.733398438 299.581054688 l 1
 558.522460938 281.340820312 l 2
EndSplineSet
EndChar

StartChar: ordfeminine
Encoding: 170 170 108
Width: 391
GlyphClass: 2
Flags: MW
HStem: 409.021 84.4805<165.841 246.482> 543.421 75.8398<223.82 312.057 241.977 294.545> 665.34 81.6006<259.433 293.704>
VStem: 48.0674 95.04 255.428 94.0801
LayerCount: 2
Fore
SplineSet
290.653320312 746.940429688 m 0
 320.564453125 746.940429688 438.313476562 746.16015625 409.459960938 621.1796875 c 2
 361.365234375 412.861328125 l 1
 267.28515625 412.861328125 l 1
 271.13671875 429.543945312 l 1
 244.984375 415.749023438 215.923828125 409.020507812 184.798828125 409.020507812 c 0
 146.8828125 409.020507812 117.625 417.61328125 99.36328125 436.92578125 c 0
 81.1142578125 456.224609375 76.2236328125 483.459960938 83.6396484375 515.581054688 c 0
 91.5537109375 549.858398438 121.005859375 619.260742188 241.9765625 619.260742188 c 2
 312.056640625 619.260742188 l 1
 313.38671875 625.020507812 l 2
 317.600585938 643.2734375 318.473632812 665.33984375 268.934570312 665.33984375 c 0
 249.931640625 665.33984375 236.1328125 662.00390625 227.614257812 657.399414062 c 0
 219.3671875 652.94140625 216.125 648.661132812 214.435546875 641.33984375 c 2
 210.666992188 625.01953125 l 1
 118.506835938 625.01953125 l 1
 122.275390625 641.33984375 l 2
 133.619140625 690.475585938 178.619140625 746.940429688 290.653320312 746.940429688 c 0
234.068359375 543.420898438 m 2
 213.571289062 543.420898438 199.349609375 540.03125 191.970703125 536.000976562 c 0
 185.291015625 532.352539062 181.541015625 527.974609375 179.344726562 518.4609375 c 0
 177.04296875 508.491210938 178.9609375 503.766601562 185.90625 499.657226562 c 0
 191.940429688 496.0859375 203.075195312 493.500976562 219.662109375 493.500976562 c 0
 273.302734375 493.500976562 287.8203125 515.369140625 294.544921875 543.420898438 c 1
 234.068359375 543.420898438 l 2
103.892578125 686.4609375 m 1024
EndSplineSet
EndChar

StartChar: guillemotleft
Encoding: 171 171 109
Width: 557
GlyphClass: 2
Flags: W
LayerCount: 2
Fore
SplineSet
312.525390625 496.545898438 m 1
 283.483398438 370.752929688 l 1
 140.645507812 267.900390625 l 1
 235.993164062 165.046875 l 1
 206.951171875 39.25390625 l 1
 -0.1376953125 267.900390625 l 1
 312.525390625 496.545898438 l 1
532.365234375 496.545898438 m 1
 503.323242188 370.752929688 l 1
 360.485351562 267.900390625 l 1
 455.833007812 165.046875 l 1
 426.791015625 39.25390625 l 1
 219.702148438 267.900390625 l 1
 532.365234375 496.545898438 l 1
EndSplineSet
EndChar

StartChar: logicalnot
Encoding: 172 172 110
Width: 514
GlyphClass: 2
Flags: MW
HStem: 250.62 102.72<55.7842 336.39 32.0693 471.464>
VStem: 361.988 111.359
LayerCount: 2
Fore
SplineSet
336.389648438 250.620117188 m 1
 32.0693359375 250.620117188 l 1
 55.7841796875 353.33984375 l 1
 471.463867188 353.33984375 l 1
 418.493164062 123.900390625 l 1
 307.133789062 123.900390625 l 1
 336.389648438 250.620117188 l 1
EndSplineSet
EndChar

StartChar: uni00AD
Encoding: 173 173 111
Width: 430
GlyphClass: 2
Flags: MW
HStem: 293.82 106.56<65.6836 375.163 41.083 399.764>
LayerCount: 2
Fore
SplineSet
65.68359375 400.379882812 m 1
 399.763671875 400.379882812 l 1
 375.163085938 293.8203125 l 1
 41.0830078125 293.8203125 l 1
 65.68359375 400.379882812 l 1
EndSplineSet
EndChar

StartChar: registered
Encoding: 174 174 112
Width: 524
GlyphClass: 2
Flags: MW
HStem: 294.78 61.4395<248.81 288.406 248.81 309.7> 548.221 63.3594<298.535 321.575 298.535 298.535> 629.82 61.4395<311.975 351.219>
VStem: 75.9082 64.3184 187.268 68.1602 295.748 67.2002 401.348 63.3604
LayerCount: 2
Fore
SplineSet
254.424804688 294.780273438 m 0
 142.622070312 294.780273438 79.798828125 378.3515625 106.3828125 493.5 c 0
 133.106445312 609.25390625 236.694335938 691.259765625 345.958984375 691.259765625 c 0
 460.251953125 691.259765625 520.673828125 603.916015625 495.182617188 493.5 c 0
 468.12109375 376.282226562 364.975585938 294.780273438 254.424804688 294.780273438 c 0
431.822265625 493.5 m 0
 441.303710938 534.5703125 436.23046875 566.645507812 417.366210938 591.91796875 c 0
 398.461914062 617.245117188 370.6640625 629.8203125 331.774414062 629.8203125 c 0
 292.17578125 629.8203125 258.864257812 617.215820312 229.381835938 592.103515625 c 0
 199.75 566.866210938 180.211914062 534.6953125 170.701171875 493.5 c 0
 161.030273438 451.610351562 165.68359375 419.130859375 183.630859375 393.936523438 c 0
 201.518554688 368.82421875 229.010742188 356.219726562 268.609375 356.219726562 c 0
 308.203125 356.219726562 341.919921875 368.8359375 372.107421875 394.060546875 c 0
 402.287109375 419.278320312 422.169921875 451.693359375 431.822265625 493.5 c 0
403.174804688 535.741210938 m 0
 396.946289062 508.763671875 381.076171875 486.723632812 357.458984375 472.946289062 c 1
 379.512695312 377.33984375 l 1
 357.004882812 377.33984375 l 1
 315.724609375 377.33984375 l 1
 306.5390625 377.33984375 l 1
 287.200195312 459.900390625 l 1
 278.145507812 459.900390625 l 1
 259.084960938 377.33984375 l 1
 190.924804688 377.33984375 l 1
 245.002929688 611.580078125 l 1
 338.123046875 611.580078125 l 2
 362.125976562 611.580078125 381.459960938 605.727539062 393.6015625 592.08984375 c 0
 405.909179688 578.266601562 408.416992188 558.446289062 403.174804688 535.741210938 c 0
335.974609375 535.741210938 m 0
 337.307617188 541.513671875 338.85546875 548.220703125 321.575195312 548.220703125 c 2
 298.53515625 548.220703125 l 1
 292.551757812 522.30078125 l 1
 315.591796875 522.30078125 l 2
 332.772460938 522.30078125 334.509765625 529.39453125 335.974609375 535.741210938 c 0
EndSplineSet
EndChar

StartChar: macron
Encoding: 175 175 113
Width: 506
GlyphClass: 2
Flags: MW
HStem: 566.46 102.72<171.901 469.786 148.187 493.501>
VStem: 100.868 321.6
LayerCount: 2
Fore
SplineSet
171.901367188 669.1796875 m 1
 493.500976562 669.1796875 l 1
 469.786132812 566.459960938 l 1
 148.186523438 566.459960938 l 1
 171.901367188 669.1796875 l 1
EndSplineSet
EndChar

StartChar: degree
Encoding: 176 176 114
Width: 410
GlyphClass: 2
Flags: MW
HStem: 402.3 83.5205<233.962 253.276 233.962 267.356> 619.26 81.6006<272.292 284.084>
VStem: 65.3467 85.4414 278.468 85.4404
LayerCount: 2
Fore
SplineSet
407.90234375 552.059570312 m 0
 388.758789062 469.140625 310.184570312 402.299804688 224.52734375 402.299804688 c 0
 182.153320312 402.299804688 149.021484375 416.747070312 127.2890625 445.463867188 c 0
 105.625976562 474.087890625 99.701171875 510.305664062 109.340820312 552.059570312 c 0
 118.98046875 593.8125 141.606445312 629.912109375 176.474609375 658.240234375 c 0
 211.403320312 686.618164062 251.12890625 700.860351562 293.455078125 700.860351562 c 0
 334.63671875 700.860351562 367.208007812 686.526367188 389.266601562 658.303710938 c 0
 411.397460938 629.991210938 417.552734375 593.861328125 407.90234375 552.059570312 c 0
322.461914062 552.059570312 m 0
 327.216796875 572.655273438 324.702148438 588.155273438 315.606445312 600.66015625 c 0
 306.494140625 613.185546875 293.551757812 619.259765625 274.616210938 619.259765625 c 0
 254.923828125 619.259765625 238.866210938 613.095703125 224.079101562 600.66015625 c 0
 209.208007812 588.155273438 199.537109375 572.655273438 194.782226562 552.059570312 c 0
 190.19921875 532.2109375 192.703125 517.006835938 201.859375 504.419921875 c 0
 210.90625 491.984375 224.116210938 485.8203125 243.80859375 485.8203125 c 0
 262.744140625 485.8203125 278.491210938 491.89453125 293.385742188 504.419921875 c 0
 308.354492188 517.006835938 317.87890625 532.2109375 322.461914062 552.059570312 c 0
EndSplineSet
EndChar

StartChar: plusminus
Encoding: 177 177 115
Width: 514
GlyphClass: 2
Flags: MW
HStem: -10.5 106.56<-3.61426 387.465 -28.2148 412.065> 268.86 106.56<60.8818 190.84 36.2803 215.441 322.002 451.96 60.8818 297.4>
VStem: 212.228 106.561
LayerCount: 2
Fore
SplineSet
297.400390625 268.860351562 m 1
 261.717773438 114.299804688 l 1
 155.157226562 114.299804688 l 1
 190.83984375 268.860351562 l 1
 36.2802734375 268.860351562 l 1
 60.8818359375 375.419921875 l 1
 215.44140625 375.419921875 l 1
 251.124023438 529.98046875 l 1
 357.684570312 529.98046875 l 1
 322.001953125 375.419921875 l 1
 476.561523438 375.419921875 l 1
 451.959960938 268.860351562 l 1
 297.400390625 268.860351562 l 1
-3.6142578125 96.0595703125 m 1
 412.065429688 96.0595703125 l 1
 387.46484375 -10.5 l 1
 -28.21484375 -10.5 l 1
 -3.6142578125 96.0595703125 l 1
EndSplineSet
EndChar

StartChar: uni00B2
Encoding: 178 178 116
Width: 385
GlyphClass: 2
Flags: MW
HStem: 412.86 93.1201<240.444 362.325> 697.02 21G<129.369 230.169 129.369 129.369> 758.461 90.2393<269.675 308.963>
VStem: 51.9082 100.8 244.868 103.679
LayerCount: 2
Fore
SplineSet
134.688476562 720.059570312 m 2
 152.193359375 795.883789062 216.713867188 848.700195312 314.146484375 848.700195312 c 0
 358.004882812 848.700195312 391.794921875 838.032226562 413.198242188 814.96484375 c 0
 434.609375 791.888671875 440.530273438 759.92578125 431.770507812 721.98046875 c 2
 429.997070312 714.299804688 l 2
 419.415039062 668.465820312 391.595703125 635.227539062 339.779296875 590.920898438 c 2
 240.444335938 505.98046875 l 1
 383.823242188 505.98046875 l 1
 362.325195312 412.860351562 l 1
 67.60546875 412.860351562 l 1
 85.5625 490.639648438 l 1
 280.227539062 654.403320312 l 2
 314.915039062 682.584960938 322.661132812 698.459960938 326.096679688 713.340820312 c 2
 327.426757812 719.100585938 l 2
 332.802734375 742.38671875 326.532226562 758.4609375 291.393554688 758.4609375 c 0
 247.95703125 758.4609375 238.645507812 733.737304688 235.044921875 718.139648438 c 2
 230.168945312 697.01953125 l 1
 129.369140625 697.01953125 l 1
 134.688476562 720.059570312 l 2
EndSplineSet
EndChar

StartChar: uni00B3
Encoding: 179 179 117
Width: 383
GlyphClass: 2
Flags: MW
HStem: 407.1 89.2783<202.859 251.547 202.859 256.873> 588.538 91.2002<227.138 243.522 206.083 264.577> 758.458 90.2402<288.737 308.373>
VStem: 50.9473 95.04 247.747 100.801
LayerCount: 2
Fore
SplineSet
388.99609375 536.69921875 m 2
 371.399414062 460.482421875 305.389648438 407.099609375 208.35546875 407.099609375 c 0
 164.069335938 407.099609375 130.10546875 416.951171875 108.607421875 438.677734375 c 0
 86.9375 460.579101562 81.1005859375 492.107421875 89.84375 529.978515625 c 2
 94.94140625 552.05859375 l 1
 189.981445312 552.05859375 l 1
 185.327148438 531.8984375 l 2
 182.65234375 520.315429688 177.711914062 496.377929688 228.005859375 496.377929688 c 0
 275.087890625 496.377929688 284.223632812 519.498046875 288.194335938 536.698242188 c 2
 289.967773438 544.377929688 l 2
 295.28125 567.395507812 293.1796875 588.538085938 243.522460938 588.538085938 c 2
 206.083007812 588.538085938 l 1
 227.137695312 679.73828125 l 1
 264.577148438 679.73828125 l 2
 312.924804688 679.73828125 319.876953125 703.034179688 322.919921875 716.217773438 c 2
 324.471679688 722.938476562 l 2
 327.791992188 737.321289062 330.154296875 758.458007812 286.591796875 758.458007812 c 0
 268.643554688 758.458007812 256.006835938 754.583984375 247.723632812 749.061523438 c 0
 239.689453125 743.705078125 234.546875 736.776367188 231.794921875 724.858398438 c 2
 226.918945312 703.73828125 l 1
 131.87890625 703.73828125 l 1
 136.754882812 724.858398438 l 2
 145.499023438 762.733398438 165.907226562 794.362304688 197.676757812 816.564453125 c 0
 229.173828125 838.577148438 267.16796875 848.698242188 310.305664062 848.698242188 c 0
 353.353515625 848.698242188 386.5390625 838.96875 407.750976562 817.614257812 c 0
 428.994140625 796.224609375 435.263671875 766.215820312 427.045898438 730.619140625 c 2
 425.272460938 722.939453125 l 2
 417.171875 687.849609375 396.845703125 659.555664062 366.482421875 640.268554688 c 1
 388.874023438 622.94140625 402.182617188 593.819335938 390.990234375 545.338867188 c 2
 388.99609375 536.69921875 l 2
EndSplineSet
EndChar

StartChar: acute
Encoding: 180 180 118
Width: 506
GlyphClass: 2
Flags: MW
HStem: 553.98 151.68<187.093 494.835>
VStem: 142.655 272.725
LayerCount: 2
Fore
SplineSet
351.275390625 705.66015625 m 1
 494.834960938 705.66015625 l 1
 299.842773438 553.98046875 l 1
 187.092773438 553.98046875 l 1
 351.275390625 705.66015625 l 1
EndSplineSet
EndChar

StartChar: uni00B5
Encoding: 181 181 119
Width: 575
GlyphClass: 2
Flags: MW
HStem: -5.7002 100.799<212.192 221.581> 500.38 20G<107.788 218.188 218.188 218.188 444.748 556.108 556.108 556.108>
VStem: 71.1074 110.4 408.067 111.36
LayerCount: 2
Fore
SplineSet
218.188476562 520.379882812 m 1
 145.4921875 205.499023438 l 2
 136.77734375 167.751953125 140.818359375 141.236328125 155.237304688 123.189453125 c 0
 169.8359375 104.91796875 193.98046875 95.0986328125 230.404296875 95.0986328125 c 0
 268.444335938 95.0986328125 298.578125 106.231445312 323.364257812 127.489257812 c 0
 348.146484375 148.745117188 366.032226562 179.42578125 375.819335938 221.8203125 c 2
 444.748046875 520.379882812 l 1
 556.108398438 520.379882812 l 1
 435.982421875 0.0595703125 l 1
 326.54296875 0.0595703125 l 1
 335.806640625 40.18359375 l 1
 294.870117188 9.6337890625 247.548828125 -5.7001953125 195.612304688 -5.7001953125 c 0
 156.567382812 -5.7001953125 124.943359375 1.6240234375 102.0234375 17.216796875 c 1
 64.15234375 -146.8203125 l 1
 -46.248046875 -146.8203125 l 1
 107.788085938 520.379882812 l 1
 218.188476562 520.379882812 l 1
EndSplineSet
EndChar

StartChar: paragraph
Encoding: 182 182 120
Width: 681
GlyphClass: 2
Flags: MW
HStem: 589.5 101.76<477.025 477.025 477.025 532.705>
VStem: 75.9072 348.48 318.788 105.6 480.067 105.601
LayerCount: 2
Fore
SplineSet
477.025390625 589.5 m 1xb0
 307.032226562 -146.8203125 l 1
 201.432617188 -146.8203125 l 1
 294.997070312 258.451171875 l 1xb0
 221.7421875 260.262695312 166.943359375 278.348632812 132.5625 314.502929688 c 0
 96.17578125 352.767578125 86.4326171875 407.091796875 101.94921875 474.299804688 c 0xd0
 117.567382812 541.94921875 151.455078125 596.504882812 203.9140625 634.873046875 c 0
 256.10546875 673.046875 319.989257812 691.259765625 393.958984375 691.259765625 c 2
 661.798828125 691.259765625 l 1
 468.3125 -146.8203125 l 1
 362.711914062 -146.8203125 l 1
 532.705078125 589.5 l 1
 477.025390625 589.5 l 1xb0
EndSplineSet
EndChar

StartChar: periodcentered
Encoding: 183 183 121
Width: 213
GlyphClass: 2
Flags: MW
HStem: 210.3 131.521<48.3242 144.681 17.9609 175.044>
VStem: 52.8682 126.72
LayerCount: 2
Fore
SplineSet
48.32421875 341.8203125 m 1
 175.043945312 341.8203125 l 1
 144.680664062 210.299804688 l 1
 17.9609375 210.299804688 l 1
 48.32421875 341.8203125 l 1
EndSplineSet
EndChar

StartChar: cedilla
Encoding: 184 184 122
Width: 506
GlyphClass: 2
Flags: MW
HStem: -145.86 186.24<35.8906 276.302 35.8906 276.302>
VStem: 153.024 197.414
LayerCount: 2
Fore
SplineSet
276.301757812 40.3798828125 m 1
 151.541015625 -145.860351562 l 1
 35.890625 -145.860351562 l 1
 175.4140625 40.3798828125 l 1
 276.301757812 40.3798828125 l 1
EndSplineSet
EndChar

StartChar: uni00B9
Encoding: 185 185 123
Width: 278
GlyphClass: 2
Flags: MW
VStem: 125.828 103.68
LayerCount: 2
Fore
SplineSet
116.362304688 673.952148438 m 1
 142.168945312 785.731445312 l 1
 247.100585938 841.98046875 l 1
 340.435546875 841.98046875 l 1
 241.365234375 412.860351562 l 1
 137.685546875 412.860351562 l 1
 209.709960938 724.83203125 l 1
 116.362304688 673.952148438 l 1
EndSplineSet
EndChar

StartChar: ordmasculine
Encoding: 186 186 124
Width: 391
GlyphClass: 2
Flags: MW
HStem: 409.02 90.2402<218.188 238.867> 656.7 90.2412<270.48 289.311>
VStem: 50.9482 96.96 261.188 97.9199
LayerCount: 2
Fore
SplineSet
97.1591796875 561.661132812 m 2
 104.916015625 595.260742188 l 2
 115.719726562 642.05859375 137.822265625 680.37109375 172.19140625 707.403320312 c 0
 206.294921875 734.2265625 247.42578125 746.94140625 293.534179688 746.94140625 c 0
 339.649414062 746.94140625 375.022460938 734.223632812 397.047851562 707.467773438 c 0
 419.28515625 680.453125 423.889648438 642.1015625 413.075195312 595.260742188 c 2
 405.318359375 561.661132812 l 2
 394.37890625 514.278320312 372.249023438 475.635742188 337.821289062 448.557617188 c 0
 303.662109375 421.690429688 262.21484375 409.01953125 215.518554688 409.01953125 c 0
 168.829101562 409.01953125 133.344726562 421.686523438 111.899414062 448.624023438 c 0
 90.328125 475.71875 86.2294921875 514.319335938 97.1591796875 561.661132812 c 2
236.352539062 499.259765625 m 0
 272.689453125 499.259765625 296.993164062 516.590820312 307.3984375 561.66015625 c 2
 315.155273438 595.259765625 l 2
 325.989257812 642.186523438 305.921875 656.700195312 272.700195312 656.700195312 c 0
 239.479492188 656.700195312 212.709960938 642.1875 201.875976562 595.259765625 c 2
 194.119140625 561.66015625 l 2
 183.711914062 516.58203125 200.0234375 499.259765625 236.352539062 499.259765625 c 0
101.010742188 686.459960938 m 1024
EndSplineSet
EndChar

StartChar: guillemotright
Encoding: 187 187 125
Width: 557
GlyphClass: 2
Flags: W
LayerCount: 2
Fore
SplineSet
73.2431640625 370.752929688 m 1
 102.264648438 496.456054688 l 1
 310.38671875 267.900390625 l 1
 -3.2685546875 39.34375 l 1
 25.7529296875 165.046875 l 1
 168.590820312 267.900390625 l 1
 73.2431640625 370.752929688 l 1
293.083984375 370.752929688 m 1
 322.10546875 496.456054688 l 1
 530.227539062 267.900390625 l 1
 216.572265625 39.34375 l 1
 245.59375 165.046875 l 1
 388.431640625 267.900390625 l 1
 293.083984375 370.752929688 l 1
EndSplineSet
EndChar

StartChar: onequarter
Encoding: 188 188 126
Width: 802
GlyphClass: 3
Flags: MW
HStem: 0.0595703 21G<42.0459 42.0459 42.0459 144.974 548.303 548.303 548.303 651.982> 67.2598 93.1201<513.428 563.817 688.995 706.857 513.428 667.497> 522.431 21G<70.8213 70.8213> 673.18 20G<582.681 686.609 686.609 686.609>
VStem: 116.228 103.681 631.748 103.68
LayerCount: 2
Fore
SplineSet
42.0458984375 0.0595703125 m 1
 582.680664062 693.1796875 l 1
 686.609375 693.1796875 l 1
 144.973632812 0.0595703125 l 1
 42.0458984375 0.0595703125 l 1
70.8212890625 522.430664062 m 1
 96.82421875 635.060546875 l 1
 202.744140625 691.259765625 l 1
 296.0390625 691.259765625 l 1
 196.96875 262.139648438 l 1
 93.2880859375 262.139648438 l 1
 165.127929688 573.310546875 l 1
 70.8212890625 522.430664062 l 1
688.995117188 160.379882812 m 1
 728.35546875 160.379882812 l 1
 706.857421875 67.259765625 l 1
 667.497070312 67.259765625 l 1
 651.982421875 0.0595703125 l 1
 548.302734375 0.0595703125 l 1
 563.817382812 67.259765625 l 1
 378.537109375 67.259765625 l 1
 397.491210938 149.360351562 l 1
 601.002929688 429.1796875 l 1
 707.965820312 429.1796875 l 1
 513.427734375 160.379882812 l 1
 585.315429688 160.379882812 l 1
 606.37109375 251.580078125 l 1
 710.05078125 251.580078125 l 1
 688.995117188 160.379882812 l 1
EndSplineSet
Ligature2: "'frac' Diagonal Fractions lookup 2 subtable" one slash four
EndChar

StartChar: onehalf
Encoding: 189 189 127
Width: 813
GlyphClass: 3
Flags: MW
HStem: 0.0595703 93.1201<569.463 691.343> 345.66 90.2402<598.692 637.98> 522.431 21G<70.8213 70.8213> 673.18 20G<577.881 681.81 681.81 681.81>
VStem: 116.228 103.681 476.228 100.801 669.188 103.68
LayerCount: 2
Fore
SplineSet
577.880859375 693.1796875 m 1
 681.809570312 693.1796875 l 1
 140.172851562 0.0595703125 l 1
 37.24609375 0.0595703125 l 1
 577.880859375 693.1796875 l 1
70.8212890625 522.430664062 m 1
 96.82421875 635.060546875 l 1
 202.744140625 691.259765625 l 1
 296.0390625 691.259765625 l 1
 196.96875 262.139648438 l 1
 93.2880859375 262.139648438 l 1
 165.127929688 573.310546875 l 1
 70.8212890625 522.430664062 l 1
463.705078125 307.259765625 m 2
 481.2109375 383.083984375 545.731445312 435.900390625 643.165039062 435.900390625 c 0
 687.0234375 435.900390625 720.813476562 425.231445312 742.21484375 402.165039062 c 0
 763.626953125 379.088867188 769.548828125 347.125976562 760.788085938 309.1796875 c 2
 759.014648438 301.5 l 2
 748.434570312 255.671875 720.625 222.438476562 668.797851562 178.12109375 c 2
 569.462890625 93.1796875 l 1
 712.841796875 93.1796875 l 1
 691.342773438 0.0595703125 l 1
 396.622070312 0.0595703125 l 1
 414.579101562 77.83984375 l 1
 609.244140625 241.602539062 l 2
 643.931640625 269.784179688 651.677734375 285.659179688 655.11328125 300.540039062 c 2
 656.443359375 306.299804688 l 2
 661.819335938 329.5859375 655.549804688 345.66015625 620.41015625 345.66015625 c 0
 576.974609375 345.66015625 567.663085938 320.936523438 564.0625 305.33984375 c 2
 559.186523438 284.219726562 l 1
 458.385742188 284.219726562 l 1
 463.705078125 307.259765625 l 2
EndSplineSet
Ligature2: "'frac' Diagonal Fractions lookup 2 subtable" one slash two
EndChar

StartChar: threequarters
Encoding: 190 190 128
Width: 902
GlyphClass: 3
Flags: MW
HStem: 0.0595703 21G<140.926 140.926 140.926 243.854 647.183 647.183 647.183 750.862> 67.2598 93.1201<612.308 662.697 787.875 805.737 612.308 766.377> 255.42 90.2402<166.812 195.3> 437.82 90.2393<191.162 208.729 170.329 228.602> 607.74 90.2393<252.982 273.307>
VStem: 49.9893 95.0391 247.749 99.8389 730.628 103.68
LayerCount: 2
Fore
SplineSet
331.712890625 489.565429688 m 1
 354.090820312 471.983398438 366.263671875 442.39453125 355.012695312 393.659179688 c 2
 353.017578125 385.01953125 l 2
 343.958984375 345.78125 322.567382812 312.935546875 289.357421875 289.521484375 c 0
 256.422851562 266.301757812 217.26171875 255.419921875 173.338867188 255.419921875 c 0
 128.418945312 255.419921875 94.11328125 265.422851562 72.6669921875 287.553710938 c 0
 51.1494140625 309.755859375 45.3447265625 341.384765625 54.0888671875 379.259765625 c 2
 58.96484375 400.379882812 l 1
 154.00390625 400.379882812 l 1
 149.349609375 380.219726562 l 2
 147.35546875 371.58203125 141.37109375 345.66015625 192.251953125 345.66015625 c 0
 241.372070312 345.66015625 249.620117188 369.604492188 253.178710938 385.01953125 c 2
 255.173828125 393.66015625 l 2
 259.380859375 411.883789062 261.366210938 437.8203125 208.728515625 437.8203125 c 2
 170.329101562 437.8203125 l 1
 191.162109375 528.059570312 l 1
 228.6015625 528.059570312 l 2
 277.65625 528.059570312 284.954101562 551.762695312 288.125 565.5 c 2
 289.676757812 572.219726562 l 2
 292.856445312 585.991210938 295.775390625 607.740234375 250.837890625 607.740234375 c 0
 206.201171875 607.740234375 199.403320312 584.548828125 196.778320312 573.178710938 c 2
 192.124023438 553.01953125 l 1
 96.1240234375 553.01953125 l 1
 101 574.138671875 l 2
 109.744140625 612.014648438 130.15234375 643.642578125 161.921875 665.845703125 c 0
 193.418945312 687.858398438 231.413085938 697.979492188 274.55078125 697.979492188 c 0
 317.607421875 697.979492188 350.904296875 688.241210938 372.412109375 666.958007812 c 0
 394.056640625 645.538085938 400.387695312 615.149414062 392.028320312 578.939453125 c 2
 390.4765625 572.21875 l 2
 382.377929688 537.139648438 362.061523438 508.852539062 331.712890625 489.565429688 c 1
140.92578125 0.0595703125 m 1
 681.560546875 693.1796875 l 1
 785.489257812 693.1796875 l 1
 243.853515625 0.0595703125 l 1
 140.92578125 0.0595703125 l 1
787.875 160.379882812 m 1
 827.235351562 160.379882812 l 1
 805.737304688 67.259765625 l 1
 766.376953125 67.259765625 l 1
 750.862304688 0.0595703125 l 1
 647.182617188 0.0595703125 l 1
 662.697265625 67.259765625 l 1
 477.416992188 67.259765625 l 1
 496.37109375 149.360351562 l 1
 699.8828125 429.1796875 l 1
 806.845703125 429.1796875 l 1
 612.307617188 160.379882812 l 1
 684.1953125 160.379882812 l 1
 705.250976562 251.580078125 l 1
 808.930664062 251.580078125 l 1
 787.875 160.379882812 l 1
EndSplineSet
Ligature2: "'frac' Diagonal Fractions lookup 2 subtable" three slash four
EndChar

StartChar: questiondown
Encoding: 191 191 129
Width: 491
GlyphClass: 2
Flags: MW
HStem: -156.42 105.6<117.149 170.922> 391.74 128.64<234.509 330.569 204.81 360.269>
VStem: 47.1084 115.199 197.828 125.76 356.228 112.644
LayerCount: 2
Fore
SplineSet
234.508789062 520.379882812 m 1
 360.268554688 520.379882812 l 1
 330.569335938 391.740234375 l 1
 204.809570312 391.740234375 l 1
 234.508789062 520.379882812 l 1
165.036132812 -50.8203125 m 0
 243.200195312 -50.8203125 270.328125 -10.5703125 281.204101562 36.5400390625 c 2
 284.529296875 50.9404296875 l 1
 397.172851562 50.9404296875 l 1
 387.190429688 11.498046875 370.024414062 -56.330078125 303.4765625 -106.569335938 c 0
 258.603515625 -140.4453125 203.107421875 -156.419921875 138.736328125 -156.419921875 c 0
 75.1142578125 -156.419921875 26.771484375 -141.493164062 -4.1689453125 -109.928710938 c 0
 -35.2490234375 -78.22265625 -44.15625 -33.80859375 -31.6826171875 20.2197265625 c 0
 -16.4296875 86.287109375 18.958984375 131.62109375 66.3212890625 168.643554688 c 2
 142.760742188 228.396484375 l 2
 171.926757812 251.208984375 182.723632812 266.96484375 191.139648438 303.419921875 c 2
 200.891601562 345.66015625 l 1
 314.171875 345.66015625 l 1
 303.533203125 299.580078125 l 2
 288.607421875 234.92578125 267.083984375 202.951171875 214.435546875 162.306640625 c 2
 214.435546875 162.306640625 152.411132812 114.879882812 149.2734375 112.481445312 c 0
 106.037109375 78.357421875 91.578125 55.13671875 84.4033203125 24.0595703125 c 0
 80.0888671875 5.3701171875 69.26171875 -50.8203125 165.036132812 -50.8203125 c 0
EndSplineSet
EndChar

StartChar: Agrave
Encoding: 192 192 130
Width: 667
GlyphClass: 2
Flags: MW
HStem: 0.0595703 21G<-78.1143 -78.1143 -78.1143 44.4775 469.466 469.466 469.466 592.988> 149.82 102.72<203.544 425.961 203.544 443.561 138.573 425.961> 671.26 20G<369.963 463.062 463.062 463.062>
LayerCount: 2
Fore
SplineSet
-78.1142578125 0.0595703125 m 1
 369.962890625 691.259765625 l 1
 463.061523438 691.259765625 l 1
 592.98828125 0.0595703125 l 1
 469.465820312 0.0595703125 l 1
 443.560546875 149.8203125 l 1
 138.573242188 149.8203125 l 1
 44.4775390625 0.0595703125 l 1
 -78.1142578125 0.0595703125 l 1
203.543945312 252.540039062 m 1
 425.9609375 252.540039062 l 1
 378.938476562 530.560546875 l 1
 203.543945312 252.540039062 l 1
274.89453125 871.740234375 m 1
 422.03515625 871.740234375 l 1
 518.552734375 720.059570312 l 1
 404.591796875 720.059570312 l 1
 274.89453125 871.740234375 l 1
EndSplineSet
EndChar

StartChar: Aacute
Encoding: 193 193 131
Width: 667
GlyphClass: 2
Flags: MW
HStem: 0.0595703 21G<-78.1143 -78.1143 -78.1143 44.4775 469.466 469.466 469.466 592.988> 149.82 102.72<203.544 425.961 203.544 443.561 138.573 425.961> 671.26 20G<369.963 463.062 463.062 463.062>
LayerCount: 2
Fore
SplineSet
-78.1142578125 0.0595703125 m 1
 369.962890625 691.259765625 l 1
 463.061523438 691.259765625 l 1
 592.98828125 0.0595703125 l 1
 469.465820312 0.0595703125 l 1
 443.560546875 149.8203125 l 1
 138.573242188 149.8203125 l 1
 44.4775390625 0.0595703125 l 1
 -78.1142578125 0.0595703125 l 1
203.543945312 252.540039062 m 1
 425.9609375 252.540039062 l 1
 378.938476562 530.560546875 l 1
 203.543945312 252.540039062 l 1
476.134765625 871.740234375 m 1
 622.27734375 871.740234375 l 1
 422.543945312 720.059570312 l 1
 308.397460938 720.059570312 l 1
 476.134765625 871.740234375 l 1
EndSplineSet
EndChar

StartChar: Acircumflex
Encoding: 194 194 132
Width: 667
GlyphClass: 2
Flags: MW
HStem: 0.0595703 21G<-78.1143 -78.1143 -78.1143 44.4775 469.466 469.466 469.466 592.988> 149.82 102.72<203.544 425.961 203.544 443.561 138.573 425.961> 671.26 20G<369.963 463.062 463.062 463.062>
LayerCount: 2
Fore
SplineSet
-78.1142578125 0.0595703125 m 1
 369.962890625 691.259765625 l 1
 463.061523438 691.259765625 l 1
 592.98828125 0.0595703125 l 1
 469.465820312 0.0595703125 l 1
 443.560546875 149.8203125 l 1
 138.573242188 149.8203125 l 1
 44.4775390625 0.0595703125 l 1
 -78.1142578125 0.0595703125 l 1
203.543945312 252.540039062 m 1
 425.9609375 252.540039062 l 1
 378.938476562 530.560546875 l 1
 203.543945312 252.540039062 l 1
423.444335938 884.219726562 m 1
 498.690429688 884.219726562 l 1
 611.283203125 715.259765625 l 1
 495.915039062 715.259765625 l 1
 440.861328125 794.891601562 l 1
 348.153320312 715.259765625 l 1
 232.8359375 715.259765625 l 1
 423.444335938 884.219726562 l 1
EndSplineSet
EndChar

StartChar: Atilde
Encoding: 195 195 133
Width: 667
GlyphClass: 2
Flags: MW
HStem: 0.0595703 21G<-78.1143 -78.1143 -78.1143 44.4775 469.466 469.466 469.466 592.988> 149.82 102.72<203.544 425.961 203.544 443.561 138.573 425.961> 671.26 20G<369.963 463.062 463.062 463.062> 699.993 21G<263.495 263.495> 718.14 96<504.771 510.242> 754.62 96<369.253 371.593>
LayerCount: 2
Fore
SplineSet
-78.1142578125 0.0595703125 m 1xe0
 369.962890625 691.259765625 l 1
 463.061523438 691.259765625 l 1
 592.98828125 0.0595703125 l 1
 469.465820312 0.0595703125 l 1
 443.560546875 149.8203125 l 1
 138.573242188 149.8203125 l 1
 44.4775390625 0.0595703125 l 1
 -78.1142578125 0.0595703125 l 1xe0
203.543945312 252.540039062 m 1
 425.9609375 252.540039062 l 1
 378.938476562 530.560546875 l 1
 203.543945312 252.540039062 l 1
391.387695312 850.620117188 m 0xf4
 413.44921875 850.620117188 430.461914062 847.259765625 461.067382812 829.977539062 c 0
 488.228515625 815.545898438 497.9375 814.139648438 511.604492188 814.139648438 c 0
 530.461914062 814.139648438 545.876953125 817.5859375 583.1015625 846.647460938 c 2
 612.77734375 869.815429688 l 1
 587.71484375 761.2578125 l 1
 571.495117188 747.775390625 535.841796875 718.139648438 484.641601562 718.139648438 c 0xe8
 461.477539062 718.139648438 444.670898438 721.48046875 414.11328125 738.719726562 c 0
 384.950195312 753.349609375 378.758789062 754.620117188 364.426757812 754.620117188 c 0
 346.834960938 754.620117188 332.01171875 751.473632812 292.629882812 721.8828125 c 2
 263.495117188 699.993164062 l 1
 288.170898438 806.877929688 l 1
 316.796875 829.181640625 347.119140625 850.620117188 391.387695312 850.620117188 c 0xf4
EndSplineSet
EndChar

StartChar: Adieresis
Encoding: 196 196 134
Width: 667
GlyphClass: 2
Flags: MW
HStem: 0.0595703 21G<-78.1143 -78.1143 -78.1143 44.4775 469.466 469.466 469.466 592.988> 149.82 102.72<203.544 425.961 203.544 443.561 138.573 425.961> 671.26 20G<369.963 463.062 463.062 463.062> 728.7 120<294.946 377.643 267.242 405.347 294.946 473.643 501.347 583.082>
VStem: 182.468 110.4 388.868 109.439
LayerCount: 2
Fore
SplineSet
-78.1142578125 0.0595703125 m 1
 369.962890625 691.259765625 l 1
 463.061523438 691.259765625 l 1
 592.98828125 0.0595703125 l 1
 469.465820312 0.0595703125 l 1
 443.560546875 149.8203125 l 1
 138.573242188 149.8203125 l 1
 44.4775390625 0.0595703125 l 1
 -78.1142578125 0.0595703125 l 1
203.543945312 252.540039062 m 1
 425.9609375 252.540039062 l 1
 378.938476562 530.560546875 l 1
 203.543945312 252.540039062 l 1
294.946289062 848.700195312 m 1
 405.346679688 848.700195312 l 1
 377.642578125 728.700195312 l 1
 267.2421875 728.700195312 l 1
 294.946289062 848.700195312 l 1
501.346679688 848.700195312 m 1
 610.786132812 848.700195312 l 1
 583.08203125 728.700195312 l 1
 473.642578125 728.700195312 l 1
 501.346679688 848.700195312 l 1
EndSplineSet
EndChar

StartChar: Aring
Encoding: 197 197 135
Width: 667
GlyphClass: 2
Flags: MW
HStem: 0.0595703 21G<-78.0977 44.4775 -78.0977 -78.0977 469.466 592.972 469.466 469.466> 149.82 102.72<203.544 425.961 203.544 443.561 138.573 425.961> 793.98 70.0791<430.267 451.158>
VStem: 236.228 71.04 374.468 71.04
LayerCount: 2
Fore
SplineSet
537.153320312 758.459960938 m 0
 532.752929688 739.40234375 517.5546875 695.904296875 467.7421875 669.274414062 c 1
 592.971679688 0.0595703125 l 1
 469.465820312 0.0595703125 l 1
 443.560546875 149.8203125 l 1
 138.573242188 149.8203125 l 1
 44.4775390625 0.0595703125 l 1
 -78.09765625 0.0595703125 l 1
 355.165039062 669.280273438 l 1
 347.771484375 674.559570312 314.315429688 699.734375 327.873046875 758.459960938 c 0
 341.78125 818.704101562 395.708007812 864.059570312 456.893554688 864.059570312 c 0
 515.572265625 864.059570312 551.356445312 819.979492188 537.153320312 758.459960938 c 0
440.713867188 793.98046875 m 0
 419.8203125 793.98046875 403.850585938 779.846679688 398.913085938 758.459960938 c 0
 396.396484375 747.559570312 397.72265625 739.629882812 402.547851562 732.760742188 c 0
 407.201171875 726.135742188 413.669921875 722.940429688 424.313476562 722.940429688 c 0
 434.956054688 722.940429688 442.899414062 726.135742188 450.612304688 732.760742188 c 0
 458.608398438 739.629882812 463.596679688 747.559570312 466.11328125 758.459960938 c 0
 471.051757812 779.850585938 461.602539062 793.98046875 440.713867188 793.98046875 c 0
203.543945312 252.540039062 m 1
 425.9609375 252.540039062 l 1
 378.938476562 530.560546875 l 1
 203.543945312 252.540039062 l 1
EndSplineSet
EndChar

StartChar: AE
Encoding: 198 198 136
Width: 991
GlyphClass: 2
Flags: MW
HStem: 0.0595703 106.561<525.864 870.862> 154.62 102.72<264.69 420.786 178.318 444.5> 297.66 106.56<594.57 886.77 569.97 911.37> 584.7 106.56<636.237 1005.84 636.237 636.237>
VStem: 468.548 116.16
LayerCount: 2
Fore
SplineSet
-82.279296875 0.0595703125 m 1
 503.036132812 691.259765625 l 1
 1030.43847656 691.259765625 l 1
 1005.83691406 584.700195312 l 1
 636.237304688 584.700195312 l 1
 594.5703125 404.219726562 l 1
 911.370117188 404.219726562 l 1
 886.76953125 297.66015625 l 1
 569.969726562 297.66015625 l 1
 525.864257812 106.620117188 l 1
 895.463867188 106.620117188 l 1
 870.862304688 0.0595703125 l 1
 385.102539062 0.0595703125 l 1
 420.786132812 154.620117188 l 1
 178.318359375 154.620117188 l 1
 48.5546875 0.0595703125 l 1
 -82.279296875 0.0595703125 l 1
444.5 257.33984375 m 1
 512.66015625 552.573242188 l 1
 264.690429688 257.33984375 l 1
 444.5 257.33984375 l 1
EndSplineSet
EndChar

StartChar: Ccedilla
Encoding: 199 199 137
Width: 680
GlyphClass: 2
Flags: MW
HStem: 593.34 107.521<391.672 438.241>
VStem: 65.3467 116.16 515.592 116.156
LayerCount: 2
Fore
SplineSet
298.489257812 98.9404296875 m 0
 372.502929688 98.9404296875 460.046875 120.930664062 482.674804688 218.940429688 c 2
 486.884765625 237.1796875 l 1
 602.084960938 237.1796875 l 1
 597.653320312 217.98046875 l 2
 583.658203125 157.364257812 553.069335938 106.397460938 505.982421875 67.298828125 c 0
 461.025390625 29.96875 406.0703125 6.6552734375 342.448242188 -3.3798828125 c 1
 246.552734375 -145.860351562 l 1
 130.946289062 -145.860351562 l 1
 234.75 -7.150390625 l 1
 160.25390625 -0.3310546875 105.10546875 26.322265625 71.4580078125 73.716796875 c 0
 34.3896484375 125.93359375 28.376953125 201.368164062 50.6083984375 297.66015625 c 2
 72.9931640625 394.620117188 l 2
 95.83203125 493.548828125 138.565429688 570.6171875 202.903320312 623.166992188 c 0
 266.953125 675.48046875 345.889648438 700.860351562 437.455078125 700.860351562 c 0
 519.622070312 700.860351562 581.806640625 681.78515625 622.008789062 641.999023438 c 0
 662.470703125 601.958007812 674.181640625 545.299804688 658.01171875 475.259765625 c 2
 653.579101562 456.059570312 l 1
 537.422851562 456.059570312 l 1
 541.633789062 474.299804688 l 2
 550.729492188 513.698242188 544.09375 541.698242188 522.783203125 561.787109375 c 0
 501.217773438 582.1171875 464.811523438 593.33984375 411.670898438 593.33984375 c 0
 349.5234375 593.33984375 302.354492188 576.572265625 267.350585938 545.3671875 c 0
 232.256835938 514.083984375 204.919921875 462.9140625 188.044921875 389.8203125 c 2
 166.546875 296.700195312 l 2
 134.294921875 157.002929688 180.482421875 98.9404296875 298.489257812 98.9404296875 c 0
EndSplineSet
EndChar

StartChar: Egrave
Encoding: 200 200 138
Width: 600
GlyphClass: 2
Flags: MW
HStem: 0.0595703 106.561<133.224 483.982> 297.66 106.56<201.93 498.93 177.329 523.53> 584.7 106.56<243.597 618.957 243.597 243.597>
VStem: 75.9082 116.159
LayerCount: 2
Fore
SplineSet
133.223632812 106.620117188 m 1
 508.583984375 106.620117188 l 1
 483.982421875 0.0595703125 l 1
 -7.537109375 0.0595703125 l 1
 152.0390625 691.259765625 l 1
 643.55859375 691.259765625 l 1
 618.95703125 584.700195312 l 1
 243.596679688 584.700195312 l 1
 201.9296875 404.219726562 l 1
 523.530273438 404.219726562 l 1
 498.9296875 297.66015625 l 1
 177.329101562 297.66015625 l 1
 133.223632812 106.620117188 l 1
252.814453125 871.740234375 m 1
 399.955078125 871.740234375 l 1
 496.47265625 720.059570312 l 1
 382.51171875 720.059570312 l 1
 252.814453125 871.740234375 l 1
EndSplineSet
EndChar

StartChar: Eacute
Encoding: 201 201 139
Width: 600
GlyphClass: 2
Flags: MW
HStem: 0.0595703 106.561<133.224 483.982> 297.66 106.56<201.93 498.93 177.329 523.53> 584.7 106.56<243.597 618.957 243.597 243.597>
VStem: 75.9082 116.159
LayerCount: 2
Fore
SplineSet
133.223632812 106.620117188 m 1
 508.583984375 106.620117188 l 1
 483.982421875 0.0595703125 l 1
 -7.537109375 0.0595703125 l 1
 152.0390625 691.259765625 l 1
 643.55859375 691.259765625 l 1
 618.95703125 584.700195312 l 1
 243.596679688 584.700195312 l 1
 201.9296875 404.219726562 l 1
 523.530273438 404.219726562 l 1
 498.9296875 297.66015625 l 1
 177.329101562 297.66015625 l 1
 133.223632812 106.620117188 l 1
461.734375 871.740234375 m 1
 607.876953125 871.740234375 l 1
 408.14453125 720.059570312 l 1
 293.997070312 720.059570312 l 1
 461.734375 871.740234375 l 1
EndSplineSet
EndChar

StartChar: Ecircumflex
Encoding: 202 202 140
Width: 600
GlyphClass: 2
Flags: MW
HStem: 0.0595703 106.561<133.224 483.982> 297.66 106.56<201.93 498.93 177.329 523.53> 584.7 106.56<243.597 618.957 243.597 243.597>
VStem: 75.9082 116.159
LayerCount: 2
Fore
SplineSet
133.223632812 106.620117188 m 1
 508.583984375 106.620117188 l 1
 483.982421875 0.0595703125 l 1
 -7.537109375 0.0595703125 l 1
 152.0390625 691.259765625 l 1
 643.55859375 691.259765625 l 1
 618.95703125 584.700195312 l 1
 243.596679688 584.700195312 l 1
 201.9296875 404.219726562 l 1
 523.530273438 404.219726562 l 1
 498.9296875 297.66015625 l 1
 177.329101562 297.66015625 l 1
 133.223632812 106.620117188 l 1
401.365234375 884.219726562 m 1
 476.610351562 884.219726562 l 1
 589.203125 715.259765625 l 1
 473.834960938 715.259765625 l 1
 418.78125 794.891601562 l 1
 326.073242188 715.259765625 l 1
 210.755859375 715.259765625 l 1
 401.365234375 884.219726562 l 1
EndSplineSet
EndChar

StartChar: Edieresis
Encoding: 203 203 141
Width: 600
GlyphClass: 2
Flags: MW
HStem: 0.0595703 106.561<133.224 483.982> 297.66 106.56<201.93 498.93 177.329 523.53> 584.7 106.56<243.597 618.957 243.597 243.597> 728.7 120<272.866 355.562 245.162 383.267 272.866 451.562 479.267 561.002>
VStem: 75.9082 116.159 160.388 110.4 366.788 109.439
LayerCount: 2
Fore
SplineSet
133.223632812 106.620117188 m 1xfa
 508.583984375 106.620117188 l 1
 483.982421875 0.0595703125 l 1
 -7.537109375 0.0595703125 l 1
 152.0390625 691.259765625 l 1
 643.55859375 691.259765625 l 1
 618.95703125 584.700195312 l 1
 243.596679688 584.700195312 l 1
 201.9296875 404.219726562 l 1
 523.530273438 404.219726562 l 1
 498.9296875 297.66015625 l 1
 177.329101562 297.66015625 l 1
 133.223632812 106.620117188 l 1xfa
272.866210938 848.700195312 m 1xf6
 383.266601562 848.700195312 l 1
 355.5625 728.700195312 l 1
 245.162109375 728.700195312 l 1
 272.866210938 848.700195312 l 1xf6
479.266601562 848.700195312 m 1
 588.706054688 848.700195312 l 1
 561.001953125 728.700195312 l 1
 451.5625 728.700195312 l 1
 479.266601562 848.700195312 l 1
EndSplineSet
EndChar

StartChar: Igrave
Encoding: 204 204 142
Width: 263
GlyphClass: 2
Flags: MW
HStem: 0.0595703 21G<-0.817383 115.343 -0.817383 -0.817383> 671.26 20G<158.759 274.919 274.919 274.919>
VStem: 82.6279 116.16
LayerCount: 2
Fore
SplineSet
158.758789062 691.259765625 m 1
 274.918945312 691.259765625 l 1
 115.342773438 0.0595703125 l 1
 -0.8173828125 0.0595703125 l 1
 158.758789062 691.259765625 l 1
75.21484375 871.740234375 m 1
 222.35546875 871.740234375 l 1
 318.873046875 720.059570312 l 1
 204.912109375 720.059570312 l 1
 75.21484375 871.740234375 l 1
EndSplineSet
EndChar

StartChar: Iacute
Encoding: 205 205 143
Width: 263
GlyphClass: 2
Flags: MW
HStem: 0.0595703 21G<-0.817383 115.343 -0.817383 -0.817383> 671.26 20G<158.759 274.919 274.919 274.919>
VStem: 82.6279 116.16
LayerCount: 2
Fore
SplineSet
158.758789062 691.259765625 m 1
 274.918945312 691.259765625 l 1
 115.342773438 0.0595703125 l 1
 -0.8173828125 0.0595703125 l 1
 158.758789062 691.259765625 l 1
430.27734375 871.740234375 m 1
 230.543945312 720.059570312 l 1
 116.397460938 720.059570312 l 1
 284.134765625 871.740234375 l 1
 430.27734375 871.740234375 l 1
EndSplineSet
EndChar

StartChar: Icircumflex
Encoding: 206 206 144
Width: 263
GlyphClass: 2
Flags: MW
HStem: 0.0595703 21G<-0.817383 115.343 -0.817383 -0.817383> 671.26 20G<158.759 274.919 274.919 274.919>
VStem: 82.6279 116.16
LayerCount: 2
Fore
SplineSet
158.758789062 691.259765625 m 1
 274.918945312 691.259765625 l 1
 115.342773438 0.0595703125 l 1
 -0.8173828125 0.0595703125 l 1
 158.758789062 691.259765625 l 1
223.764648438 884.219726562 m 1
 299.009765625 884.219726562 l 1
 411.603515625 715.259765625 l 1
 296.234375 715.259765625 l 1
 241.181640625 794.891601562 l 1
 148.473632812 715.259765625 l 1
 33.15625 715.259765625 l 1
 223.764648438 884.219726562 l 1
EndSplineSet
EndChar

StartChar: Idieresis
Encoding: 207 207 145
Width: 263
GlyphClass: 2
Flags: MW
HStem: 0.0595703 21G<-0.817383 115.343 -0.817383 -0.817383> 671.26 20G<158.759 274.919 274.919 274.919> 728.7 120<95.2666 177.962 67.5625 205.666 95.2666 273.962 301.666 383.402>
VStem: -17.2119 110.399 82.6279 116.16 189.188 109.44
LayerCount: 2
Fore
SplineSet
158.758789062 691.259765625 m 1xe8
 274.918945312 691.259765625 l 1
 115.342773438 0.0595703125 l 1
 -0.8173828125 0.0595703125 l 1
 158.758789062 691.259765625 l 1xe8
95.2666015625 848.700195312 m 1xf0
 205.666015625 848.700195312 l 1
 177.961914062 728.700195312 l 1
 67.5625 728.700195312 l 1
 95.2666015625 848.700195312 l 1xf0
301.666015625 848.700195312 m 1xe4
 411.106445312 848.700195312 l 1
 383.40234375 728.700195312 l 1
 273.961914062 728.700195312 l 1
 301.666015625 848.700195312 l 1xe4
EndSplineSet
EndChar

StartChar: Eth
Encoding: 208 208 146
Width: 724
GlyphClass: 2
Flags: MW
HStem: 0.0595703 106.56<182.185 298.702> 297.659 106.56<250.891 389.488 226.289 414.09> 584.699 106.561<292.558 435.597 292.558 292.558>
VStem: 124.868 116.16 558.788 116.16
LayerCount: 2
Fore
SplineSet
681.486328125 389.819335938 m 2
 661.317382812 302.458984375 l 2
 638.768554688 204.791015625 596.39453125 128.661132812 532.510742188 76.759765625 c 0
 468.8984375 25.080078125 390.22265625 0.0595703125 298.702148438 0.0595703125 c 2
 41.4228515625 0.0595703125 l 1
 110.129882812 297.66015625 l 1
 24.689453125 297.66015625 l 1
 49.2900390625 404.219726562 l 1
 134.73046875 404.219726562 l 1
 200.999023438 691.259765625 l 1
 460.198242188 691.259765625 l 2
 551.081054688 691.259765625 617.76171875 666.3984375 657.262695312 615.040039062 c 0
 696.952148438 563.4375 704.029296875 487.462890625 681.486328125 389.819335938 c 2
325.223632812 106.619140625 m 2
 439.4375 106.619140625 512.450195312 160.787109375 544.713867188 300.5390625 c 2
 564.217773438 385.01953125 l 2
 598.171875 532.08984375 546.706054688 584.69921875 435.596679688 584.69921875 c 2
 292.557617188 584.69921875 l 1
 250.890625 404.21875 l 1
 414.08984375 404.21875 l 1
 389.48828125 297.659179688 l 1
 226.2890625 297.659179688 l 1
 182.184570312 106.619140625 l 1
 325.223632812 106.619140625 l 2
EndSplineSet
EndChar

StartChar: Ntilde
Encoding: 209 209 147
Width: 720
GlyphClass: 2
Flags: MW
HStem: 0.0595703 21G<-7.53711 108.622 -7.53711 -7.53711 466.165 575.183 466.165 466.165> 671.26 20G<152.039 261.064 261.064 261.064 618.599 734.759 734.759 734.759> 699.993 21G<287.495 287.495> 718.14 96<528.771 534.242> 754.62 96<393.25 395.593>
VStem: 75.9082 116.159 542.468 116.16
LayerCount: 2
Fore
SplineSet
734.758789062 691.259765625 m 1xc6
 575.182617188 0.0595703125 l 1
 466.165039062 0.0595703125 l 1
 220.21484375 483.420898438 l 1
 108.622070312 0.0595703125 l 1
 -7.537109375 0.0595703125 l 1
 152.0390625 691.259765625 l 1
 261.064453125 691.259765625 l 1
 506.799804688 207.004882812 l 1
 618.598632812 691.259765625 l 1
 734.758789062 691.259765625 l 1xc6
415.385742188 850.620117188 m 0xee
 437.448242188 850.620117188 454.462890625 847.259765625 485.067382812 829.977539062 c 0
 512.228515625 815.545898438 521.9375 814.139648438 535.604492188 814.139648438 c 0
 554.461914062 814.139648438 569.876953125 817.5859375 607.1015625 846.647460938 c 2
 636.77734375 869.815429688 l 1
 611.71484375 761.2578125 l 1
 595.495117188 747.775390625 559.841796875 718.139648438 508.641601562 718.139648438 c 0xd6
 485.477539062 718.139648438 468.670898438 721.48046875 438.11328125 738.719726562 c 0
 408.950195312 753.349609375 402.758789062 754.620117188 388.426757812 754.620117188 c 0
 370.834960938 754.620117188 356.01171875 751.473632812 316.629882812 721.8828125 c 2
 287.495117188 699.993164062 l 1
 312.170898438 806.877929688 l 1
 340.794921875 829.180664062 371.115234375 850.620117188 415.385742188 850.620117188 c 0xee
EndSplineSet
EndChar

StartChar: Ograve
Encoding: 210 210 148
Width: 695
GlyphClass: 2
Flags: MW
HStem: -8.58008 107.521<239.568 314.342> 593.34 107.521<390.061 469.436>
VStem: 65.3477 116.16 530.948 115.199
LayerCount: 2
Fore
SplineSet
50.609375 297.66015625 m 2
 72.994140625 394.620117188 l 2
 95.8291015625 493.53125 138.379882812 570.576171875 202.3828125 623.1328125 c 0
 266.104492188 675.458007812 344.586914062 700.860351562 435.53515625 700.860351562 c 0
 525.86328125 700.860351562 592.016601562 675.4375 630.9296875 623.063476562 c 0
 669.989257812 570.494140625 676.62109375 493.495117188 653.793945312 394.620117188 c 2
 631.409179688 297.66015625 l 2
 608.573242188 198.749023438 566.0234375 121.704101562 502.020507812 69.1474609375 c 0
 438.298828125 16.8212890625 359.81640625 -8.580078125 268.868164062 -8.580078125 c 0
 178.540039062 -8.580078125 112.38671875 16.8427734375 73.47265625 69.216796875 c 0
 34.4140625 121.786132812 27.7822265625 198.78515625 50.609375 297.66015625 c 2
295.610351562 98.9404296875 m 0
 412.579101562 98.9404296875 484.100585938 158.583007812 515.98828125 296.701171875 c 2
 537.486328125 389.821289062 l 2
 569.897460938 530.20703125 529.120117188 593.33984375 409.751953125 593.33984375 c 0
 348.275390625 593.33984375 301.627929688 576.604492188 266.932617188 545.422851562 c 0
 232.129882812 514.14453125 204.92578125 462.934570312 188.045898438 389.8203125 c 2
 166.547851562 296.700195312 l 2
 133.14453125 152.016601562 183.526367188 98.9404296875 295.610351562 98.9404296875 c 0
437.396484375 871.741210938 m 1
 533.913085938 720.060546875 l 1
 419.952148438 720.060546875 l 1
 290.255859375 871.741210938 l 1
 437.396484375 871.741210938 l 1
EndSplineSet
EndChar

StartChar: Oacute
Encoding: 211 211 149
Width: 695
GlyphClass: 2
Flags: MW
HStem: -8.58008 107.521<239.568 314.342> 593.34 107.521<390.061 469.436>
VStem: 65.3477 116.16 530.948 115.199
LayerCount: 2
Fore
SplineSet
50.609375 297.66015625 m 2
 72.994140625 394.620117188 l 2
 95.8291015625 493.53125 138.379882812 570.576171875 202.3828125 623.1328125 c 0
 266.104492188 675.458007812 344.586914062 700.860351562 435.53515625 700.860351562 c 0
 525.86328125 700.860351562 592.016601562 675.4375 630.9296875 623.063476562 c 0
 669.989257812 570.494140625 676.62109375 493.495117188 653.793945312 394.620117188 c 2
 631.409179688 297.66015625 l 2
 608.573242188 198.749023438 566.0234375 121.704101562 502.020507812 69.1474609375 c 0
 438.298828125 16.8212890625 359.81640625 -8.580078125 268.868164062 -8.580078125 c 0
 178.540039062 -8.580078125 112.38671875 16.8427734375 73.47265625 69.216796875 c 0
 34.4140625 121.786132812 27.7822265625 198.78515625 50.609375 297.66015625 c 2
295.610351562 98.9404296875 m 0
 412.579101562 98.9404296875 484.100585938 158.583007812 515.98828125 296.701171875 c 2
 537.486328125 389.821289062 l 2
 569.897460938 530.20703125 529.120117188 593.33984375 409.751953125 593.33984375 c 0
 348.275390625 593.33984375 301.627929688 576.604492188 266.932617188 545.422851562 c 0
 232.129882812 514.14453125 204.92578125 462.934570312 188.045898438 389.8203125 c 2
 166.547851562 296.700195312 l 2
 133.14453125 152.016601562 183.526367188 98.9404296875 295.610351562 98.9404296875 c 0
489.576171875 871.741210938 m 1
 635.717773438 871.741210938 l 1
 435.984375 720.060546875 l 1
 321.836914062 720.060546875 l 1
 489.576171875 871.741210938 l 1
EndSplineSet
EndChar

StartChar: Ocircumflex
Encoding: 212 212 150
Width: 695
GlyphClass: 2
Flags: MW
HStem: -8.58008 107.521<239.568 314.342> 593.34 107.521<390.061 469.436>
VStem: 65.3477 116.16 530.948 115.199
LayerCount: 2
Fore
SplineSet
50.609375 297.66015625 m 2
 72.994140625 394.620117188 l 2
 95.8291015625 493.53125 138.379882812 570.576171875 202.3828125 623.1328125 c 0
 266.104492188 675.458007812 344.586914062 700.860351562 435.53515625 700.860351562 c 0
 525.86328125 700.860351562 592.016601562 675.4375 630.9296875 623.063476562 c 0
 669.989257812 570.494140625 676.62109375 493.495117188 653.793945312 394.620117188 c 2
 631.409179688 297.66015625 l 2
 608.573242188 198.749023438 566.0234375 121.704101562 502.020507812 69.1474609375 c 0
 438.298828125 16.8212890625 359.81640625 -8.580078125 268.868164062 -8.580078125 c 0
 178.540039062 -8.580078125 112.38671875 16.8427734375 73.47265625 69.216796875 c 0
 34.4140625 121.786132812 27.7822265625 198.78515625 50.609375 297.66015625 c 2
295.610351562 98.9404296875 m 0
 412.579101562 98.9404296875 484.100585938 158.583007812 515.98828125 296.701171875 c 2
 537.486328125 389.821289062 l 2
 569.897460938 530.20703125 529.120117188 593.33984375 409.751953125 593.33984375 c 0
 348.275390625 593.33984375 301.627929688 576.604492188 266.932617188 545.422851562 c 0
 232.129882812 514.14453125 204.92578125 462.934570312 188.045898438 389.8203125 c 2
 166.547851562 296.700195312 l 2
 133.14453125 152.016601562 183.526367188 98.9404296875 295.610351562 98.9404296875 c 0
514.049804688 884.220703125 m 1
 626.643554688 715.260742188 l 1
 511.274414062 715.260742188 l 1
 456.221679688 794.892578125 l 1
 363.513671875 715.260742188 l 1
 248.196289062 715.260742188 l 1
 438.8046875 884.220703125 l 1
 514.049804688 884.220703125 l 1
EndSplineSet
EndChar

StartChar: Otilde
Encoding: 213 213 151
Width: 695
GlyphClass: 2
Flags: MW
HStem: -8.58008 107.521<239.568 314.342> 593.34 107.521<390.061 469.436> 699.994 21G<278.855 278.855> 718.141 96<520.131 525.602> 754.621 96<384.612 386.953>
VStem: 65.3477 116.16 530.948 115.199
LayerCount: 2
Fore
SplineSet
50.609375 297.66015625 m 2xc6
 72.994140625 394.620117188 l 2
 95.8291015625 493.53125 138.379882812 570.576171875 202.3828125 623.1328125 c 0
 266.104492188 675.458007812 344.586914062 700.860351562 435.53515625 700.860351562 c 0
 525.86328125 700.860351562 592.016601562 675.4375 630.9296875 623.063476562 c 0
 669.989257812 570.494140625 676.62109375 493.495117188 653.793945312 394.620117188 c 2
 631.409179688 297.66015625 l 2
 608.573242188 198.749023438 566.0234375 121.704101562 502.020507812 69.1474609375 c 0
 438.298828125 16.8212890625 359.81640625 -8.580078125 268.868164062 -8.580078125 c 0
 178.540039062 -8.580078125 112.38671875 16.8427734375 73.47265625 69.216796875 c 0
 34.4140625 121.786132812 27.7822265625 198.78515625 50.609375 297.66015625 c 2xc6
295.610351562 98.9404296875 m 0
 412.579101562 98.9404296875 484.100585938 158.583007812 515.98828125 296.701171875 c 2
 537.486328125 389.821289062 l 2
 569.897460938 530.20703125 529.120117188 593.33984375 409.751953125 593.33984375 c 0
 348.275390625 593.33984375 301.627929688 576.604492188 266.932617188 545.422851562 c 0
 232.129882812 514.14453125 204.92578125 462.934570312 188.045898438 389.8203125 c 2
 166.547851562 296.700195312 l 2
 133.14453125 152.016601562 183.526367188 98.9404296875 295.610351562 98.9404296875 c 0
406.747070312 850.62109375 m 0xae
 428.809570312 850.62109375 445.823242188 847.260742188 476.427734375 829.978515625 c 0
 503.588867188 815.546875 513.297851562 814.140625 526.963867188 814.140625 c 0
 545.822265625 814.140625 561.237304688 817.586914062 598.461914062 846.6484375 c 2
 628.137695312 869.81640625 l 1
 603.075195312 761.258789062 l 1
 586.85546875 747.776367188 551.201171875 718.140625 500.001953125 718.140625 c 0x96
 476.836914062 718.140625 460.03125 721.481445312 429.47265625 738.720703125 c 0
 400.310546875 753.350585938 394.119140625 754.62109375 379.787109375 754.62109375 c 0
 362.1953125 754.62109375 347.37109375 751.474609375 307.989257812 721.883789062 c 2
 278.85546875 699.994140625 l 1
 303.53125 806.87890625 l 1
 332.155273438 829.181640625 362.4765625 850.62109375 406.747070312 850.62109375 c 0xae
EndSplineSet
EndChar

StartChar: Odieresis
Encoding: 214 214 152
Width: 695
GlyphClass: 2
Flags: MW
HStem: -8.58008 107.521<239.568 314.342> 593.34 107.521<390.061 469.436> 728.701 120<310.308 393.003 282.604 420.707 310.308 489.003 516.707 598.443>
VStem: 65.3477 116.16 197.828 110.399 404.228 109.44 530.948 115.199
LayerCount: 2
Fore
SplineSet
50.609375 297.66015625 m 2
 72.994140625 394.620117188 l 2
 95.8291015625 493.53125 138.379882812 570.576171875 202.3828125 623.1328125 c 0
 266.104492188 675.458007812 344.586914062 700.860351562 435.53515625 700.860351562 c 0
 525.86328125 700.860351562 592.016601562 675.4375 630.9296875 623.063476562 c 0
 669.989257812 570.494140625 676.62109375 493.495117188 653.793945312 394.620117188 c 2
 631.409179688 297.66015625 l 2
 608.573242188 198.749023438 566.0234375 121.704101562 502.020507812 69.1474609375 c 0
 438.298828125 16.8212890625 359.81640625 -8.580078125 268.868164062 -8.580078125 c 0
 178.540039062 -8.580078125 112.38671875 16.8427734375 73.47265625 69.216796875 c 0
 34.4140625 121.786132812 27.7822265625 198.78515625 50.609375 297.66015625 c 2
295.610351562 98.9404296875 m 0
 412.579101562 98.9404296875 484.100585938 158.583007812 515.98828125 296.701171875 c 2
 537.486328125 389.821289062 l 2
 569.897460938 530.20703125 529.120117188 593.33984375 409.751953125 593.33984375 c 0
 348.275390625 593.33984375 301.627929688 576.604492188 266.932617188 545.422851562 c 0
 232.129882812 514.14453125 204.92578125 462.934570312 188.045898438 389.8203125 c 2
 166.547851562 296.700195312 l 2
 133.14453125 152.016601562 183.526367188 98.9404296875 295.610351562 98.9404296875 c 0
310.307617188 848.701171875 m 1
 420.70703125 848.701171875 l 1
 393.002929688 728.701171875 l 1
 282.603515625 728.701171875 l 1
 310.307617188 848.701171875 l 1
516.70703125 848.701171875 m 1
 626.147460938 848.701171875 l 1
 598.443359375 728.701171875 l 1
 489.002929688 728.701171875 l 1
 516.70703125 848.701171875 l 1
EndSplineSet
EndChar

StartChar: multiply
Encoding: 215 215 153
Width: 514
GlyphClass: 2
Flags: W
LayerCount: 2
Fore
SplineSet
230.370117188 207.219726562 m 1
 88.5732421875 92.01953125 l 1
 33.0732421875 164.177734375 l 1
 175.090820312 280.337890625 l 1
 86.455078125 395.580078125 l 1
 175.325195312 467.780273438 l 1
 263.928710938 352.581054688 l 1
 405.724609375 467.780273438 l 1
 461.256835938 395.580078125 l 1
 319.408203125 280.337890625 l 1
 407.791015625 164.177734375 l 1
 318.97265625 92.01953125 l 1
 230.370117188 207.219726562 l 1
EndSplineSet
EndChar

StartChar: Oslash
Encoding: 216 216 154
Width: 695
GlyphClass: 2
Flags: MW
HStem: -8.58008 107.521<274.801 314.342> 593.34 107.521<390.061 429.984>
VStem: 65.3477 116.159 530.947 115.2
LayerCount: 2
Fore
SplineSet
268.8671875 -8.580078125 m 0
 207.922851562 -8.580078125 157.825195312 3.021484375 119.349609375 26.8779296875 c 1
 78.3359375 -19.1396484375 l 1
 -25.1123046875 -19.1396484375 l 1
 64.5693359375 82.419921875 l 1
 33.7470703125 135.201171875 29.8046875 207.547851562 50.609375 297.66015625 c 2
 72.994140625 394.620117188 l 2
 95.8291015625 493.53125 138.379882812 570.576171875 202.3828125 623.1328125 c 0
 266.104492188 675.458007812 344.586914062 700.860351562 435.53515625 700.860351562 c 0
 496.91015625 700.860351562 547.004882812 689.326171875 585.017578125 665.51953125 c 1
 626.208984375 712.379882812 l 1
 728.776367188 712.379882812 l 1
 639.19921875 610.9375 l 1
 670.764648438 558.612304688 674.859375 485.866210938 653.793945312 394.620117188 c 2
 631.409179688 297.66015625 l 2
 608.573242188 198.749023438 566.022460938 121.704101562 502.01953125 69.1474609375 c 0
 438.297851562 16.8212890625 359.81640625 -8.580078125 268.8671875 -8.580078125 c 0
409.750976562 593.33984375 m 0
 348.275390625 593.33984375 301.626953125 576.604492188 266.931640625 545.422851562 c 0
 232.12890625 514.14453125 204.924804688 462.934570312 188.044921875 389.8203125 c 2
 166.546875 296.700195312 l 2
 156.192382812 251.8515625 153.799804688 215.477539062 158.505859375 187.37109375 c 1
 501.967773438 572.669921875 l 1
 480.645507812 586.114257812 450.217773438 593.33984375 409.750976562 593.33984375 c 0
295.609375 98.9404296875 m 0
 412.639648438 98.9404296875 484.116210938 158.65234375 515.987304688 296.700195312 c 2
 537.485351562 389.8203125 l 2
 548.465820312 437.3828125 550.736328125 475.7734375 545.235351562 505.24609375 c 1
 201.48828125 119.627929688 l 1
 222.932617188 106.205078125 253.9921875 98.9404296875 295.609375 98.9404296875 c 0
EndSplineSet
EndChar

StartChar: Ugrave
Encoding: 217 217 155
Width: 692
GlyphClass: 2
Flags: MW
HStem: -5.7002 105.601<232.822 311.065> 671.26 20G<152.039 268.198 268.198 268.198 590.759 706.919 706.919 706.919>
VStem: 75.9082 116.159 514.628 116.16
LayerCount: 2
Fore
SplineSet
292.952148438 99.900390625 m 0
 413.17578125 99.900390625 468.625 162.240234375 490.580078125 257.33984375 c 2
 590.758789062 691.259765625 l 1
 706.918945312 691.259765625 l 1
 605.411132812 251.580078125 l 2
 587.00390625 171.8515625 547.78125 107.666992188 487.354492188 61.9267578125 c 0
 427.091796875 16.3115234375 353.55859375 -5.7001953125 268.572265625 -5.7001953125 c 0
 183.586914062 -5.7001953125 120.217773438 16.3115234375 81.017578125 61.9267578125 c 0
 41.7099609375 107.666992188 32.1240234375 171.8515625 50.53125 251.580078125 c 2
 152.0390625 691.259765625 l 1
 268.198242188 691.259765625 l 1
 168.01953125 257.33984375 l 2
 146.07421875 162.280273438 172.69140625 99.900390625 292.952148438 99.900390625 c 0
287.374023438 871.740234375 m 1
 434.515625 871.740234375 l 1
 531.032226562 720.059570312 l 1
 417.072265625 720.059570312 l 1
 287.374023438 871.740234375 l 1
EndSplineSet
EndChar

StartChar: Uacute
Encoding: 218 218 156
Width: 692
GlyphClass: 2
Flags: MW
HStem: -5.7002 105.601<232.822 311.065> 671.26 20G<152.039 268.198 268.198 268.198 590.759 706.919 706.919 706.919>
VStem: 75.9082 116.159 514.628 116.16
LayerCount: 2
Fore
SplineSet
292.952148438 99.900390625 m 0
 413.17578125 99.900390625 468.625 162.240234375 490.580078125 257.33984375 c 2
 590.758789062 691.259765625 l 1
 706.918945312 691.259765625 l 1
 605.411132812 251.580078125 l 2
 587.00390625 171.8515625 547.78125 107.666992188 487.354492188 61.9267578125 c 0
 427.091796875 16.3115234375 353.55859375 -5.7001953125 268.572265625 -5.7001953125 c 0
 183.586914062 -5.7001953125 120.217773438 16.3115234375 81.017578125 61.9267578125 c 0
 41.7099609375 107.666992188 32.1240234375 171.8515625 50.53125 251.580078125 c 2
 152.0390625 691.259765625 l 1
 268.198242188 691.259765625 l 1
 168.01953125 257.33984375 l 2
 146.07421875 162.280273438 172.69140625 99.900390625 292.952148438 99.900390625 c 0
496.294921875 871.740234375 m 1
 642.436523438 871.740234375 l 1
 442.704101562 720.059570312 l 1
 328.557617188 720.059570312 l 1
 496.294921875 871.740234375 l 1
EndSplineSet
EndChar

StartChar: Ucircumflex
Encoding: 219 219 157
Width: 692
GlyphClass: 2
Flags: MW
HStem: -5.7002 105.601<232.822 311.065> 671.26 20G<152.039 268.198 268.198 268.198 590.759 706.919 706.919 706.919>
VStem: 75.9082 116.159 514.628 116.16
LayerCount: 2
Fore
SplineSet
292.952148438 99.900390625 m 0
 413.17578125 99.900390625 468.625 162.240234375 490.580078125 257.33984375 c 2
 590.758789062 691.259765625 l 1
 706.918945312 691.259765625 l 1
 605.411132812 251.580078125 l 2
 587.00390625 171.8515625 547.78125 107.666992188 487.354492188 61.9267578125 c 0
 427.091796875 16.3115234375 353.55859375 -5.7001953125 268.572265625 -5.7001953125 c 0
 183.586914062 -5.7001953125 120.217773438 16.3115234375 81.017578125 61.9267578125 c 0
 41.7099609375 107.666992188 32.1240234375 171.8515625 50.53125 251.580078125 c 2
 152.0390625 691.259765625 l 1
 268.198242188 691.259765625 l 1
 168.01953125 257.33984375 l 2
 146.07421875 162.280273438 172.69140625 99.900390625 292.952148438 99.900390625 c 0
435.924804688 884.219726562 m 1
 511.169921875 884.219726562 l 1
 623.763671875 715.259765625 l 1
 508.39453125 715.259765625 l 1
 453.340820312 794.891601562 l 1
 360.633789062 715.259765625 l 1
 245.315429688 715.259765625 l 1
 435.924804688 884.219726562 l 1
EndSplineSet
EndChar

StartChar: Udieresis
Encoding: 220 220 158
Width: 692
GlyphClass: 2
Flags: MW
HStem: -5.7002 105.601<232.822 311.065> 671.26 20G<152.039 268.198 268.198 268.198 590.759 706.919 706.919 706.919> 728.7 120<307.427 390.122 279.723 417.826 307.427 486.122 513.826 595.562>
VStem: 75.9082 116.159 194.948 110.399 401.348 109.44 514.628 116.16
LayerCount: 2
Fore
SplineSet
292.952148438 99.900390625 m 0
 413.17578125 99.900390625 468.625 162.240234375 490.580078125 257.33984375 c 2
 590.758789062 691.259765625 l 1
 706.918945312 691.259765625 l 1
 605.411132812 251.580078125 l 2
 587.00390625 171.8515625 547.78125 107.666992188 487.354492188 61.9267578125 c 0
 427.091796875 16.3115234375 353.55859375 -5.7001953125 268.572265625 -5.7001953125 c 0
 183.586914062 -5.7001953125 120.217773438 16.3115234375 81.017578125 61.9267578125 c 0
 41.7099609375 107.666992188 32.1240234375 171.8515625 50.53125 251.580078125 c 2
 152.0390625 691.259765625 l 1
 268.198242188 691.259765625 l 1
 168.01953125 257.33984375 l 2
 146.07421875 162.280273438 172.69140625 99.900390625 292.952148438 99.900390625 c 0
307.426757812 848.700195312 m 1
 417.826171875 848.700195312 l 1
 390.122070312 728.700195312 l 1
 279.72265625 728.700195312 l 1
 307.426757812 848.700195312 l 1
513.826171875 848.700195312 m 1
 623.266601562 848.700195312 l 1
 595.5625 728.700195312 l 1
 486.122070312 728.700195312 l 1
 513.826171875 848.700195312 l 1
EndSplineSet
EndChar

StartChar: Yacute
Encoding: 221 221 159
Width: 583
GlyphClass: 2
Flags: MW
HStem: 0.0595703 21G<158.543 273.742 158.543 158.543> 671.26 20G<78.0469 209.542 209.542 209.542 541.851 673.359 673.359 673.359>
VStem: 241.988 115.199
LayerCount: 2
Fore
SplineSet
541.850585938 691.259765625 m 1
 673.359375 691.259765625 l 1
 337.786132812 277.46484375 l 1
 273.7421875 0.0595703125 l 1
 158.54296875 0.0595703125 l 1
 222.806640625 278.416992188 l 1
 78.046875 691.259765625 l 1
 209.541992188 691.259765625 l 1
 306.001953125 385.42578125 l 1
 541.850585938 691.259765625 l 1
442.53515625 871.740234375 m 1
 588.676757812 871.740234375 l 1
 388.944335938 720.059570312 l 1
 274.796875 720.059570312 l 1
 442.53515625 871.740234375 l 1
EndSplineSet
EndChar

StartChar: Thorn
Encoding: 222 222 160
Width: 638
GlyphClass: 2
Flags: MW
HStem: 0.0595703 21G<-7.53809 108.622 -7.53809 -7.53809> 148.86 106.56<167.576 326.335 142.976 352.855> 467.58 106.56<241.159 397.036 216.557 424.519> 671.26 20G<152.038 268.198 268.198 268.198>
VStem: 75.9072 116.159 502.146 115.2
LayerCount: 2
Fore
SplineSet
424.518554688 574.139648438 m 2
 467.471679688 574.139648438 666.201171875 573.1171875 617.234375 361.01953125 c 0
 607.015625 316.756835938 562.1953125 148.860351562 326.334960938 148.860351562 c 2
 142.975585938 148.860351562 l 1
 108.622070312 0.0595703125 l 1
 -7.5380859375 0.0595703125 l 1
 152.038085938 691.259765625 l 1
 268.198242188 691.259765625 l 1
 241.159179688 574.139648438 l 1
 424.518554688 574.139648438 l 2
352.85546875 255.419921875 m 2
 454.2578125 255.419921875 488.002929688 300.240234375 501.8125 360.059570312 c 0
 511.162109375 400.557617188 506.412109375 426.610351562 491.387695312 442.11328125 c 0
 476.0078125 457.982421875 445.345703125 467.580078125 397.036132812 467.580078125 c 2
 216.556640625 467.580078125 l 1
 167.576171875 255.419921875 l 1
 352.85546875 255.419921875 l 2
EndSplineSet
EndChar

StartChar: germandbls
Encoding: 223 223 161
Width: 564
GlyphClass: 2
Flags: MW
HStem: -3.78027 100.801<211.648 237.336 188.376 255.809> 366.78 100.8<296.239 311.367 272.968 340.399> 597.179 101.762<331.409 373.814>
VStem: 71.1074 110.4 404.229 110.399 412.868 110.399
LayerCount: 2
Fore
SplineSet
493.6796875 233.33984375 m 0xf4
 455.18359375 66.5947265625 394.466796875 -3.7802734375 237.3359375 -3.7802734375 c 2
 188.375976562 -3.7802734375 l 1
 211.6484375 97.0205078125 l 1
 255.80859375 97.0205078125 l 2
 317.237304688 97.0205078125 339.359375 116.755859375 354.502929688 145.702148438 c 0
 364.232421875 164.301757812 373.928710938 192.833984375 382.615234375 230.459960938 c 0xf4
 403.967773438 322.948242188 390.79296875 343.296875 374.263671875 354.297851562 c 0
 362.797851562 361.930664062 342.01953125 366.780273438 311.3671875 366.780273438 c 2
 272.967773438 366.780273438 l 1
 296.239257812 467.580078125 l 1
 340.399414062 467.580078125 l 2
 375.497070312 467.580078125 399.920898438 474.024414062 413.893554688 483.260742188 c 0
 427.579101562 492.305664062 437.78125 506.833984375 443.346679688 530.940429688 c 0
 449.075195312 555.752929688 444.713867188 570.678710938 432.389648438 580.388671875 c 0
 419.416015625 590.611328125 393.629882812 597.178710938 353.999023438 597.178710938 c 0
 308.818359375 597.178710938 276.65234375 588.303710938 256.703125 574.182617188 c 0
 237.368164062 560.49609375 221.764648438 535.872070312 212.647460938 496.379882812 c 2
 98.0625 0.0595703125 l 1
 -12.337890625 0.0595703125 l 1
 100.251953125 487.740234375 l 2
 142.948242188 672.676757812 277.375 698.940429688 374.612304688 698.940429688 c 0
 441.6875 698.940429688 492.116210938 685.758789062 524.236328125 657.262695312 c 0
 556.671875 628.486328125 566.489257812 586.13671875 554.411132812 533.8203125 c 0xf8
 542.649414062 482.875 516.869140625 446.365234375 474.037109375 421.026367188 c 1
 510.518554688 392.813476562 520.092773438 347.75 493.6796875 233.33984375 c 0xf4
EndSplineSet
EndChar

StartChar: agrave
Encoding: 224 224 162
Width: 553
GlyphClass: 2
Flags: MW
HStem: -5.7002 95.04<149.778 189.196> 223.741 90.2393<182.019 376.937 238.696 356.102> 430.14 96.96<278.874 338.018> 680.861 20G<169.202 316.343 316.343 316.343>
VStem: 47.1064 109.44 63.4277 108.48 387.906 110.4
LayerCount: 2
Fore
SplineSet
288.553710938 430.139648438 m 0xfa
 238.5390625 430.139648438 184.733398438 417.053710938 172.461914062 363.900390625 c 2
 168.47265625 346.620117188 l 1
 59.9921875 346.620117188 l 1
 63.9814453125 363.900390625 l 2xf6
 75.5107421875 413.836914062 104.401367188 455.009765625 149.250976562 484.284179688 c 0
 193.848632812 513.393554688 247.768554688 527.099609375 309.979492188 527.099609375 c 0
 380.47265625 527.099609375 433.008789062 511.51953125 465.33203125 478.166992188 c 0
 497.862304688 444.600585938 506.221679688 395.786132812 492.211914062 335.099609375 c 2
 414.861328125 0.0595703125 l 1
 306.381835938 0.0595703125 l 1
 314.735351562 36.2412109375 l 1
 271.67578125 7.8671875 219.259765625 -5.7001953125 159.131835938 -5.7001953125 c 0
 97.7080078125 -5.7001953125 51.845703125 7.2275390625 23.708984375 35.44921875 c 0
 -4.611328125 63.8544921875 -12.0263671875 105.369140625 -0.212890625 156.540039062 c 0
 12.9296875 213.465820312 61.259765625 313.98046875 238.696289062 313.98046875 c 2
 376.936523438 313.98046875 l 1
 381.369140625 333.1796875 l 2
 392.032226562 379.3671875 387.481445312 430.139648438 288.553710938 430.139648438 c 0xfa
197.393554688 89.33984375 m 0
 294.05859375 89.33984375 334.576171875 130.501953125 350.561523438 199.741210938 c 2
 356.1015625 223.741210938 l 1
 231.301757812 223.741210938 l 2
 132.736328125 223.741210938 115.954101562 185.672851562 109.44921875 157.5 c 0xfa
 102.666992188 128.12109375 102.162109375 89.33984375 197.393554688 89.33984375 c 0
316.342773438 700.861328125 m 1
 412.859375 549.180664062 l 1
 298.8984375 549.180664062 l 1
 169.202148438 700.861328125 l 1
 316.342773438 700.861328125 l 1
EndSplineSet
EndChar

StartChar: aacute
Encoding: 225 225 163
Width: 553
GlyphClass: 2
Flags: MW
HStem: -5.7002 95.04<149.778 189.196> 223.741 90.2393<182.019 376.937 238.696 356.102> 430.14 96.96<278.874 338.018> 680.861 20G<373.323 519.465 519.465 519.465>
VStem: 47.1064 109.44 63.4277 108.48 387.906 110.4
LayerCount: 2
Fore
SplineSet
288.553710938 430.139648438 m 0xfa
 238.5390625 430.139648438 184.733398438 417.053710938 172.461914062 363.900390625 c 2
 168.47265625 346.620117188 l 1
 59.9921875 346.620117188 l 1
 63.9814453125 363.900390625 l 2xf6
 75.5107421875 413.836914062 104.401367188 455.009765625 149.250976562 484.284179688 c 0
 193.848632812 513.393554688 247.768554688 527.099609375 309.979492188 527.099609375 c 0
 380.47265625 527.099609375 433.008789062 511.51953125 465.33203125 478.166992188 c 0
 497.862304688 444.600585938 506.221679688 395.786132812 492.211914062 335.099609375 c 2
 414.861328125 0.0595703125 l 1
 306.381835938 0.0595703125 l 1
 314.735351562 36.2412109375 l 1
 271.67578125 7.8671875 219.259765625 -5.7001953125 159.131835938 -5.7001953125 c 0
 97.7080078125 -5.7001953125 51.845703125 7.2275390625 23.708984375 35.44921875 c 0
 -4.611328125 63.8544921875 -12.0263671875 105.369140625 -0.212890625 156.540039062 c 0
 12.9296875 213.465820312 61.259765625 313.98046875 238.696289062 313.98046875 c 2
 376.936523438 313.98046875 l 1
 381.369140625 333.1796875 l 2
 392.032226562 379.3671875 387.481445312 430.139648438 288.553710938 430.139648438 c 0xfa
197.393554688 89.33984375 m 0
 294.05859375 89.33984375 334.576171875 130.501953125 350.561523438 199.741210938 c 2
 356.1015625 223.741210938 l 1
 231.301757812 223.741210938 l 2
 132.736328125 223.741210938 115.954101562 185.672851562 109.44921875 157.5 c 0xfa
 102.666992188 128.12109375 102.162109375 89.33984375 197.393554688 89.33984375 c 0
373.323242188 700.861328125 m 1
 519.46484375 700.861328125 l 1
 319.731445312 549.180664062 l 1
 205.583984375 549.180664062 l 1
 373.323242188 700.861328125 l 1
EndSplineSet
EndChar

StartChar: acircumflex
Encoding: 226 226 164
Width: 553
GlyphClass: 2
Flags: MW
HStem: -5.7002 95.04<149.778 189.196> 223.741 90.2393<182.019 376.937 238.696 356.102> 430.14 96.96<278.874 338.018>
VStem: 47.1064 109.44 63.4277 108.48 387.906 110.4
LayerCount: 2
Fore
SplineSet
288.553710938 430.139648438 m 0xf4
 238.5390625 430.139648438 184.733398438 417.053710938 172.461914062 363.900390625 c 2
 168.47265625 346.620117188 l 1
 59.9921875 346.620117188 l 1
 63.9814453125 363.900390625 l 2xec
 75.5107421875 413.836914062 104.401367188 455.009765625 149.250976562 484.284179688 c 0
 193.848632812 513.393554688 247.768554688 527.099609375 309.979492188 527.099609375 c 0
 380.47265625 527.099609375 433.008789062 511.51953125 465.33203125 478.166992188 c 0
 497.862304688 444.600585938 506.221679688 395.786132812 492.211914062 335.099609375 c 2
 414.861328125 0.0595703125 l 1
 306.381835938 0.0595703125 l 1
 314.735351562 36.2412109375 l 1
 271.67578125 7.8671875 219.259765625 -5.7001953125 159.131835938 -5.7001953125 c 0
 97.7080078125 -5.7001953125 51.845703125 7.2275390625 23.708984375 35.44921875 c 0
 -4.611328125 63.8544921875 -12.0263671875 105.369140625 -0.212890625 156.540039062 c 0
 12.9296875 213.465820312 61.259765625 313.98046875 238.696289062 313.98046875 c 2
 376.936523438 313.98046875 l 1
 381.369140625 333.1796875 l 2
 392.032226562 379.3671875 387.481445312 430.139648438 288.553710938 430.139648438 c 0xf4
197.393554688 89.33984375 m 0
 294.05859375 89.33984375 334.576171875 130.501953125 350.561523438 199.741210938 c 2
 356.1015625 223.741210938 l 1
 231.301757812 223.741210938 l 2
 132.736328125 223.741210938 115.954101562 185.672851562 109.44921875 157.5 c 0xf4
 102.666992188 128.12109375 102.162109375 89.33984375 197.393554688 89.33984375 c 0
317.751953125 713.340820312 m 1
 392.997070312 713.340820312 l 1
 505.591796875 544.380859375 l 1
 390.22265625 544.380859375 l 1
 335.16796875 624.012695312 l 1
 242.4609375 544.380859375 l 1
 127.143554688 544.380859375 l 1
 317.751953125 713.340820312 l 1
EndSplineSet
EndChar

StartChar: atilde
Encoding: 227 227 165
Width: 553
GlyphClass: 2
Flags: MW
HStem: -5.7002 95.04<149.778 189.196> 223.741 90.2393<182.019 376.937 238.696 356.102> 430.14 96.96<278.874 338.018> 547.261 96<399.081 404.551> 583.741 96<263.564 265.903> 678.937 20G<507.088 507.088>
VStem: 47.1064 109.44 63.4277 108.48 387.906 110.4
LayerCount: 2
Fore
SplineSet
288.553710938 430.139648438 m 0xe280
 238.5390625 430.139648438 184.733398438 417.053710938 172.461914062 363.900390625 c 2
 168.47265625 346.620117188 l 1
 59.9921875 346.620117188 l 1
 63.9814453125 363.900390625 l 2xe180
 75.5107421875 413.836914062 104.401367188 455.009765625 149.250976562 484.284179688 c 0
 193.848632812 513.393554688 247.768554688 527.099609375 309.979492188 527.099609375 c 0
 380.47265625 527.099609375 433.008789062 511.51953125 465.33203125 478.166992188 c 0
 497.862304688 444.600585938 506.221679688 395.786132812 492.211914062 335.099609375 c 2
 414.861328125 0.0595703125 l 1
 306.381835938 0.0595703125 l 1
 314.735351562 36.2412109375 l 1
 271.67578125 7.8671875 219.259765625 -5.7001953125 159.131835938 -5.7001953125 c 0
 97.7080078125 -5.7001953125 51.845703125 7.2275390625 23.708984375 35.44921875 c 0
 -4.611328125 63.8544921875 -12.0263671875 105.369140625 -0.212890625 156.540039062 c 0
 12.9296875 213.465820312 61.259765625 313.98046875 238.696289062 313.98046875 c 2
 376.936523438 313.98046875 l 1
 381.369140625 333.1796875 l 2
 392.032226562 379.3671875 387.481445312 430.139648438 288.553710938 430.139648438 c 0xe280
197.393554688 89.33984375 m 0
 294.05859375 89.33984375 334.576171875 130.501953125 350.561523438 199.741210938 c 2
 356.1015625 223.741210938 l 1
 231.301757812 223.741210938 l 2
 132.736328125 223.741210938 115.954101562 185.672851562 109.44921875 157.5 c 0xe280
 102.666992188 128.12109375 102.162109375 89.33984375 197.393554688 89.33984375 c 0
285.697265625 679.741210938 m 0xe880
 307.758789062 679.741210938 324.771484375 676.380859375 355.376953125 659.098632812 c 0
 382.538085938 644.666992188 392.248046875 643.260742188 405.9140625 643.260742188 c 0
 424.772460938 643.260742188 440.185546875 646.70703125 477.412109375 675.768554688 c 2
 507.087890625 698.936523438 l 1
 482.025390625 590.37890625 l 1
 465.8046875 576.896484375 430.150390625 547.260742188 378.951171875 547.260742188 c 0xf480
 355.786132812 547.260742188 338.979492188 550.6015625 308.422851562 567.840820312 c 0
 279.26171875 582.46875 273.072265625 583.741210938 258.734375 583.741210938 c 0
 241.143554688 583.741210938 226.319335938 580.594726562 186.936523438 551.00390625 c 2
 157.802734375 529.11328125 l 1
 182.479492188 635.999023438 l 1
 211.10546875 658.302734375 241.431640625 679.741210938 285.697265625 679.741210938 c 0xe880
EndSplineSet
EndChar

StartChar: adieresis
Encoding: 228 228 166
Width: 553
GlyphClass: 2
Flags: MW
HStem: -5.7002 95.04<149.778 189.196> 223.741 90.2393<182.019 376.937 238.696 356.102> 430.14 96.96<278.874 338.018> 557.821 120<189.254 271.95 161.55 299.654 189.254 367.95 395.654 477.391>
VStem: 47.1064 109.44 63.4277 108.48 116.226 110.4 322.626 109.44 387.906 110.4
LayerCount: 2
Fore
SplineSet
288.553710938 430.139648438 m 0xf880
 238.5390625 430.139648438 184.733398438 417.053710938 172.461914062 363.900390625 c 2
 168.47265625 346.620117188 l 1
 59.9921875 346.620117188 l 1
 63.9814453125 363.900390625 l 2xf4
 75.5107421875 413.836914062 104.401367188 455.009765625 149.250976562 484.284179688 c 0
 193.848632812 513.393554688 247.768554688 527.099609375 309.979492188 527.099609375 c 0
 380.47265625 527.099609375 433.008789062 511.51953125 465.33203125 478.166992188 c 0
 497.862304688 444.600585938 506.221679688 395.786132812 492.211914062 335.099609375 c 2
 414.861328125 0.0595703125 l 1
 306.381835938 0.0595703125 l 1
 314.735351562 36.2412109375 l 1
 271.67578125 7.8671875 219.259765625 -5.7001953125 159.131835938 -5.7001953125 c 0
 97.7080078125 -5.7001953125 51.845703125 7.2275390625 23.708984375 35.44921875 c 0
 -4.611328125 63.8544921875 -12.0263671875 105.369140625 -0.212890625 156.540039062 c 0
 12.9296875 213.465820312 61.259765625 313.98046875 238.696289062 313.98046875 c 2
 376.936523438 313.98046875 l 1
 381.369140625 333.1796875 l 2
 392.032226562 379.3671875 387.481445312 430.139648438 288.553710938 430.139648438 c 0xf880
197.393554688 89.33984375 m 0
 294.05859375 89.33984375 334.576171875 130.501953125 350.561523438 199.741210938 c 2
 356.1015625 223.741210938 l 1
 231.301757812 223.741210938 l 2
 132.736328125 223.741210938 115.954101562 185.672851562 109.44921875 157.5 c 0xf880
 102.666992188 128.12109375 102.162109375 89.33984375 197.393554688 89.33984375 c 0
189.25390625 677.821289062 m 1xf2
 299.654296875 677.821289062 l 1
 271.950195312 557.821289062 l 1
 161.549804688 557.821289062 l 1
 189.25390625 677.821289062 l 1xf2
395.654296875 677.821289062 m 1xf1
 505.094726562 677.821289062 l 1
 477.390625 557.821289062 l 1
 367.950195312 557.821289062 l 1
 395.654296875 677.821289062 l 1xf1
EndSplineSet
EndChar

StartChar: aring
Encoding: 229 229 167
Width: 553
GlyphClass: 2
Flags: MW
HStem: -5.7002 95.04<149.778 189.196> 223.741 90.2393<182.019 376.937 238.696 356.102> 430.14 96.96<278.874 338.018> 539.581 69.1201<326.375 337.018 326.375 346.728> 679.741 70.0801<337.651 358.542>
VStem: 47.1064 109.44 63.4277 108.48 169.986 71.04 308.226 71.04 387.906 110.4
LayerCount: 2
Fore
SplineSet
288.553710938 430.139648438 m 0xfcc0
 238.5390625 430.139648438 184.733398438 417.053710938 172.461914062 363.900390625 c 2
 168.47265625 346.620117188 l 1
 59.9921875 346.620117188 l 1
 63.9814453125 363.900390625 l 2xfac0
 75.5107421875 413.836914062 104.401367188 455.009765625 149.250976562 484.284179688 c 0
 193.848632812 513.393554688 247.768554688 527.099609375 309.979492188 527.099609375 c 0
 380.47265625 527.099609375 433.008789062 511.51953125 465.33203125 478.166992188 c 0
 497.862304688 444.600585938 506.221679688 395.786132812 492.211914062 335.099609375 c 2
 414.861328125 0.0595703125 l 1
 306.381835938 0.0595703125 l 1
 314.735351562 36.2412109375 l 1
 271.67578125 7.8671875 219.259765625 -5.7001953125 159.131835938 -5.7001953125 c 0
 97.7080078125 -5.7001953125 51.845703125 7.2275390625 23.708984375 35.44921875 c 0
 -4.611328125 63.8544921875 -12.0263671875 105.369140625 -0.212890625 156.540039062 c 0
 12.9296875 213.465820312 61.259765625 313.98046875 238.696289062 313.98046875 c 2
 376.936523438 313.98046875 l 1
 381.369140625 333.1796875 l 2
 392.032226562 379.3671875 387.481445312 430.139648438 288.553710938 430.139648438 c 0xfcc0
197.393554688 89.33984375 m 0
 294.05859375 89.33984375 334.576171875 130.501953125 350.561523438 199.741210938 c 2
 356.1015625 223.741210938 l 1
 231.301757812 223.741210938 l 2
 132.736328125 223.741210938 115.954101562 185.672851562 109.44921875 157.5 c 0xfcc0
 102.666992188 128.12109375 102.162109375 89.33984375 197.393554688 89.33984375 c 0
315.739257812 539.581054688 m 0
 255.032226562 539.581054688 221.2421875 583.514648438 235.2578125 644.220703125 c 0xf9c0
 249.166015625 704.46484375 303.092773438 749.821289062 364.27734375 749.821289062 c 0
 422.956054688 749.821289062 458.739257812 705.740234375 444.537109375 644.220703125 c 0
 431.10546875 586.041992188 377.715820312 539.581054688 315.739257812 539.581054688 c 0
348.09765625 679.741210938 m 0
 327.205078125 679.741210938 311.235351562 665.608398438 306.297851562 644.220703125 c 0
 303.78125 633.3203125 305.106445312 625.390625 309.931640625 618.521484375 c 0
 314.584960938 611.896484375 321.052734375 608.701171875 331.696289062 608.701171875 c 0
 342.33984375 608.701171875 350.284179688 611.896484375 357.99609375 618.521484375 c 0
 365.993164062 625.390625 370.98046875 633.3203125 373.497070312 644.220703125 c 0
 378.435546875 665.612304688 368.987304688 679.741210938 348.09765625 679.741210938 c 0
EndSplineSet
EndChar

